<?xml version="1.0" encoding="UTF-8" standalone="no"?>
<!DOCTYPE svg PUBLIC "-//W3C//DTD SVG 1.1//EN"
 "http://www.w3.org/Graphics/SVG/1.1/DTD/svg11.dtd">
<!-- Generated by graphviz version 2.38.0 (20140413.2041)
 -->
<!-- Title: C:/Users/vashm/Documents/git/robotics&#45;prototype/robot/rover/ArmDriverUnit/ArmDriverUnit.ino Pages: 1 -->
<svg width="467pt" height="229pt"
 viewBox="0.00 0.00 467.20 229.00" xmlns="http://www.w3.org/2000/svg" xmlns:xlink="http://www.w3.org/1999/xlink">
<g id="graph0" class="graph" transform="scale(1 1) rotate(0) translate(4 225)">
<title>C:/Users/vashm/Documents/git/robotics&#45;prototype/robot/rover/ArmDriverUnit/ArmDriverUnit.ino</title>
<polygon fill="white" stroke="none" points="-4,4 -4,-225 463.201,-225 463.201,4 -4,4"/>
<!-- Node0 -->
<g id="node1" class="node"><title>Node0</title>
<polygon fill="#bfbfbf" stroke="black" points="141.201,-168.5 141.201,-220.5 279.201,-220.5 279.201,-168.5 141.201,-168.5"/>
<text text-anchor="start" x="149.201" y="-208.5" font-family="Helvetica,sans-Serif" font-size="10.00">C:/Users/vashm/Documents</text>
<text text-anchor="start" x="149.201" y="-197.5" font-family="Helvetica,sans-Serif" font-size="10.00">/git/robotics&#45;prototype</text>
<text text-anchor="start" x="149.201" y="-186.5" font-family="Helvetica,sans-Serif" font-size="10.00">/robot/rover/ArmDriverUnit</text>
<text text-anchor="middle" x="210.201" y="-175.5" font-family="Helvetica,sans-Serif" font-size="10.00">/ArmDriverUnit.ino</text>
</g>
<!-- Node1 -->
<g id="node2" class="node"><title>Node1</title>
<polygon fill="white" stroke="#bfbfbf" points="12.7008,-56.5 12.7008,-75.5 61.7008,-75.5 61.7008,-56.5 12.7008,-56.5"/>
<text text-anchor="middle" x="37.2008" y="-63.5" font-family="Helvetica,sans-Serif" font-size="10.00">Servo.h</text>
</g>
<!-- Node0&#45;&gt;Node1 -->
<g id="edge1" class="edge"><title>Node0&#45;&gt;Node1</title>
<path fill="none" stroke="midnightblue" d="M141.147,-185.1C106.655,-177.188 67.427,-161.826 44.2008,-132 34.0761,-118.998 33.1841,-99.8373 34.309,-85.6851"/>
<polygon fill="midnightblue" stroke="midnightblue" points="37.8001,-85.9659 35.5056,-75.6225 30.8491,-85.1392 37.8001,-85.9659"/>
</g>
<!-- Node2 -->
<g id="node3" class="node"><title>Node2</title>
<g id="a_node3"><a xlink:href="PinSetup_8h.html" target="_top" xlink:title="PinSetup.h">
<polygon fill="white" stroke="black" points="127.701,-0.5 127.701,-19.5 192.701,-19.5 192.701,-0.5 127.701,-0.5"/>
<text text-anchor="middle" x="160.201" y="-7.5" font-family="Helvetica,sans-Serif" font-size="10.00">PinSetup.h</text>
</a>
</g>
</g>
<!-- Node0&#45;&gt;Node2 -->
<g id="edge2" class="edge"><title>Node0&#45;&gt;Node2</title>
<path fill="none" stroke="midnightblue" d="M141.059,-182.351C105.248,-173.648 62.7482,-158.406 32.2008,-132 10.9968,-113.671 9.83367,-103.232 3.20082,-76 1.09727,-67.3636 -2.14905,-63.0987 3.20082,-56 16.9956,-37.6958 75.9819,-24.5637 117.579,-17.3712"/>
<polygon fill="midnightblue" stroke="midnightblue" points="118.194,-20.817 127.479,-15.7136 117.038,-13.9131 118.194,-20.817"/>
</g>
<!-- Node3 -->
<g id="node4" class="node"><title>Node3</title>
<g id="a_node4"><a xlink:href="Parser_8h.html" target="_top" xlink:title="Parser.h">
<polygon fill="white" stroke="black" points="145.701,-112.5 145.701,-131.5 198.701,-131.5 198.701,-112.5 145.701,-112.5"/>
<text text-anchor="middle" x="172.201" y="-119.5" font-family="Helvetica,sans-Serif" font-size="10.00">Parser.h</text>
</a>
</g>
</g>
<!-- Node0&#45;&gt;Node3 -->
<g id="edge3" class="edge"><title>Node0&#45;&gt;Node3</title>
<path fill="none" stroke="midnightblue" d="M196.696,-168.446C191.729,-159.229 186.212,-148.995 181.674,-140.576"/>
<polygon fill="midnightblue" stroke="midnightblue" points="184.713,-138.838 176.888,-131.695 178.552,-142.159 184.713,-138.838"/>
</g>
<!-- Node4 -->
<g id="node5" class="node"><title>Node4</title>
<g id="a_node5"><a xlink:href="RobotMotor_8h.html" target="_top" xlink:title="RobotMotor.h">
<polygon fill="white" stroke="black" points="270.701,-56.5 270.701,-75.5 345.701,-75.5 345.701,-56.5 270.701,-56.5"/>
<text text-anchor="middle" x="308.201" y="-63.5" font-family="Helvetica,sans-Serif" font-size="10.00">RobotMotor.h</text>
</a>
</g>
</g>
<!-- Node0&#45;&gt;Node4 -->
<g id="edge10" class="edge"><title>Node0&#45;&gt;Node4</title>
<path fill="none" stroke="midnightblue" d="M251.338,-168.368C264.698,-158.47 278.55,-146.082 288.201,-132 297.691,-118.152 302.809,-99.6351 305.484,-85.9075"/>
<polygon fill="midnightblue" stroke="midnightblue" points="308.992,-86.1525 307.199,-75.7105 302.089,-84.9917 308.992,-86.1525"/>
</g>
<!-- Node6 -->
<g id="node7" class="node"><title>Node6</title>
<g id="a_node7"><a xlink:href="PidController_8h.html" target="_top" xlink:title="PidController.h">
<polygon fill="white" stroke="black" points="379.201,-0.5 379.201,-19.5 459.201,-19.5 459.201,-0.5 379.201,-0.5"/>
<text text-anchor="middle" x="419.201" y="-7.5" font-family="Helvetica,sans-Serif" font-size="10.00">PidController.h</text>
</a>
</g>
</g>
<!-- Node0&#45;&gt;Node6 -->
<g id="edge9" class="edge"><title>Node0&#45;&gt;Node6</title>
<path fill="none" stroke="midnightblue" d="M279.379,-183.101C335.878,-173.026 409.225,-155.778 427.201,-132 449.964,-101.889 436.917,-54.602 427.056,-28.9688"/>
<polygon fill="midnightblue" stroke="midnightblue" points="430.292,-27.6358 423.263,-19.7085 423.814,-30.289 430.292,-27.6358"/>
</g>
<!-- Node7 -->
<g id="node8" class="node"><title>Node7</title>
<g id="a_node8"><a xlink:href="StepperMotor_8h.html" target="_top" xlink:title="StepperMotor.h">
<polygon fill="white" stroke="black" points="335.701,-112.5 335.701,-131.5 418.701,-131.5 418.701,-112.5 335.701,-112.5"/>
<text text-anchor="middle" x="377.201" y="-119.5" font-family="Helvetica,sans-Serif" font-size="10.00">StepperMotor.h</text>
</a>
</g>
</g>
<!-- Node0&#45;&gt;Node7 -->
<g id="edge11" class="edge"><title>Node0&#45;&gt;Node7</title>
<path fill="none" stroke="midnightblue" d="M269.549,-168.446C296.053,-157.257 326.108,-144.569 347.713,-135.448"/>
<polygon fill="midnightblue" stroke="midnightblue" points="349.151,-138.641 357.002,-131.527 346.428,-132.192 349.151,-138.641"/>
</g>
<!-- Node8 -->
<g id="node9" class="node"><title>Node8</title>
<g id="a_node9"><a xlink:href="DcMotor_8h.html" target="_top" xlink:title="DcMotor.h">
<polygon fill="white" stroke="black" points="217.201,-112.5 217.201,-131.5 279.201,-131.5 279.201,-112.5 217.201,-112.5"/>
<text text-anchor="middle" x="248.201" y="-119.5" font-family="Helvetica,sans-Serif" font-size="10.00">DcMotor.h</text>
</a>
</g>
</g>
<!-- Node0&#45;&gt;Node8 -->
<g id="edge15" class="edge"><title>Node0&#45;&gt;Node8</title>
<path fill="none" stroke="midnightblue" d="M223.705,-168.446C228.673,-159.229 234.189,-148.995 238.727,-140.576"/>
<polygon fill="midnightblue" stroke="midnightblue" points="241.85,-142.159 243.514,-131.695 235.688,-138.838 241.85,-142.159"/>
</g>
<!-- Node9 -->
<g id="node10" class="node"><title>Node9</title>
<g id="a_node10"><a xlink:href="ServoMotor_8h.html" target="_top" xlink:title="ServoMotor.h">
<polygon fill="white" stroke="black" points="53.2008,-112.5 53.2008,-131.5 127.201,-131.5 127.201,-112.5 53.2008,-112.5"/>
<text text-anchor="middle" x="90.2008" y="-119.5" font-family="Helvetica,sans-Serif" font-size="10.00">ServoMotor.h</text>
</a>
</g>
</g>
<!-- Node0&#45;&gt;Node9 -->
<g id="edge19" class="edge"><title>Node0&#45;&gt;Node9</title>
<path fill="none" stroke="midnightblue" d="M167.555,-168.446C149.369,-157.761 128.854,-145.709 113.523,-136.702"/>
<polygon fill="midnightblue" stroke="midnightblue" points="115.11,-133.575 104.715,-131.527 111.564,-139.61 115.11,-133.575"/>
</g>
<!-- Node3&#45;&gt;Node2 -->
<g id="edge4" class="edge"><title>Node3&#45;&gt;Node2</title>
<path fill="none" stroke="midnightblue" d="M171.259,-112.368C169.323,-94.617 164.855,-53.6664 162.23,-29.5974"/>
<polygon fill="midnightblue" stroke="midnightblue" points="165.702,-29.1528 161.138,-19.5914 158.743,-29.912 165.702,-29.1528"/>
</g>
<!-- Node3&#45;&gt;Node4 -->
<g id="edge5" class="edge"><title>Node3&#45;&gt;Node4</title>
<path fill="none" stroke="midnightblue" d="M193.75,-112.444C216.232,-103.517 251.688,-89.4387 277.181,-79.3168"/>
<polygon fill="midnightblue" stroke="midnightblue" points="278.75,-82.4598 286.752,-75.5164 276.166,-75.9539 278.75,-82.4598"/>
</g>
<!-- Node4&#45;&gt;Node2 -->
<g id="edge7" class="edge"><title>Node4&#45;&gt;Node2</title>
<path fill="none" stroke="midnightblue" d="M284.75,-56.4435C260.068,-47.4381 221.015,-33.1891 193.224,-23.049"/>
<polygon fill="midnightblue" stroke="midnightblue" points="194.136,-19.6561 183.542,-19.5164 191.737,-26.2321 194.136,-19.6561"/>
</g>
<!-- Node5 -->
<g id="node6" class="node"><title>Node5</title>
<polygon fill="white" stroke="#bfbfbf" points="243.201,-0.5 243.201,-19.5 301.201,-19.5 301.201,-0.5 243.201,-0.5"/>
<text text-anchor="middle" x="272.201" y="-7.5" font-family="Helvetica,sans-Serif" font-size="10.00">Arduino.h</text>
</g>
<!-- Node4&#45;&gt;Node5 -->
<g id="edge6" class="edge"><title>Node4&#45;&gt;Node5</title>
<path fill="none" stroke="midnightblue" d="M302.256,-56.083C297.224,-48.5341 289.864,-37.4948 283.687,-28.2298"/>
<polygon fill="midnightblue" stroke="midnightblue" points="286.494,-26.1301 278.035,-19.7511 280.67,-30.0131 286.494,-26.1301"/>
</g>
<!-- Node4&#45;&gt;Node6 -->
<g id="edge8" class="edge"><title>Node4&#45;&gt;Node6</title>
<path fill="none" stroke="midnightblue" d="M326.035,-56.324C343.917,-47.6247 371.676,-34.1202 392.246,-24.113"/>
<polygon fill="midnightblue" stroke="midnightblue" points="393.95,-27.1765 401.411,-19.6545 390.887,-20.8819 393.95,-27.1765"/>
</g>
<!-- Node7&#45;&gt;Node2 -->
<g id="edge13" class="edge"><title>Node7&#45;&gt;Node2</title>
<path fill="none" stroke="midnightblue" d="M376.706,-112.406C375.421,-98.4267 370.802,-70.8364 354.201,-56 332.132,-36.2779 252.814,-22.8085 202.69,-16.0493"/>
<polygon fill="midnightblue" stroke="midnightblue" points="203.145,-12.5791 192.775,-14.748 202.234,-19.5196 203.145,-12.5791"/>
</g>
<!-- Node7&#45;&gt;Node4 -->
<g id="edge14" class="edge"><title>Node7&#45;&gt;Node4</title>
<path fill="none" stroke="midnightblue" d="M366.115,-112.324C355.715,-104.185 339.94,-91.8395 327.479,-82.0874"/>
<polygon fill="midnightblue" stroke="midnightblue" points="329.521,-79.2407 319.489,-75.8339 325.207,-84.7533 329.521,-79.2407"/>
</g>
<!-- Node7&#45;&gt;Node5 -->
<g id="edge12" class="edge"><title>Node7&#45;&gt;Node5</title>
<path fill="none" stroke="midnightblue" d="M382.377,-112.155C389.444,-98.7897 399.969,-73.1876 388.201,-56 371.125,-31.06 338.06,-19.9397 311.587,-14.9828"/>
<polygon fill="midnightblue" stroke="midnightblue" points="311.881,-11.4842 301.446,-13.3166 310.746,-18.3916 311.881,-11.4842"/>
</g>
<!-- Node8&#45;&gt;Node2 -->
<g id="edge17" class="edge"><title>Node8&#45;&gt;Node2</title>
<path fill="none" stroke="midnightblue" d="M241.296,-112.368C226.709,-94.135 192.541,-51.4257 173.541,-27.6752"/>
<polygon fill="midnightblue" stroke="midnightblue" points="176.054,-25.2137 167.074,-19.5914 170.588,-29.5866 176.054,-25.2137"/>
</g>
<!-- Node8&#45;&gt;Node4 -->
<g id="edge18" class="edge"><title>Node8&#45;&gt;Node4</title>
<path fill="none" stroke="midnightblue" d="M257.841,-112.324C266.71,-104.341 280.076,-92.3128 290.809,-82.6529"/>
<polygon fill="midnightblue" stroke="midnightblue" points="293.294,-85.1251 298.385,-75.8339 288.611,-79.922 293.294,-85.1251"/>
</g>
<!-- Node8&#45;&gt;Node5 -->
<g id="edge16" class="edge"><title>Node8&#45;&gt;Node5</title>
<path fill="none" stroke="midnightblue" d="M249.849,-112.144C252.209,-99.6107 256.759,-75.9972 261.201,-56 263.143,-47.2557 265.477,-37.6026 267.495,-29.4865"/>
<polygon fill="midnightblue" stroke="midnightblue" points="270.936,-30.1534 269.983,-19.6015 264.148,-28.4445 270.936,-30.1534"/>
</g>
<!-- Node9&#45;&gt;Node1 -->
<g id="edge21" class="edge"><title>Node9&#45;&gt;Node1</title>
<path fill="none" stroke="midnightblue" d="M81.4489,-112.083C73.7311,-104.22 62.2961,-92.5688 52.9843,-83.0813"/>
<polygon fill="midnightblue" stroke="midnightblue" points="55.2924,-80.4363 45.7898,-75.7511 50.2966,-85.3396 55.2924,-80.4363"/>
</g>
<!-- Node9&#45;&gt;Node2 -->
<g id="edge22" class="edge"><title>Node9&#45;&gt;Node2</title>
<path fill="none" stroke="midnightblue" d="M95.6936,-112.368C107.194,-94.2957 133.998,-52.1764 149.187,-28.3074"/>
<polygon fill="midnightblue" stroke="midnightblue" points="152.318,-29.9071 154.734,-19.5914 146.412,-26.149 152.318,-29.9071"/>
</g>
<!-- Node9&#45;&gt;Node4 -->
<g id="edge23" class="edge"><title>Node9&#45;&gt;Node4</title>
<path fill="none" stroke="midnightblue" d="M124.744,-112.444C162.454,-103.102 222.941,-88.1194 264.066,-77.9326"/>
<polygon fill="midnightblue" stroke="midnightblue" points="264.955,-81.3182 273.82,-75.5164 263.271,-74.5236 264.955,-81.3182"/>
</g>
<!-- Node9&#45;&gt;Node5 -->
<g id="edge20" class="edge"><title>Node9&#45;&gt;Node5</title>
<path fill="none" stroke="midnightblue" d="M104.482,-112.368C135.846,-93.4121 210.982,-48.0006 249.133,-24.9424"/>
<polygon fill="midnightblue" stroke="midnightblue" points="251.238,-27.7595 257.986,-19.5914 247.617,-21.7687 251.238,-27.7595"/>
</g>
</g>
</svg>
