<?xml version="1.0" encoding="UTF-8" standalone="no"?>
<!DOCTYPE svg PUBLIC "-//W3C//DTD SVG 1.1//EN"
 "http://www.w3.org/Graphics/SVG/1.1/DTD/svg11.dtd">
<!-- Generated by graphviz version 2.38.0 (20140413.2041)
 -->
<!-- Title: ServoMotor Pages: 1 -->
<!--zoomable 1239 -->
<svg id="main" version="1.1" xmlns="http://www.w3.org/2000/svg" xmlns:xlink="http://www.w3.org/1999/xlink" xml:space="preserve" onload="init(evt)">
<style type="text/css"><![CDATA[
.edge:hover path { stroke: red; }
.edge:hover polygon { stroke: red; fill: red; }
]]></style>
<script type="text/javascript"><![CDATA[
var edges = document.getElementsByTagName('g');
if (edges && edges.length) {
  for (var i=0;i<edges.length;i++) {
    if (edges[i].id.substr(0,4)=='edge') {
      edges[i].setAttribute('class','edge');
    }
  }
}
]]></script>
        <defs>
                <circle id="rim" cx="0" cy="0" r="7"/>
                <circle id="rim2" cx="0" cy="0" r="3.5"/>
                <g id="zoomPlus">
                        <use xlink:href="#rim" fill="#404040">
                                <set attributeName="fill" to="#808080" begin="zoomplus.mouseover" end="zoomplus.mouseout"/>
                        </use>
                        <path d="M-4,0h8M0,-4v8" fill="none" stroke="white" stroke-width="1.5" pointer-events="none"/>
                </g>
                <g id="zoomMin">
                        <use xlink:href="#rim" fill="#404040">
                                <set attributeName="fill" to="#808080" begin="zoomminus.mouseover" end="zoomminus.mouseout"/>
                        </use>
                        <path d="M-4,0h8" fill="none" stroke="white" stroke-width="1.5" pointer-events="none"/>
                </g>
                <g id="dirArrow">
                        <path fill="none" stroke="white" stroke-width="1.5" d="M0,-3.0v7 M-2.5,-0.5L0,-3.0L2.5,-0.5"/>
                </g>
               <g id="resetDef">
                       <use xlink:href="#rim2" fill="#404040">
                               <set attributeName="fill" to="#808080" begin="reset.mouseover" end="reset.mouseout"/>
                       </use>
               </g>
        </defs>

<script type="text/javascript">
var viewWidth = 988;
var viewHeight = 1239;
var sectionId = 'dynsection-1';
</script>
<script xlink:href="svgpan.js"/>
<svg id="graph" class="graph">
<g id="viewport">
<title>ServoMotor</title>
<polygon fill="white" stroke="none" points="-4,4 -4,-1235 984,-1235 984,4 -4,4"/>
<!-- Node2 -->
<g id="node1" class="node"><title>Node2</title>
<polygon fill="#bfbfbf" stroke="black" points="790.5,-0.5 790.5,-145.5 922.5,-145.5 922.5,-0.5 790.5,-0.5"/>
<text text-anchor="middle" x="856.5" y="-133.5" font-family="Helvetica,sans-Serif" font-size="10.00">ServoMotor</text>
<polyline fill="none" stroke="black" points="790.5,-126.5 922.5,-126.5 "/>
<text text-anchor="middle" x="856.5" y="-114.5" font-family="Helvetica,sans-Serif" font-size="10.00"> </text>
<polyline fill="none" stroke="black" points="790.5,-107.5 922.5,-107.5 "/>
<text text-anchor="start" x="798.5" y="-95.5" font-family="Helvetica,sans-Serif" font-size="10.00">+ ServoMotor()</text>
<text text-anchor="start" x="798.5" y="-84.5" font-family="Helvetica,sans-Serif" font-size="10.00">+ motorTimerInterrupt()</text>
<text text-anchor="start" x="798.5" y="-73.5" font-family="Helvetica,sans-Serif" font-size="10.00">+ calcTurningDuration()</text>
<text text-anchor="start" x="798.5" y="-62.5" font-family="Helvetica,sans-Serif" font-size="10.00">+ calcCurrentAngle()</text>
<text text-anchor="start" x="798.5" y="-51.5" font-family="Helvetica,sans-Serif" font-size="10.00">+ stopRotation()</text>
<text text-anchor="start" x="798.5" y="-40.5" font-family="Helvetica,sans-Serif" font-size="10.00">+ setVelocity()</text>
<text text-anchor="start" x="798.5" y="-29.5" font-family="Helvetica,sans-Serif" font-size="10.00">+ goToCommandedAngle()</text>
<text text-anchor="start" x="798.5" y="-18.5" font-family="Helvetica,sans-Serif" font-size="10.00">+ goToAngle()</text>
<text text-anchor="start" x="798.5" y="-7.5" font-family="Helvetica,sans-Serif" font-size="10.00">+ budge()</text>
</g>
<!-- Node3 -->
<g id="node2" class="node"><title>Node3</title>
<g id="a_node2"><a xlink:href="classRobotMotor.html" target="_top" xlink:title="The base class for ServoMotor, StepperMotor and DcMotor. ">
<polygon fill="white" stroke="black" points="397.5,-193.5 397.5,-657.5 529.5,-657.5 529.5,-193.5 397.5,-193.5"/>
<text text-anchor="middle" x="463.5" y="-645.5" font-family="Helvetica,sans-Serif" font-size="10.00">RobotMotor</text>
<polyline fill="none" stroke="black" points="397.5,-638.5 529.5,-638.5 "/>
<text text-anchor="start" x="405.5" y="-626.5" font-family="Helvetica,sans-Serif" font-size="10.00">+ motorType</text>
<text text-anchor="start" x="405.5" y="-615.5" font-family="Helvetica,sans-Serif" font-size="10.00">+ limSwitchCcw</text>
<text text-anchor="start" x="405.5" y="-604.5" font-family="Helvetica,sans-Serif" font-size="10.00">+ limSwitchFlex</text>
<text text-anchor="start" x="405.5" y="-593.5" font-family="Helvetica,sans-Serif" font-size="10.00">+ limSwitchExtend</text>
<text text-anchor="start" x="405.5" y="-582.5" font-family="Helvetica,sans-Serif" font-size="10.00">+ limitSwitchState</text>
<text text-anchor="start" x="405.5" y="-571.5" font-family="Helvetica,sans-Serif" font-size="10.00">+ homingType</text>
<text text-anchor="start" x="405.5" y="-560.5" font-family="Helvetica,sans-Serif" font-size="10.00">+ atSafeAngle</text>
<text text-anchor="start" x="405.5" y="-549.5" font-family="Helvetica,sans-Serif" font-size="10.00">+ gearRatioReciprocal</text>
<text text-anchor="start" x="405.5" y="-538.5" font-family="Helvetica,sans-Serif" font-size="10.00">+ minJointAngle</text>
<text text-anchor="start" x="405.5" y="-527.5" font-family="Helvetica,sans-Serif" font-size="10.00">+ minSoftAngle</text>
<text text-anchor="start" x="405.5" y="-516.5" font-family="Helvetica,sans-Serif" font-size="10.00">+ openLoopGain</text>
<text text-anchor="start" x="405.5" y="-505.5" font-family="Helvetica,sans-Serif" font-size="10.00">+ numMotors</text>
<text text-anchor="start" x="405.5" y="-494.5" font-family="Helvetica,sans-Serif" font-size="10.00"># encoderShift</text>
<text text-anchor="start" x="405.5" y="-483.5" font-family="Helvetica,sans-Serif" font-size="10.00"># currentAngle</text>
<polyline fill="none" stroke="black" points="397.5,-476.5 529.5,-476.5 "/>
<text text-anchor="start" x="405.5" y="-464.5" font-family="Helvetica,sans-Serif" font-size="10.00">+ checkForActualPress()</text>
<text text-anchor="start" x="405.5" y="-453.5" font-family="Helvetica,sans-Serif" font-size="10.00">+ goToSafeAngle()</text>
<text text-anchor="start" x="405.5" y="-442.5" font-family="Helvetica,sans-Serif" font-size="10.00">+ homeMotor()</text>
<text text-anchor="start" x="405.5" y="-431.5" font-family="Helvetica,sans-Serif" font-size="10.00">+ stopHoming()</text>
<text text-anchor="start" x="405.5" y="-420.5" font-family="Helvetica,sans-Serif" font-size="10.00">+ RobotMotor()</text>
<text text-anchor="start" x="405.5" y="-409.5" font-family="Helvetica,sans-Serif" font-size="10.00">+ attachEncoder()</text>
<text text-anchor="start" x="405.5" y="-398.5" font-family="Helvetica,sans-Serif" font-size="10.00">+ attachLimitSwitches()</text>
<text text-anchor="start" x="405.5" y="-387.5" font-family="Helvetica,sans-Serif" font-size="10.00">+ setAngleLimits()</text>
<text text-anchor="start" x="405.5" y="-376.5" font-family="Helvetica,sans-Serif" font-size="10.00">+ withinJointAngleLimits()</text>
<text text-anchor="start" x="405.5" y="-365.5" font-family="Helvetica,sans-Serif" font-size="10.00">+ calcDirection()</text>
<text text-anchor="start" x="405.5" y="-354.5" font-family="Helvetica,sans-Serif" font-size="10.00">+ setDesiredAngle()</text>
<text text-anchor="start" x="405.5" y="-343.5" font-family="Helvetica,sans-Serif" font-size="10.00">+ getDesiredAngle()</text>
<text text-anchor="start" x="405.5" y="-332.5" font-family="Helvetica,sans-Serif" font-size="10.00">+ calcCurrentAngle()</text>
<text text-anchor="start" x="405.5" y="-321.5" font-family="Helvetica,sans-Serif" font-size="10.00">+ setSoftwareAngle()</text>
<text text-anchor="start" x="405.5" y="-310.5" font-family="Helvetica,sans-Serif" font-size="10.00">+ getSoftwareAngle()</text>
<text text-anchor="start" x="405.5" y="-299.5" font-family="Helvetica,sans-Serif" font-size="10.00">+ switchDirectionLogic()</text>
<text text-anchor="start" x="405.5" y="-288.5" font-family="Helvetica,sans-Serif" font-size="10.00">+ getDirectionLogic()</text>
<text text-anchor="start" x="405.5" y="-277.5" font-family="Helvetica,sans-Serif" font-size="10.00">+ setGearRatio()</text>
<text text-anchor="start" x="405.5" y="-266.5" font-family="Helvetica,sans-Serif" font-size="10.00">+ setOpenLoopGain()</text>
<text text-anchor="start" x="405.5" y="-255.5" font-family="Helvetica,sans-Serif" font-size="10.00">+ setMotorSpeed()</text>
<text text-anchor="start" x="405.5" y="-244.5" font-family="Helvetica,sans-Serif" font-size="10.00">+ stopRotation()</text>
<text text-anchor="start" x="405.5" y="-233.5" font-family="Helvetica,sans-Serif" font-size="10.00">+ setVelocity()</text>
<text text-anchor="start" x="405.5" y="-222.5" font-family="Helvetica,sans-Serif" font-size="10.00">+ goToCommandedAngle()</text>
<text text-anchor="start" x="405.5" y="-211.5" font-family="Helvetica,sans-Serif" font-size="10.00">+ goToAngle()</text>
<text text-anchor="start" x="405.5" y="-200.5" font-family="Helvetica,sans-Serif" font-size="10.00">+ budge()</text>
</a>
</g>
</g>
<!-- Node3&#45;&gt;Node2 -->
<g id="edge1" class="edge"><title>Node3&#45;&gt;Node2</title>
<path fill="none" stroke="midnightblue" d="M537.527,-358.478C610.314,-293.562 720.388,-195.392 790.334,-133.011"/>
<polygon fill="none" stroke="midnightblue" points="534.856,-356.171 529.723,-365.439 539.515,-361.395 534.856,-356.171"/>
</g>
<!-- Node4 -->
<g id="node3" class="node"><title>Node4</title>
<polygon fill="white" stroke="#bfbfbf" points="0,-887 0,-944 67,-944 67,-887 0,-887"/>
<text text-anchor="middle" x="33.5" y="-932" font-family="Helvetica,sans-Serif" font-size="10.00">volatile long</text>
<polyline fill="none" stroke="#bfbfbf" points="0,-925 67,-925 "/>
<text text-anchor="middle" x="33.5" y="-913" font-family="Helvetica,sans-Serif" font-size="10.00"> </text>
<polyline fill="none" stroke="#bfbfbf" points="0,-906 67,-906 "/>
<text text-anchor="middle" x="33.5" y="-894" font-family="Helvetica,sans-Serif" font-size="10.00"> </text>
</g>
<!-- Node4&#45;&gt;Node3 -->
<g id="edge2" class="edge"><title>Node4&#45;&gt;Node3</title>
<path fill="none" stroke="#404040" d="M25.1776,-886.861C12.765,-839.945 -5.24576,-743.277 33.5,-676 109.22,-544.522 283.706,-475.964 385.613,-445.91"/>
<polygon fill="none" stroke="#404040" points="385.836,-445.846 390.492,-440.34 397.366,-442.52 392.71,-448.026 385.836,-445.846"/>
<text text-anchor="middle" x="68.5" y="-734" font-family="Helvetica,sans-Serif" font-size="10.00"> +encoderCount</text>
</g>
<!-- Node5 -->
<g id="node4" class="node"><title>Node5</title>
<g id="a_node4"><a xlink:href="classPidController.html" target="_top" xlink:title="This is intended to be a generic PID controller class. ">
<polygon fill="white" stroke="black" points="501.5,-815.5 501.5,-1015.5 633.5,-1015.5 633.5,-815.5 501.5,-815.5"/>
<text text-anchor="middle" x="567.5" y="-1003.5" font-family="Helvetica,sans-Serif" font-size="10.00">PidController</text>
<polyline fill="none" stroke="black" points="501.5,-996.5 633.5,-996.5 "/>
<text text-anchor="start" x="509.5" y="-984.5" font-family="Helvetica,sans-Serif" font-size="10.00">&#45; kp</text>
<text text-anchor="start" x="509.5" y="-973.5" font-family="Helvetica,sans-Serif" font-size="10.00">&#45; minOutputValue</text>
<text text-anchor="start" x="509.5" y="-962.5" font-family="Helvetica,sans-Serif" font-size="10.00">&#45; pTerm</text>
<text text-anchor="start" x="509.5" y="-951.5" font-family="Helvetica,sans-Serif" font-size="10.00">&#45; dTerm</text>
<text text-anchor="start" x="509.5" y="-940.5" font-family="Helvetica,sans-Serif" font-size="10.00">&#45; previousError</text>
<polyline fill="none" stroke="black" points="501.5,-933.5 633.5,-933.5 "/>
<text text-anchor="start" x="509.5" y="-921.5" font-family="Helvetica,sans-Serif" font-size="10.00">+ PidController()</text>
<text text-anchor="start" x="509.5" y="-910.5" font-family="Helvetica,sans-Serif" font-size="10.00">+ updatePID()</text>
<text text-anchor="start" x="509.5" y="-899.5" font-family="Helvetica,sans-Serif" font-size="10.00">+ setJointAngleTolerance()</text>
<text text-anchor="start" x="509.5" y="-888.5" font-family="Helvetica,sans-Serif" font-size="10.00">+ setOutputLimits()</text>
<text text-anchor="start" x="509.5" y="-877.5" font-family="Helvetica,sans-Serif" font-size="10.00">+ setOutputLimits()</text>
<text text-anchor="start" x="509.5" y="-866.5" font-family="Helvetica,sans-Serif" font-size="10.00">+ setGainConstants()</text>
<text text-anchor="start" x="509.5" y="-855.5" font-family="Helvetica,sans-Serif" font-size="10.00">+ getMaxOutputValue()</text>
<text text-anchor="start" x="509.5" y="-844.5" font-family="Helvetica,sans-Serif" font-size="10.00">+ getMinOutputValue()</text>
<text text-anchor="start" x="509.5" y="-833.5" font-family="Helvetica,sans-Serif" font-size="10.00">+ getJointAngleTolerance()</text>
<text text-anchor="start" x="509.5" y="-822.5" font-family="Helvetica,sans-Serif" font-size="10.00">+ printPidParameters()</text>
</a>
</g>
</g>
<!-- Node5&#45;&gt;Node3 -->
<g id="edge3" class="edge"><title>Node5&#45;&gt;Node3</title>
<path fill="none" stroke="#404040" d="M564.539,-815.392C561.878,-772.23 556.874,-721.266 547.5,-676 543.51,-656.732 538.486,-636.889 532.889,-617.209"/>
<polygon fill="none" stroke="#404040" points="532.878,-617.17 527.363,-612.524 529.531,-605.646 535.046,-610.293 532.878,-617.17"/>
<text text-anchor="middle" x="595.5" y="-734" font-family="Helvetica,sans-Serif" font-size="10.00"> +pidController</text>
</g>
<!-- Node6 -->
<g id="node5" class="node"><title>Node6</title>
<polygon fill="white" stroke="#bfbfbf" points="328,-1173.5 328,-1230.5 363,-1230.5 363,-1173.5 328,-1173.5"/>
<text text-anchor="middle" x="345.5" y="-1218.5" font-family="Helvetica,sans-Serif" font-size="10.00">float</text>
<polyline fill="none" stroke="#bfbfbf" points="328,-1211.5 363,-1211.5 "/>
<text text-anchor="middle" x="345.5" y="-1199.5" font-family="Helvetica,sans-Serif" font-size="10.00"> </text>
<polyline fill="none" stroke="#bfbfbf" points="328,-1192.5 363,-1192.5 "/>
<text text-anchor="middle" x="345.5" y="-1180.5" font-family="Helvetica,sans-Serif" font-size="10.00"> </text>
</g>
<!-- Node6&#45;&gt;Node3 -->
<g id="edge6" class="edge"><title>Node6&#45;&gt;Node3</title>
<path fill="none" stroke="#404040" d="M337.019,-1173.13C318.795,-1109.26 279.573,-947.571 305.5,-815 322.415,-728.509 358.654,-636.959 392.164,-564.467"/>
<polygon fill="none" stroke="#404040" points="392.227,-564.332 391.138,-557.204 397.3,-553.457 398.388,-560.586 392.227,-564.332"/>
<text text-anchor="middle" x="372" y="-968" font-family="Helvetica,sans-Serif" font-size="10.00"> +minHardAngle</text>
<text text-anchor="middle" x="372" y="-957" font-family="Helvetica,sans-Serif" font-size="10.00">+maxJointAngle</text>
<text text-anchor="middle" x="372" y="-946" font-family="Helvetica,sans-Serif" font-size="10.00">+maxSoftAngle</text>
<text text-anchor="middle" x="372" y="-935" font-family="Helvetica,sans-Serif" font-size="10.00">+openLoopError</text>
<text text-anchor="middle" x="372" y="-924" font-family="Helvetica,sans-Serif" font-size="10.00">+gearRatio</text>
<text text-anchor="middle" x="372" y="-913" font-family="Helvetica,sans-Serif" font-size="10.00">#imaginedAngle</text>
<text text-anchor="middle" x="372" y="-902" font-family="Helvetica,sans-Serif" font-size="10.00">+maxHardAngle</text>
<text text-anchor="middle" x="372" y="-891" font-family="Helvetica,sans-Serif" font-size="10.00">#desiredAngle</text>
<text text-anchor="middle" x="372" y="-880" font-family="Helvetica,sans-Serif" font-size="10.00">+encoderResolutionReciprocal</text>
<text text-anchor="middle" x="372" y="-869" font-family="Helvetica,sans-Serif" font-size="10.00">+startAngle</text>
<text text-anchor="middle" x="372" y="-858" font-family="Helvetica,sans-Serif" font-size="10.00">...</text>
</g>
<!-- Node6&#45;&gt;Node5 -->
<g id="edge4" class="edge"><title>Node6&#45;&gt;Node5</title>
<path fill="none" stroke="#404040" d="M363.143,-1178.88C390.706,-1144.26 445.581,-1075.14 491.5,-1016 492.317,-1014.95 493.137,-1013.89 493.962,-1012.83"/>
<polygon fill="none" stroke="#404040" points="494.127,-1012.61 494.633,-1005.42 501.467,-1003.12 500.961,-1010.31 494.127,-1012.61"/>
<text text-anchor="middle" x="520.5" y="-1147" font-family="Helvetica,sans-Serif" font-size="10.00"> &#45;errorSum</text>
<text text-anchor="middle" x="520.5" y="-1136" font-family="Helvetica,sans-Serif" font-size="10.00">&#45;pidSum</text>
<text text-anchor="middle" x="520.5" y="-1125" font-family="Helvetica,sans-Serif" font-size="10.00">&#45;maxOutputValue</text>
<text text-anchor="middle" x="520.5" y="-1114" font-family="Helvetica,sans-Serif" font-size="10.00">&#45;iTerm</text>
<text text-anchor="middle" x="520.5" y="-1103" font-family="Helvetica,sans-Serif" font-size="10.00">&#45;kd</text>
<text text-anchor="middle" x="520.5" y="-1092" font-family="Helvetica,sans-Serif" font-size="10.00">&#45;pidOutput</text>
<text text-anchor="middle" x="520.5" y="-1081" font-family="Helvetica,sans-Serif" font-size="10.00">&#45;error</text>
<text text-anchor="middle" x="520.5" y="-1070" font-family="Helvetica,sans-Serif" font-size="10.00">&#45;jointAngleTolerance</text>
<text text-anchor="middle" x="520.5" y="-1059" font-family="Helvetica,sans-Serif" font-size="10.00">&#45;slowestSpeed</text>
<text text-anchor="middle" x="520.5" y="-1048" font-family="Helvetica,sans-Serif" font-size="10.00">&#45;ki</text>
<text text-anchor="middle" x="520.5" y="-1037" font-family="Helvetica,sans-Serif" font-size="10.00">...</text>
</g>
<!-- Node7 -->
<g id="node6" class="node"><title>Node7</title>
<polygon fill="white" stroke="#bfbfbf" points="633,-1173.5 633,-1230.5 706,-1230.5 706,-1173.5 633,-1173.5"/>
<text text-anchor="middle" x="669.5" y="-1218.5" font-family="Helvetica,sans-Serif" font-size="10.00">elapsedMillis</text>
<polyline fill="none" stroke="#bfbfbf" points="633,-1211.5 706,-1211.5 "/>
<text text-anchor="middle" x="669.5" y="-1199.5" font-family="Helvetica,sans-Serif" font-size="10.00"> </text>
<polyline fill="none" stroke="#bfbfbf" points="633,-1192.5 706,-1192.5 "/>
<text text-anchor="middle" x="669.5" y="-1180.5" font-family="Helvetica,sans-Serif" font-size="10.00"> </text>
</g>
<!-- Node7&#45;&gt;Node2 -->
<g id="edge13" class="edge"><title>Node7&#45;&gt;Node2</title>
<path fill="none" stroke="#404040" d="M701.439,-1173.41C737.948,-1139.98 796.632,-1080.13 827.5,-1016 907.102,-850.631 926.126,-374.124 896.5,-193 894.587,-181.304 891.682,-169.208 888.293,-157.409"/>
<polygon fill="none" stroke="#404040" points="888.236,-157.222 882.67,-152.637 884.761,-145.736 890.327,-150.32 888.236,-157.222"/>
<text text-anchor="middle" x="925.5" y="-734" font-family="Helvetica,sans-Serif" font-size="10.00"> +timeCount</text>
</g>
<!-- Node7&#45;&gt;Node3 -->
<g id="edge9" class="edge"><title>Node7&#45;&gt;Node3</title>
<path fill="none" stroke="#404040" d="M669.389,-1173.38C668.716,-1078.87 664.022,-769.183 631.5,-676 610.696,-616.391 572.072,-557.438 537.1,-511.815"/>
<polygon fill="none" stroke="#404040" points="537.06,-511.764 530.221,-509.479 529.7,-502.287 536.539,-504.572 537.06,-511.764"/>
<text text-anchor="middle" x="717.5" y="-918.5" font-family="Helvetica,sans-Serif" font-size="10.00"> +sinceTrigger</text>
<text text-anchor="middle" x="717.5" y="-907.5" font-family="Helvetica,sans-Serif" font-size="10.00">+sinceBudgeCommand</text>
</g>
<!-- Node7&#45;&gt;Node5 -->
<g id="edge5" class="edge"><title>Node7&#45;&gt;Node5</title>
<path fill="none" stroke="#404040" d="M650.481,-1173.45C646.865,-1167.52 643.332,-1161.18 640.5,-1155 621.987,-1114.61 606.586,-1068.28 594.778,-1027.26"/>
<polygon fill="none" stroke="#404040" points="594.734,-1027.11 589.251,-1022.42 591.464,-1015.56 596.948,-1020.24 594.734,-1027.11"/>
<text text-anchor="middle" x="648" y="-1092" font-family="Helvetica,sans-Serif" font-size="10.00"> &#45;dt</text>
</g>
<!-- Node8 -->
<g id="node7" class="node"><title>Node8</title>
<polygon fill="white" stroke="#bfbfbf" points="109,-887 109,-944 144,-944 144,-887 109,-887"/>
<text text-anchor="middle" x="126.5" y="-932" font-family="Helvetica,sans-Serif" font-size="10.00">char</text>
<polyline fill="none" stroke="#bfbfbf" points="109,-925 144,-925 "/>
<text text-anchor="middle" x="126.5" y="-913" font-family="Helvetica,sans-Serif" font-size="10.00"> </text>
<polyline fill="none" stroke="#bfbfbf" points="109,-906 144,-906 "/>
<text text-anchor="middle" x="126.5" y="-894" font-family="Helvetica,sans-Serif" font-size="10.00"> </text>
</g>
<!-- Node8&#45;&gt;Node3 -->
<g id="edge7" class="edge"><title>Node8&#45;&gt;Node3</title>
<path fill="none" stroke="#404040" d="M119.38,-886.901C108.961,-840.459 94.3685,-745.008 129.5,-676 183.443,-570.042 305.687,-497.332 386.364,-458.831"/>
<polygon fill="none" stroke="#404040" points="386.597,-458.722 390.33,-452.552 397.461,-453.625 393.727,-459.795 386.597,-458.722"/>
<text text-anchor="middle" x="168.5" y="-734" font-family="Helvetica,sans-Serif" font-size="10.00"> +limitSwitchType</text>
</g>
<!-- Node9 -->
<g id="node8" class="node"><title>Node9</title>
<polygon fill="white" stroke="#bfbfbf" points="202,-887 202,-944 253,-944 253,-887 202,-887"/>
<text text-anchor="middle" x="227.5" y="-932" font-family="Helvetica,sans-Serif" font-size="10.00">uint32_t</text>
<polyline fill="none" stroke="#bfbfbf" points="202,-925 253,-925 "/>
<text text-anchor="middle" x="227.5" y="-913" font-family="Helvetica,sans-Serif" font-size="10.00"> </text>
<polyline fill="none" stroke="#bfbfbf" points="202,-906 253,-906 "/>
<text text-anchor="middle" x="227.5" y="-894" font-family="Helvetica,sans-Serif" font-size="10.00"> </text>
</g>
<!-- Node9&#45;&gt;Node3 -->
<g id="edge8" class="edge"><title>Node9&#45;&gt;Node3</title>
<path fill="none" stroke="#404040" d="M221.278,-886.799C212.356,-841.019 199.945,-747.527 228.5,-676 260.618,-595.548 332.201,-525.914 387.979,-480.81"/>
<polygon fill="none" stroke="#404040" points="388.105,-480.709 390.305,-473.842 397.49,-473.231 395.29,-480.098 388.105,-480.709"/>
<text text-anchor="middle" x="259" y="-734" font-family="Helvetica,sans-Serif" font-size="10.00"> #encoderPort</text>
</g>
<!-- Node10 -->
<g id="node9" class="node"><title>Node10</title>
<polygon fill="white" stroke="#bfbfbf" points="790,-887 790,-944 819,-944 819,-887 790,-887"/>
<text text-anchor="middle" x="804.5" y="-932" font-family="Helvetica,sans-Serif" font-size="10.00">int</text>
<polyline fill="none" stroke="#bfbfbf" points="790,-925 819,-925 "/>
<text text-anchor="middle" x="804.5" y="-913" font-family="Helvetica,sans-Serif" font-size="10.00"> </text>
<polyline fill="none" stroke="#bfbfbf" points="790,-906 819,-906 "/>
<text text-anchor="middle" x="804.5" y="-894" font-family="Helvetica,sans-Serif" font-size="10.00"> </text>
</g>
<!-- Node10&#45;&gt;Node2 -->
<g id="edge14" class="edge"><title>Node10&#45;&gt;Node2</title>
<path fill="none" stroke="#404040" d="M802.051,-886.703C794.159,-790.029 772.423,-459.826 817.5,-193 819.469,-181.344 822.361,-169.27 825.696,-157.483"/>
<polygon fill="none" stroke="#404040" points="825.744,-157.321 823.617,-150.43 829.159,-145.817 831.286,-152.707 825.744,-157.321"/>
<text text-anchor="middle" x="857" y="-434" font-family="Helvetica,sans-Serif" font-size="10.00"> &#45;pwmPin</text>
<text text-anchor="middle" x="857" y="-423" font-family="Helvetica,sans-Serif" font-size="10.00">+numServoMotors</text>
<text text-anchor="middle" x="857" y="-412" font-family="Helvetica,sans-Serif" font-size="10.00">+numMillis</text>
</g>
<!-- Node10&#45;&gt;Node3 -->
<g id="edge10" class="edge"><title>Node10&#45;&gt;Node3</title>
<path fill="none" stroke="#404040" d="M803.662,-886.625C801.474,-864.245 794.82,-833.588 775.5,-815 751.73,-792.131 726.148,-820.981 703.5,-797 665.914,-757.203 704.401,-725.247 680.5,-676 646.167,-605.258 586.45,-538.79 538.342,-492.274"/>
<polygon fill="none" stroke="#404040" points="538.177,-492.117 531.076,-490.862 529.503,-483.824 536.604,-485.079 538.177,-492.117"/>
<text text-anchor="middle" x="746.5" y="-789" font-family="Helvetica,sans-Serif" font-size="10.00"> +homingPass</text>
<text text-anchor="middle" x="746.5" y="-778" font-family="Helvetica,sans-Serif" font-size="10.00">+limSwitchOpen</text>
<text text-anchor="middle" x="746.5" y="-767" font-family="Helvetica,sans-Serif" font-size="10.00">+limSwitchCw</text>
<text text-anchor="middle" x="746.5" y="-756" font-family="Helvetica,sans-Serif" font-size="10.00">#directionModifier</text>
<text text-anchor="middle" x="746.5" y="-745" font-family="Helvetica,sans-Serif" font-size="10.00">+rotationDirection</text>
<text text-anchor="middle" x="746.5" y="-734" font-family="Helvetica,sans-Serif" font-size="10.00">+triggerState</text>
<text text-anchor="middle" x="746.5" y="-723" font-family="Helvetica,sans-Serif" font-size="10.00">+encoderPinA</text>
<text text-anchor="middle" x="746.5" y="-712" font-family="Helvetica,sans-Serif" font-size="10.00">+encoderPinB</text>
<text text-anchor="middle" x="746.5" y="-701" font-family="Helvetica,sans-Serif" font-size="10.00">#encoderResolution</text>
<text text-anchor="middle" x="746.5" y="-690" font-family="Helvetica,sans-Serif" font-size="10.00">+openLoopSpeed</text>
<text text-anchor="middle" x="746.5" y="-679" font-family="Helvetica,sans-Serif" font-size="10.00">...</text>
</g>
<!-- Node11 -->
<g id="node10" class="node"><title>Node11</title>
<polygon fill="white" stroke="#bfbfbf" points="448,-887 448,-944 483,-944 483,-887 448,-887"/>
<text text-anchor="middle" x="465.5" y="-932" font-family="Helvetica,sans-Serif" font-size="10.00">bool</text>
<polyline fill="none" stroke="#bfbfbf" points="448,-925 483,-925 "/>
<text text-anchor="middle" x="465.5" y="-913" font-family="Helvetica,sans-Serif" font-size="10.00"> </text>
<polyline fill="none" stroke="#bfbfbf" points="448,-906 483,-906 "/>
<text text-anchor="middle" x="465.5" y="-894" font-family="Helvetica,sans-Serif" font-size="10.00"> </text>
</g>
<!-- Node11&#45;&gt;Node3 -->
<g id="edge11" class="edge"><title>Node11&#45;&gt;Node3</title>
<path fill="none" stroke="#404040" d="M465.22,-886.961C464.99,-863.149 464.673,-827.804 464.5,-797 464.27,-755.932 464.092,-712.303 463.955,-669.945"/>
<polygon fill="none" stroke="#404040" points="463.955,-669.739 459.936,-663.751 463.917,-657.739 467.936,-663.726 463.955,-669.739"/>
<text text-anchor="middle" x="506" y="-789" font-family="Helvetica,sans-Serif" font-size="10.00"> +hasRamping</text>
<text text-anchor="middle" x="506" y="-778" font-family="Helvetica,sans-Serif" font-size="10.00">+homingDone</text>
<text text-anchor="middle" x="506" y="-767" font-family="Helvetica,sans-Serif" font-size="10.00">+triggered</text>
<text text-anchor="middle" x="506" y="-756" font-family="Helvetica,sans-Serif" font-size="10.00">+isOpenLoop</text>
<text text-anchor="middle" x="506" y="-745" font-family="Helvetica,sans-Serif" font-size="10.00">+hasAngleLimits</text>
<text text-anchor="middle" x="506" y="-734" font-family="Helvetica,sans-Serif" font-size="10.00">+hasLimitSwitches</text>
<text text-anchor="middle" x="506" y="-723" font-family="Helvetica,sans-Serif" font-size="10.00">+movementDone</text>
<text text-anchor="middle" x="506" y="-712" font-family="Helvetica,sans-Serif" font-size="10.00">+isBudging</text>
<text text-anchor="middle" x="506" y="-701" font-family="Helvetica,sans-Serif" font-size="10.00">+actualPress</text>
<text text-anchor="middle" x="506" y="-690" font-family="Helvetica,sans-Serif" font-size="10.00">+hasEncoder</text>
<text text-anchor="middle" x="506" y="-679" font-family="Helvetica,sans-Serif" font-size="10.00">...</text>
</g>
<!-- Node12 -->
<g id="node11" class="node"><title>Node12</title>
<polygon fill="white" stroke="#bfbfbf" points="939,-397 939,-454 980,-454 980,-397 939,-397"/>
<text text-anchor="middle" x="959.5" y="-442" font-family="Helvetica,sans-Serif" font-size="10.00">Servo</text>
<polyline fill="none" stroke="#bfbfbf" points="939,-435 980,-435 "/>
<text text-anchor="middle" x="959.5" y="-423" font-family="Helvetica,sans-Serif" font-size="10.00"> </text>
<polyline fill="none" stroke="#bfbfbf" points="939,-416 980,-416 "/>
<text text-anchor="middle" x="959.5" y="-404" font-family="Helvetica,sans-Serif" font-size="10.00"> </text>
</g>
<!-- Node12&#45;&gt;Node2 -->
<g id="edge12" class="edge"><title>Node12&#45;&gt;Node2</title>
<path fill="none" stroke="#404040" d="M960.306,-396.699C960.753,-347.737 957.313,-243.759 924.5,-164 923.416,-161.364 922.235,-158.737 920.972,-156.126"/>
<polygon fill="none" stroke="#404040" points="920.964,-156.112 914.623,-152.678 915.355,-145.504 921.696,-148.938 920.964,-156.112"/>
<text text-anchor="middle" x="942" y="-167" font-family="Helvetica,sans-Serif" font-size="10.00"> &#45;servo</text>
</g>
</g>
</svg>
        <g id="navigator" transform="translate(0 0)" fill="#404254">
                <rect fill="#f2f5e9" fill-opacity="0.5" stroke="#606060" stroke-width=".5" x="0" y="0" width="60" height="60"/>
                <use id="zoomplus" xlink:href="#zoomPlus" x="17" y="9" onmousedown="handleZoom(evt,'in')"/>
                <use id="zoomminus" xlink:href="#zoomMin" x="42" y="9" onmousedown="handleZoom(evt,'out')"/>
                <use id="reset" xlink:href="#resetDef" x="30" y="36" onmousedown="handleReset()"/>
                <g id="arrowUp" xlink:href="#dirArrow" transform="translate(30 24)" onmousedown="handlePan(0,-1)">
                  <use xlink:href="#rim" fill="#404040">
                        <set attributeName="fill" to="#808080" begin="arrowUp.mouseover" end="arrowUp.mouseout"/>
                  </use>
                  <path fill="none" stroke="white" stroke-width="1.5" d="M0,-3.0v7 M-2.5,-0.5L0,-3.0L2.5,-0.5"/>
                </g>
                <g id="arrowRight" xlink:href="#dirArrow" transform="rotate(90) translate(36 -43)" onmousedown="handlePan(1,0)">
                  <use xlink:href="#rim" fill="#404040">
                        <set attributeName="fill" to="#808080" begin="arrowRight.mouseover" end="arrowRight.mouseout"/>
                  </use>
                  <path fill="none" stroke="white" stroke-width="1.5" d="M0,-3.0v7 M-2.5,-0.5L0,-3.0L2.5,-0.5"/>
                </g>
                <g id="arrowDown" xlink:href="#dirArrow" transform="rotate(180) translate(-30 -48)" onmousedown="handlePan(0,1)">
                  <use xlink:href="#rim" fill="#404040">
                        <set attributeName="fill" to="#808080" begin="arrowDown.mouseover" end="arrowDown.mouseout"/>
                  </use>
                  <path fill="none" stroke="white" stroke-width="1.5" d="M0,-3.0v7 M-2.5,-0.5L0,-3.0L2.5,-0.5"/>
                </g>
                <g id="arrowLeft" xlink:href="#dirArrow" transform="rotate(270) translate(-36 17)" onmousedown="handlePan(-1,0)">
                  <use xlink:href="#rim" fill="#404040">
                        <set attributeName="fill" to="#808080" begin="arrowLeft.mouseover" end="arrowLeft.mouseout"/>
                  </use>
                  <path fill="none" stroke="white" stroke-width="1.5" d="M0,-3.0v7 M-2.5,-0.5L0,-3.0L2.5,-0.5"/>
                </g>
        </g>
        <svg viewBox="0 0 15 15" width="100%" height="30px" preserveAspectRatio="xMaxYMin meet">
         <g id="arrow_out" transform="scale(0.3 0.3)">
          <a xlink:href="classServoMotor__coll__graph_org.svg" target="_base">
           <rect id="button" ry="5" rx="5" y="6" x="6" height="38" width="38"
                fill="#f2f5e9" fill-opacity="0.5" stroke="#606060" stroke-width="1.0"/>
           <path id="arrow"
             d="M 11.500037,31.436501 C 11.940474,20.09759 22.043105,11.32322 32.158766,21.979434 L 37.068811,17.246167 C 37.068811,17.246167 37.088388,32 37.088388,32 L 22.160133,31.978069 C 22.160133,31.978069 26.997745,27.140456 26.997745,27.140456 C 18.528582,18.264221 13.291696,25.230495 11.500037,31.436501 z"
             style="fill:#404040;"/>
          </a>
         </g>
        </svg>
</svg>
