<?xml version="1.0" encoding="UTF-8" standalone="no"?>
<!DOCTYPE svg PUBLIC "-//W3C//DTD SVG 1.1//EN"
 "http://www.w3.org/Graphics/SVG/1.1/DTD/svg11.dtd">
<!-- Generated by graphviz version 2.38.0 (20140413.2041)
 -->
<!-- Title: StepperMotor Pages: 1 -->
<svg width="955pt" height="1262pt"
 viewBox="0.00 0.00 954.50 1262.00" xmlns="http://www.w3.org/2000/svg" xmlns:xlink="http://www.w3.org/1999/xlink">
<g id="graph0" class="graph" transform="scale(1 1) rotate(0) translate(4 1258)">
<title>StepperMotor</title>
<polygon fill="white" stroke="none" points="-4,4 -4,-1258 950.5,-1258 950.5,4 -4,4"/>
<!-- Node2 -->
<g id="node1" class="node"><title>Node2</title>
<polygon fill="#bfbfbf" stroke="black" points="466.5,-0.5 466.5,-178.5 598.5,-178.5 598.5,-0.5 466.5,-0.5"/>
<text text-anchor="middle" x="532.5" y="-166.5" font-family="Helvetica,sans-Serif" font-size="10.00">StepperMotor</text>
<polyline fill="none" stroke="black" points="466.5,-159.5 598.5,-159.5 "/>
<text text-anchor="middle" x="532.5" y="-147.5" font-family="Helvetica,sans-Serif" font-size="10.00"> </text>
<polyline fill="none" stroke="black" points="466.5,-140.5 598.5,-140.5 "/>
<text text-anchor="start" x="474.5" y="-128.5" font-family="Helvetica,sans-Serif" font-size="10.00">+ StepperMotor()</text>
<text text-anchor="start" x="474.5" y="-117.5" font-family="Helvetica,sans-Serif" font-size="10.00">+ motorTimerInterrupt()</text>
<text text-anchor="start" x="474.5" y="-106.5" font-family="Helvetica,sans-Serif" font-size="10.00">+ calcNumSteps()</text>
<text text-anchor="start" x="474.5" y="-95.5" font-family="Helvetica,sans-Serif" font-size="10.00">+ calcCurrentAngle()</text>
<text text-anchor="start" x="474.5" y="-84.5" font-family="Helvetica,sans-Serif" font-size="10.00">+ enablePower()</text>
<text text-anchor="start" x="474.5" y="-73.5" font-family="Helvetica,sans-Serif" font-size="10.00">+ disablePower()</text>
<text text-anchor="start" x="474.5" y="-62.5" font-family="Helvetica,sans-Serif" font-size="10.00">+ stopRotation()</text>
<text text-anchor="start" x="474.5" y="-51.5" font-family="Helvetica,sans-Serif" font-size="10.00">+ singleStep()</text>
<text text-anchor="start" x="474.5" y="-40.5" font-family="Helvetica,sans-Serif" font-size="10.00">+ setVelocity()</text>
<text text-anchor="start" x="474.5" y="-29.5" font-family="Helvetica,sans-Serif" font-size="10.00">+ goToCommandedAngle()</text>
<text text-anchor="start" x="474.5" y="-18.5" font-family="Helvetica,sans-Serif" font-size="10.00">+ goToAngle()</text>
<text text-anchor="start" x="474.5" y="-7.5" font-family="Helvetica,sans-Serif" font-size="10.00">+ budge()</text>
</g>
<!-- Node3 -->
<g id="node2" class="node"><title>Node3</title>
<g id="a_node2"><a xlink:href="classRobotMotor.html" target="_top" xlink:title="{RobotMotor\n|+ motorType\l+ limSwitchCcw\l+ limSwitchFlex\l+ limSwitchExtend\l+ limitSwitchState\l+ homingType\l+ atSafeAngle\l+ gearRatioReciprocal\l+ minJointAngle\l+ minSoftAngle\l+ openLoopGain\l+ numMotors\l# encoderShift\l# currentAngle\l|+ checkForActualPress()\l+ goToSafeAngle()\l+ homeMotor()\l+ stopHoming()\l+ RobotMotor()\l+ attachEncoder()\l+ attachLimitSwitches()\l+ setAngleLimits()\l+ withinJointAngleLimits()\l+ calcDirection()\l+ setDesiredAngle()\l+ getDesiredAngle()\l+ calcCurrentAngle()\l+ setSoftwareAngle()\l+ getSoftwareAngle()\l+ switchDirectionLogic()\l+ getDirectionLogic()\l+ setGearRatio()\l+ setOpenLoopGain()\l+ setMotorSpeed()\l+ stopRotation()\l+ setVelocity()\l+ goToCommandedAngle()\l+ goToAngle()\l+ budge()\l}">
<polygon fill="white" stroke="black" points="466.5,-216.5 466.5,-680.5 598.5,-680.5 598.5,-216.5 466.5,-216.5"/>
<text text-anchor="middle" x="532.5" y="-668.5" font-family="Helvetica,sans-Serif" font-size="10.00">RobotMotor</text>
<polyline fill="none" stroke="black" points="466.5,-661.5 598.5,-661.5 "/>
<text text-anchor="start" x="474.5" y="-649.5" font-family="Helvetica,sans-Serif" font-size="10.00">+ motorType</text>
<text text-anchor="start" x="474.5" y="-638.5" font-family="Helvetica,sans-Serif" font-size="10.00">+ limSwitchCcw</text>
<text text-anchor="start" x="474.5" y="-627.5" font-family="Helvetica,sans-Serif" font-size="10.00">+ limSwitchFlex</text>
<text text-anchor="start" x="474.5" y="-616.5" font-family="Helvetica,sans-Serif" font-size="10.00">+ limSwitchExtend</text>
<text text-anchor="start" x="474.5" y="-605.5" font-family="Helvetica,sans-Serif" font-size="10.00">+ limitSwitchState</text>
<text text-anchor="start" x="474.5" y="-594.5" font-family="Helvetica,sans-Serif" font-size="10.00">+ homingType</text>
<text text-anchor="start" x="474.5" y="-583.5" font-family="Helvetica,sans-Serif" font-size="10.00">+ atSafeAngle</text>
<text text-anchor="start" x="474.5" y="-572.5" font-family="Helvetica,sans-Serif" font-size="10.00">+ gearRatioReciprocal</text>
<text text-anchor="start" x="474.5" y="-561.5" font-family="Helvetica,sans-Serif" font-size="10.00">+ minJointAngle</text>
<text text-anchor="start" x="474.5" y="-550.5" font-family="Helvetica,sans-Serif" font-size="10.00">+ minSoftAngle</text>
<text text-anchor="start" x="474.5" y="-539.5" font-family="Helvetica,sans-Serif" font-size="10.00">+ openLoopGain</text>
<text text-anchor="start" x="474.5" y="-528.5" font-family="Helvetica,sans-Serif" font-size="10.00">+ numMotors</text>
<text text-anchor="start" x="474.5" y="-517.5" font-family="Helvetica,sans-Serif" font-size="10.00"># encoderShift</text>
<text text-anchor="start" x="474.5" y="-506.5" font-family="Helvetica,sans-Serif" font-size="10.00"># currentAngle</text>
<polyline fill="none" stroke="black" points="466.5,-499.5 598.5,-499.5 "/>
<text text-anchor="start" x="474.5" y="-487.5" font-family="Helvetica,sans-Serif" font-size="10.00">+ checkForActualPress()</text>
<text text-anchor="start" x="474.5" y="-476.5" font-family="Helvetica,sans-Serif" font-size="10.00">+ goToSafeAngle()</text>
<text text-anchor="start" x="474.5" y="-465.5" font-family="Helvetica,sans-Serif" font-size="10.00">+ homeMotor()</text>
<text text-anchor="start" x="474.5" y="-454.5" font-family="Helvetica,sans-Serif" font-size="10.00">+ stopHoming()</text>
<text text-anchor="start" x="474.5" y="-443.5" font-family="Helvetica,sans-Serif" font-size="10.00">+ RobotMotor()</text>
<text text-anchor="start" x="474.5" y="-432.5" font-family="Helvetica,sans-Serif" font-size="10.00">+ attachEncoder()</text>
<text text-anchor="start" x="474.5" y="-421.5" font-family="Helvetica,sans-Serif" font-size="10.00">+ attachLimitSwitches()</text>
<text text-anchor="start" x="474.5" y="-410.5" font-family="Helvetica,sans-Serif" font-size="10.00">+ setAngleLimits()</text>
<text text-anchor="start" x="474.5" y="-399.5" font-family="Helvetica,sans-Serif" font-size="10.00">+ withinJointAngleLimits()</text>
<text text-anchor="start" x="474.5" y="-388.5" font-family="Helvetica,sans-Serif" font-size="10.00">+ calcDirection()</text>
<text text-anchor="start" x="474.5" y="-377.5" font-family="Helvetica,sans-Serif" font-size="10.00">+ setDesiredAngle()</text>
<text text-anchor="start" x="474.5" y="-366.5" font-family="Helvetica,sans-Serif" font-size="10.00">+ getDesiredAngle()</text>
<text text-anchor="start" x="474.5" y="-355.5" font-family="Helvetica,sans-Serif" font-size="10.00">+ calcCurrentAngle()</text>
<text text-anchor="start" x="474.5" y="-344.5" font-family="Helvetica,sans-Serif" font-size="10.00">+ setSoftwareAngle()</text>
<text text-anchor="start" x="474.5" y="-333.5" font-family="Helvetica,sans-Serif" font-size="10.00">+ getSoftwareAngle()</text>
<text text-anchor="start" x="474.5" y="-322.5" font-family="Helvetica,sans-Serif" font-size="10.00">+ switchDirectionLogic()</text>
<text text-anchor="start" x="474.5" y="-311.5" font-family="Helvetica,sans-Serif" font-size="10.00">+ getDirectionLogic()</text>
<text text-anchor="start" x="474.5" y="-300.5" font-family="Helvetica,sans-Serif" font-size="10.00">+ setGearRatio()</text>
<text text-anchor="start" x="474.5" y="-289.5" font-family="Helvetica,sans-Serif" font-size="10.00">+ setOpenLoopGain()</text>
<text text-anchor="start" x="474.5" y="-278.5" font-family="Helvetica,sans-Serif" font-size="10.00">+ setMotorSpeed()</text>
<text text-anchor="start" x="474.5" y="-267.5" font-family="Helvetica,sans-Serif" font-size="10.00">+ stopRotation()</text>
<text text-anchor="start" x="474.5" y="-256.5" font-family="Helvetica,sans-Serif" font-size="10.00">+ setVelocity()</text>
<text text-anchor="start" x="474.5" y="-245.5" font-family="Helvetica,sans-Serif" font-size="10.00">+ goToCommandedAngle()</text>
<text text-anchor="start" x="474.5" y="-234.5" font-family="Helvetica,sans-Serif" font-size="10.00">+ goToAngle()</text>
<text text-anchor="start" x="474.5" y="-223.5" font-family="Helvetica,sans-Serif" font-size="10.00">+ budge()</text>
</a>
</g>
</g>
<!-- Node3&#45;&gt;Node2 -->
<g id="edge1" class="edge"><title>Node3&#45;&gt;Node2</title>
<path fill="none" stroke="midnightblue" d="M532.5,-206.293C532.5,-196.719 532.5,-187.42 532.5,-178.529"/>
<polygon fill="none" stroke="midnightblue" points="529,-206.365 532.5,-216.365 536,-206.365 529,-206.365"/>
</g>
<!-- Node4 -->
<g id="node3" class="node"><title>Node4</title>
<polygon fill="white" stroke="#bfbfbf" points="0,-910 0,-967 67,-967 67,-910 0,-910"/>
<text text-anchor="middle" x="33.5" y="-955" font-family="Helvetica,sans-Serif" font-size="10.00">volatile long</text>
<polyline fill="none" stroke="#bfbfbf" points="0,-948 67,-948 "/>
<text text-anchor="middle" x="33.5" y="-936" font-family="Helvetica,sans-Serif" font-size="10.00"> </text>
<polyline fill="none" stroke="#bfbfbf" points="0,-929 67,-929 "/>
<text text-anchor="middle" x="33.5" y="-917" font-family="Helvetica,sans-Serif" font-size="10.00"> </text>
</g>
<!-- Node4&#45;&gt;Node3 -->
<g id="edge2" class="edge"><title>Node4&#45;&gt;Node3</title>
<path fill="none" stroke="#404040" d="M24.9878,-909.958C12.1596,-862.766 -6.53742,-765.149 34.5,-699 127.187,-549.596 339.414,-486.56 454.63,-462.574"/>
<polygon fill="none" stroke="#404040" points="454.727,-462.554 459.813,-457.442 466.488,-460.171 461.401,-465.283 454.727,-462.554"/>
<text text-anchor="middle" x="69.5" y="-757" font-family="Helvetica,sans-Serif" font-size="10.00"> +encoderCount</text>
</g>
<!-- Node5 -->
<g id="node4" class="node"><title>Node5</title>
<g id="a_node4"><a xlink:href="classPidController.html" target="_top" xlink:title="{PidController\n|&#45; kp\l&#45; minOutputValue\l&#45; pTerm\l&#45; dTerm\l&#45; previousError\l|+ PidController()\l+ updatePID()\l+ setJointAngleTolerance()\l+ setOutputLimits()\l+ setOutputLimits()\l+ setGainConstants()\l+ getMaxOutputValue()\l+ getMinOutputValue()\l+ getJointAngleTolerance()\l+ printPidParameters()\l}">
<polygon fill="white" stroke="black" points="348.5,-838.5 348.5,-1038.5 480.5,-1038.5 480.5,-838.5 348.5,-838.5"/>
<text text-anchor="middle" x="414.5" y="-1026.5" font-family="Helvetica,sans-Serif" font-size="10.00">PidController</text>
<polyline fill="none" stroke="black" points="348.5,-1019.5 480.5,-1019.5 "/>
<text text-anchor="start" x="356.5" y="-1007.5" font-family="Helvetica,sans-Serif" font-size="10.00">&#45; kp</text>
<text text-anchor="start" x="356.5" y="-996.5" font-family="Helvetica,sans-Serif" font-size="10.00">&#45; minOutputValue</text>
<text text-anchor="start" x="356.5" y="-985.5" font-family="Helvetica,sans-Serif" font-size="10.00">&#45; pTerm</text>
<text text-anchor="start" x="356.5" y="-974.5" font-family="Helvetica,sans-Serif" font-size="10.00">&#45; dTerm</text>
<text text-anchor="start" x="356.5" y="-963.5" font-family="Helvetica,sans-Serif" font-size="10.00">&#45; previousError</text>
<polyline fill="none" stroke="black" points="348.5,-956.5 480.5,-956.5 "/>
<text text-anchor="start" x="356.5" y="-944.5" font-family="Helvetica,sans-Serif" font-size="10.00">+ PidController()</text>
<text text-anchor="start" x="356.5" y="-933.5" font-family="Helvetica,sans-Serif" font-size="10.00">+ updatePID()</text>
<text text-anchor="start" x="356.5" y="-922.5" font-family="Helvetica,sans-Serif" font-size="10.00">+ setJointAngleTolerance()</text>
<text text-anchor="start" x="356.5" y="-911.5" font-family="Helvetica,sans-Serif" font-size="10.00">+ setOutputLimits()</text>
<text text-anchor="start" x="356.5" y="-900.5" font-family="Helvetica,sans-Serif" font-size="10.00">+ setOutputLimits()</text>
<text text-anchor="start" x="356.5" y="-889.5" font-family="Helvetica,sans-Serif" font-size="10.00">+ setGainConstants()</text>
<text text-anchor="start" x="356.5" y="-878.5" font-family="Helvetica,sans-Serif" font-size="10.00">+ getMaxOutputValue()</text>
<text text-anchor="start" x="356.5" y="-867.5" font-family="Helvetica,sans-Serif" font-size="10.00">+ getMinOutputValue()</text>
<text text-anchor="start" x="356.5" y="-856.5" font-family="Helvetica,sans-Serif" font-size="10.00">+ getJointAngleTolerance()</text>
<text text-anchor="start" x="356.5" y="-845.5" font-family="Helvetica,sans-Serif" font-size="10.00">+ printPidParameters()</text>
</a>
</g>
</g>
<!-- Node5&#45;&gt;Node3 -->
<g id="edge3" class="edge"><title>Node5&#45;&gt;Node3</title>
<path fill="none" stroke="#404040" d="M418.683,-838.5C421.99,-795.243 427.908,-744.176 438.5,-699 444.787,-672.186 453.229,-644.358 462.485,-617.436"/>
<polygon fill="none" stroke="#404040" points="462.538,-617.287 460.742,-610.303 466.498,-605.959 468.294,-612.943 462.538,-617.287"/>
<text text-anchor="middle" x="470.5" y="-757" font-family="Helvetica,sans-Serif" font-size="10.00"> +pidController</text>
</g>
<!-- Node6 -->
<g id="node5" class="node"><title>Node6</title>
<polygon fill="white" stroke="#bfbfbf" points="180,-1196.5 180,-1253.5 215,-1253.5 215,-1196.5 180,-1196.5"/>
<text text-anchor="middle" x="197.5" y="-1241.5" font-family="Helvetica,sans-Serif" font-size="10.00">float</text>
<polyline fill="none" stroke="#bfbfbf" points="180,-1234.5 215,-1234.5 "/>
<text text-anchor="middle" x="197.5" y="-1222.5" font-family="Helvetica,sans-Serif" font-size="10.00"> </text>
<polyline fill="none" stroke="#bfbfbf" points="180,-1215.5 215,-1215.5 "/>
<text text-anchor="middle" x="197.5" y="-1203.5" font-family="Helvetica,sans-Serif" font-size="10.00"> </text>
</g>
<!-- Node6&#45;&gt;Node2 -->
<g id="edge12" class="edge"><title>Node6&#45;&gt;Node2</title>
<path fill="none" stroke="#404040" d="M181.825,-1196.4C179,-1190.48 176.365,-1184.15 174.5,-1178 143.483,-1075.68 98.6738,-801.373 129.5,-699 193.908,-485.105 360.724,-277.234 458.358,-168.527"/>
<polygon fill="none" stroke="#404040" points="458.381,-168.501 459.434,-161.368 466.424,-159.596 465.371,-166.73 458.381,-168.501"/>
<text text-anchor="middle" x="170.5" y="-768" font-family="Helvetica,sans-Serif" font-size="10.00"> +stepResolution</text>
<text text-anchor="middle" x="170.5" y="-757" font-family="Helvetica,sans-Serif" font-size="10.00">&#45;steppingMode</text>
<text text-anchor="middle" x="170.5" y="-746" font-family="Helvetica,sans-Serif" font-size="10.00">&#45;fullStepResolution</text>
</g>
<!-- Node6&#45;&gt;Node3 -->
<g id="edge6" class="edge"><title>Node6&#45;&gt;Node3</title>
<path fill="none" stroke="#404040" d="M192.068,-1196.15C180.626,-1130.95 158.826,-964.377 206.5,-838 257.641,-702.433 377.74,-580.622 457.011,-510.901"/>
<polygon fill="none" stroke="#404040" points="457.422,-510.543 459.317,-503.585 466.468,-502.659 464.573,-509.616 457.422,-510.543"/>
<text text-anchor="middle" x="273" y="-991" font-family="Helvetica,sans-Serif" font-size="10.00"> +minHardAngle</text>
<text text-anchor="middle" x="273" y="-980" font-family="Helvetica,sans-Serif" font-size="10.00">+maxJointAngle</text>
<text text-anchor="middle" x="273" y="-969" font-family="Helvetica,sans-Serif" font-size="10.00">+maxSoftAngle</text>
<text text-anchor="middle" x="273" y="-958" font-family="Helvetica,sans-Serif" font-size="10.00">+openLoopError</text>
<text text-anchor="middle" x="273" y="-947" font-family="Helvetica,sans-Serif" font-size="10.00">+gearRatio</text>
<text text-anchor="middle" x="273" y="-936" font-family="Helvetica,sans-Serif" font-size="10.00">#imaginedAngle</text>
<text text-anchor="middle" x="273" y="-925" font-family="Helvetica,sans-Serif" font-size="10.00">+maxHardAngle</text>
<text text-anchor="middle" x="273" y="-914" font-family="Helvetica,sans-Serif" font-size="10.00">#desiredAngle</text>
<text text-anchor="middle" x="273" y="-903" font-family="Helvetica,sans-Serif" font-size="10.00">+encoderResolutionReciprocal</text>
<text text-anchor="middle" x="273" y="-892" font-family="Helvetica,sans-Serif" font-size="10.00">+startAngle</text>
<text text-anchor="middle" x="273" y="-881" font-family="Helvetica,sans-Serif" font-size="10.00">...</text>
</g>
<!-- Node6&#45;&gt;Node5 -->
<g id="edge4" class="edge"><title>Node6&#45;&gt;Node5</title>
<path fill="none" stroke="#404040" d="M215.258,-1200.72C242.489,-1165.02 296.111,-1094.71 340.873,-1036.03"/>
<polygon fill="none" stroke="#404040" points="340.982,-1035.89 341.441,-1028.69 348.26,-1026.34 347.802,-1033.54 340.982,-1035.89"/>
<text text-anchor="middle" x="363.5" y="-1170" font-family="Helvetica,sans-Serif" font-size="10.00"> &#45;errorSum</text>
<text text-anchor="middle" x="363.5" y="-1159" font-family="Helvetica,sans-Serif" font-size="10.00">&#45;pidSum</text>
<text text-anchor="middle" x="363.5" y="-1148" font-family="Helvetica,sans-Serif" font-size="10.00">&#45;maxOutputValue</text>
<text text-anchor="middle" x="363.5" y="-1137" font-family="Helvetica,sans-Serif" font-size="10.00">&#45;iTerm</text>
<text text-anchor="middle" x="363.5" y="-1126" font-family="Helvetica,sans-Serif" font-size="10.00">&#45;kd</text>
<text text-anchor="middle" x="363.5" y="-1115" font-family="Helvetica,sans-Serif" font-size="10.00">&#45;pidOutput</text>
<text text-anchor="middle" x="363.5" y="-1104" font-family="Helvetica,sans-Serif" font-size="10.00">&#45;error</text>
<text text-anchor="middle" x="363.5" y="-1093" font-family="Helvetica,sans-Serif" font-size="10.00">&#45;jointAngleTolerance</text>
<text text-anchor="middle" x="363.5" y="-1082" font-family="Helvetica,sans-Serif" font-size="10.00">&#45;slowestSpeed</text>
<text text-anchor="middle" x="363.5" y="-1071" font-family="Helvetica,sans-Serif" font-size="10.00">&#45;ki</text>
<text text-anchor="middle" x="363.5" y="-1060" font-family="Helvetica,sans-Serif" font-size="10.00">...</text>
</g>
<!-- Node7 -->
<g id="node6" class="node"><title>Node7</title>
<polygon fill="white" stroke="#bfbfbf" points="447,-1196.5 447,-1253.5 520,-1253.5 520,-1196.5 447,-1196.5"/>
<text text-anchor="middle" x="483.5" y="-1241.5" font-family="Helvetica,sans-Serif" font-size="10.00">elapsedMillis</text>
<polyline fill="none" stroke="#bfbfbf" points="447,-1234.5 520,-1234.5 "/>
<text text-anchor="middle" x="483.5" y="-1222.5" font-family="Helvetica,sans-Serif" font-size="10.00"> </text>
<polyline fill="none" stroke="#bfbfbf" points="447,-1215.5 520,-1215.5 "/>
<text text-anchor="middle" x="483.5" y="-1203.5" font-family="Helvetica,sans-Serif" font-size="10.00"> </text>
</g>
<!-- Node7&#45;&gt;Node3 -->
<g id="edge9" class="edge"><title>Node7&#45;&gt;Node3</title>
<path fill="none" stroke="#404040" d="M488.845,-1196.34C489.86,-1190.32 490.816,-1183.96 491.5,-1178 509.98,-1016.89 520.231,-834.733 525.861,-692.871"/>
<polygon fill="none" stroke="#404040" points="525.873,-692.562 522.11,-686.41 526.341,-680.571 530.104,-686.723 525.873,-692.562"/>
<text text-anchor="middle" x="570.5" y="-941.5" font-family="Helvetica,sans-Serif" font-size="10.00"> +sinceTrigger</text>
<text text-anchor="middle" x="570.5" y="-930.5" font-family="Helvetica,sans-Serif" font-size="10.00">+sinceBudgeCommand</text>
</g>
<!-- Node7&#45;&gt;Node5 -->
<g id="edge5" class="edge"><title>Node7&#45;&gt;Node5</title>
<path fill="none" stroke="#404040" d="M476.821,-1196.46C468.646,-1162.75 454.3,-1103.6 441.431,-1050.54"/>
<polygon fill="none" stroke="#404040" points="441.368,-1050.28 436.067,-1045.39 438.54,-1038.62 443.841,-1043.51 441.368,-1050.28"/>
<text text-anchor="middle" x="480" y="-1115" font-family="Helvetica,sans-Serif" font-size="10.00"> &#45;dt</text>
</g>
<!-- Node8 -->
<g id="node7" class="node"><title>Node8</title>
<polygon fill="white" stroke="#bfbfbf" points="637,-910 637,-967 672,-967 672,-910 637,-910"/>
<text text-anchor="middle" x="654.5" y="-955" font-family="Helvetica,sans-Serif" font-size="10.00">char</text>
<polyline fill="none" stroke="#bfbfbf" points="637,-948 672,-948 "/>
<text text-anchor="middle" x="654.5" y="-936" font-family="Helvetica,sans-Serif" font-size="10.00"> </text>
<polyline fill="none" stroke="#bfbfbf" points="637,-929 672,-929 "/>
<text text-anchor="middle" x="654.5" y="-917" font-family="Helvetica,sans-Serif" font-size="10.00"> </text>
</g>
<!-- Node8&#45;&gt;Node3 -->
<g id="edge7" class="edge"><title>Node8&#45;&gt;Node3</title>
<path fill="none" stroke="#404040" d="M652.748,-909.566C649.842,-887.151 642.24,-856.475 622.5,-838 598.417,-815.461 571.424,-845.499 550.5,-820 540.905,-808.308 535.929,-755.302 533.473,-692.879"/>
<polygon fill="none" stroke="#404040" points="533.466,-692.693 529.25,-686.843 533.029,-680.701 537.245,-686.551 533.466,-692.693"/>
<text text-anchor="middle" x="589.5" y="-757" font-family="Helvetica,sans-Serif" font-size="10.00"> +limitSwitchType</text>
</g>
<!-- Node9 -->
<g id="node8" class="node"><title>Node9</title>
<polygon fill="white" stroke="#bfbfbf" points="690,-910 690,-967 741,-967 741,-910 690,-910"/>
<text text-anchor="middle" x="715.5" y="-955" font-family="Helvetica,sans-Serif" font-size="10.00">uint32_t</text>
<polyline fill="none" stroke="#bfbfbf" points="690,-948 741,-948 "/>
<text text-anchor="middle" x="715.5" y="-936" font-family="Helvetica,sans-Serif" font-size="10.00"> </text>
<polyline fill="none" stroke="#bfbfbf" points="690,-929 741,-929 "/>
<text text-anchor="middle" x="715.5" y="-917" font-family="Helvetica,sans-Serif" font-size="10.00"> </text>
</g>
<!-- Node9&#45;&gt;Node3 -->
<g id="edge8" class="edge"><title>Node9&#45;&gt;Node3</title>
<path fill="none" stroke="#404040" d="M710.941,-909.72C706.273,-888.275 697.244,-858.843 680.5,-838 670.999,-826.174 660.085,-832.507 651.5,-820 620.52,-774.869 643.5,-751.645 628.5,-699 621.133,-673.144 612.184,-646.214 602.747,-620.02"/>
<polygon fill="none" stroke="#404040" points="602.638,-619.721 596.825,-615.453 598.529,-608.446 604.342,-612.714 602.638,-619.721"/>
<text text-anchor="middle" x="682" y="-757" font-family="Helvetica,sans-Serif" font-size="10.00"> #encoderPort</text>
</g>
<!-- Node10 -->
<g id="node9" class="node"><title>Node10</title>
<polygon fill="white" stroke="#bfbfbf" points="782,-910 782,-967 811,-967 811,-910 782,-910"/>
<text text-anchor="middle" x="796.5" y="-955" font-family="Helvetica,sans-Serif" font-size="10.00">int</text>
<polyline fill="none" stroke="#bfbfbf" points="782,-948 811,-948 "/>
<text text-anchor="middle" x="796.5" y="-936" font-family="Helvetica,sans-Serif" font-size="10.00"> </text>
<polyline fill="none" stroke="#bfbfbf" points="782,-929 811,-929 "/>
<text text-anchor="middle" x="796.5" y="-917" font-family="Helvetica,sans-Serif" font-size="10.00"> </text>
</g>
<!-- Node10&#45;&gt;Node2 -->
<g id="edge13" class="edge"><title>Node10&#45;&gt;Node2</title>
<path fill="none" stroke="#404040" d="M804.983,-909.665C817.398,-864.858 837.402,-774.149 821.5,-699 780.899,-507.134 669.487,-305.536 597.451,-189.28"/>
<polygon fill="none" stroke="#404040" points="597.386,-189.175 590.818,-186.197 591.04,-178.99 597.608,-181.967 597.386,-189.175"/>
<text text-anchor="middle" x="862" y="-479" font-family="Helvetica,sans-Serif" font-size="10.00"> &#45;directionPin</text>
<text text-anchor="middle" x="862" y="-468" font-family="Helvetica,sans-Serif" font-size="10.00">&#45;enablePin</text>
<text text-anchor="middle" x="862" y="-457" font-family="Helvetica,sans-Serif" font-size="10.00">+stepCount</text>
<text text-anchor="middle" x="862" y="-446" font-family="Helvetica,sans-Serif" font-size="10.00">+numSteps</text>
<text text-anchor="middle" x="862" y="-435" font-family="Helvetica,sans-Serif" font-size="10.00">+numStepperMotors</text>
<text text-anchor="middle" x="862" y="-424" font-family="Helvetica,sans-Serif" font-size="10.00">+nextInterval</text>
<text text-anchor="middle" x="862" y="-413" font-family="Helvetica,sans-Serif" font-size="10.00">&#45;stepPin</text>
</g>
<!-- Node10&#45;&gt;Node3 -->
<g id="edge10" class="edge"><title>Node10&#45;&gt;Node3</title>
<path fill="none" stroke="#404040" d="M785.292,-909.629C776.614,-889.197 763.707,-861.111 749.5,-838 744.193,-829.366 739.674,-829.236 735.5,-820 712.957,-770.117 734.14,-749.282 712.5,-699 686.425,-638.413 643.621,-578.22 606.295,-532.14"/>
<polygon fill="none" stroke="#404040" points="606.267,-532.107 599.371,-529.998 598.665,-522.822 605.561,-524.93 606.267,-532.107"/>
<text text-anchor="middle" x="778.5" y="-812" font-family="Helvetica,sans-Serif" font-size="10.00"> +homingPass</text>
<text text-anchor="middle" x="778.5" y="-801" font-family="Helvetica,sans-Serif" font-size="10.00">+limSwitchOpen</text>
<text text-anchor="middle" x="778.5" y="-790" font-family="Helvetica,sans-Serif" font-size="10.00">+limSwitchCw</text>
<text text-anchor="middle" x="778.5" y="-779" font-family="Helvetica,sans-Serif" font-size="10.00">#directionModifier</text>
<text text-anchor="middle" x="778.5" y="-768" font-family="Helvetica,sans-Serif" font-size="10.00">+rotationDirection</text>
<text text-anchor="middle" x="778.5" y="-757" font-family="Helvetica,sans-Serif" font-size="10.00">+triggerState</text>
<text text-anchor="middle" x="778.5" y="-746" font-family="Helvetica,sans-Serif" font-size="10.00">+encoderPinA</text>
<text text-anchor="middle" x="778.5" y="-735" font-family="Helvetica,sans-Serif" font-size="10.00">+encoderPinB</text>
<text text-anchor="middle" x="778.5" y="-724" font-family="Helvetica,sans-Serif" font-size="10.00">#encoderResolution</text>
<text text-anchor="middle" x="778.5" y="-713" font-family="Helvetica,sans-Serif" font-size="10.00">+openLoopSpeed</text>
<text text-anchor="middle" x="778.5" y="-702" font-family="Helvetica,sans-Serif" font-size="10.00">...</text>
</g>
<!-- Node11 -->
<g id="node10" class="node"><title>Node11</title>
<polygon fill="white" stroke="#bfbfbf" points="851,-910 851,-967 886,-967 886,-910 851,-910"/>
<text text-anchor="middle" x="868.5" y="-955" font-family="Helvetica,sans-Serif" font-size="10.00">bool</text>
<polyline fill="none" stroke="#bfbfbf" points="851,-948 886,-948 "/>
<text text-anchor="middle" x="868.5" y="-936" font-family="Helvetica,sans-Serif" font-size="10.00"> </text>
<polyline fill="none" stroke="#bfbfbf" points="851,-929 886,-929 "/>
<text text-anchor="middle" x="868.5" y="-917" font-family="Helvetica,sans-Serif" font-size="10.00"> </text>
</g>
<!-- Node11&#45;&gt;Node3 -->
<g id="edge11" class="edge"><title>Node11&#45;&gt;Node3</title>
<path fill="none" stroke="#404040" d="M869.361,-909.725C869.588,-863.026 864.723,-767.204 825.5,-699 798.19,-651.511 685.641,-562.485 608.262,-504.622"/>
<polygon fill="none" stroke="#404040" points="608.158,-504.545 600.957,-504.167 598.536,-497.375 605.737,-497.752 608.158,-504.545"/>
<text text-anchor="middle" x="905" y="-812" font-family="Helvetica,sans-Serif" font-size="10.00"> +hasRamping</text>
<text text-anchor="middle" x="905" y="-801" font-family="Helvetica,sans-Serif" font-size="10.00">+homingDone</text>
<text text-anchor="middle" x="905" y="-790" font-family="Helvetica,sans-Serif" font-size="10.00">+triggered</text>
<text text-anchor="middle" x="905" y="-779" font-family="Helvetica,sans-Serif" font-size="10.00">+isOpenLoop</text>
<text text-anchor="middle" x="905" y="-768" font-family="Helvetica,sans-Serif" font-size="10.00">+hasAngleLimits</text>
<text text-anchor="middle" x="905" y="-757" font-family="Helvetica,sans-Serif" font-size="10.00">+hasLimitSwitches</text>
<text text-anchor="middle" x="905" y="-746" font-family="Helvetica,sans-Serif" font-size="10.00">+movementDone</text>
<text text-anchor="middle" x="905" y="-735" font-family="Helvetica,sans-Serif" font-size="10.00">+isBudging</text>
<text text-anchor="middle" x="905" y="-724" font-family="Helvetica,sans-Serif" font-size="10.00">+actualPress</text>
<text text-anchor="middle" x="905" y="-713" font-family="Helvetica,sans-Serif" font-size="10.00">+hasEncoder</text>
<text text-anchor="middle" x="905" y="-702" font-family="Helvetica,sans-Serif" font-size="10.00">...</text>
</g>
</g>
</svg>
