<?xml version="1.0" encoding="UTF-8" standalone="no"?>
<!DOCTYPE svg PUBLIC "-//W3C//DTD SVG 1.1//EN"
 "http://www.w3.org/Graphics/SVG/1.1/DTD/svg11.dtd">
<!-- Generated by graphviz version 2.38.0 (20140413.2041)
 -->
<!-- Title: StepperMotor Pages: 1 -->
<svg width="954pt" height="1295pt"
 viewBox="0.00 0.00 953.50 1295.00" xmlns="http://www.w3.org/2000/svg" xmlns:xlink="http://www.w3.org/1999/xlink">
<g id="graph0" class="graph" transform="scale(1 1) rotate(0) translate(4 1291)">
<title>StepperMotor</title>
<polygon fill="white" stroke="none" points="-4,4 -4,-1291 949.5,-1291 949.5,4 -4,4"/>
<!-- Node2 -->
<g id="node1" class="node"><title>Node2</title>
<polygon fill="#bfbfbf" stroke="black" points="466.5,-0.5 466.5,-178.5 598.5,-178.5 598.5,-0.5 466.5,-0.5"/>
<text text-anchor="middle" x="532.5" y="-166.5" font-family="Helvetica,sans-Serif" font-size="10.00">StepperMotor</text>
<polyline fill="none" stroke="black" points="466.5,-159.5 598.5,-159.5 "/>
<text text-anchor="middle" x="532.5" y="-147.5" font-family="Helvetica,sans-Serif" font-size="10.00"> </text>
<polyline fill="none" stroke="black" points="466.5,-140.5 598.5,-140.5 "/>
<text text-anchor="start" x="474.5" y="-128.5" font-family="Helvetica,sans-Serif" font-size="10.00">+ StepperMotor()</text>
<text text-anchor="start" x="474.5" y="-117.5" font-family="Helvetica,sans-Serif" font-size="10.00">+ motorTimerInterrupt()</text>
<text text-anchor="start" x="474.5" y="-106.5" font-family="Helvetica,sans-Serif" font-size="10.00">+ calcNumSteps()</text>
<text text-anchor="start" x="474.5" y="-95.5" font-family="Helvetica,sans-Serif" font-size="10.00">+ calcCurrentAngle()</text>
<text text-anchor="start" x="474.5" y="-84.5" font-family="Helvetica,sans-Serif" font-size="10.00">+ enablePower()</text>
<text text-anchor="start" x="474.5" y="-73.5" font-family="Helvetica,sans-Serif" font-size="10.00">+ disablePower()</text>
<text text-anchor="start" x="474.5" y="-62.5" font-family="Helvetica,sans-Serif" font-size="10.00">+ stopRotation()</text>
<text text-anchor="start" x="474.5" y="-51.5" font-family="Helvetica,sans-Serif" font-size="10.00">+ singleStep()</text>
<text text-anchor="start" x="474.5" y="-40.5" font-family="Helvetica,sans-Serif" font-size="10.00">+ setVelocity()</text>
<text text-anchor="start" x="474.5" y="-29.5" font-family="Helvetica,sans-Serif" font-size="10.00">+ goToCommandedAngle()</text>
<text text-anchor="start" x="474.5" y="-18.5" font-family="Helvetica,sans-Serif" font-size="10.00">+ forceToAngle()</text>
<text text-anchor="start" x="474.5" y="-7.5" font-family="Helvetica,sans-Serif" font-size="10.00">+ budge()</text>
</g>
<!-- Node3 -->
<g id="node2" class="node"><title>Node3</title>
<g id="a_node2"><a xlink:href="classRobotMotor.html" target="_top" xlink:title="The base class for ServoMotor, StepperMotor and DcMotor. ">
<polygon fill="white" stroke="black" points="466.5,-216.5 466.5,-702.5 598.5,-702.5 598.5,-216.5 466.5,-216.5"/>
<text text-anchor="middle" x="532.5" y="-690.5" font-family="Helvetica,sans-Serif" font-size="10.00">RobotMotor</text>
<polyline fill="none" stroke="black" points="466.5,-683.5 598.5,-683.5 "/>
<text text-anchor="start" x="474.5" y="-671.5" font-family="Helvetica,sans-Serif" font-size="10.00">+ motorType</text>
<text text-anchor="start" x="474.5" y="-660.5" font-family="Helvetica,sans-Serif" font-size="10.00">+ limSwitchCcw</text>
<text text-anchor="start" x="474.5" y="-649.5" font-family="Helvetica,sans-Serif" font-size="10.00">+ limSwitchFlex</text>
<text text-anchor="start" x="474.5" y="-638.5" font-family="Helvetica,sans-Serif" font-size="10.00">+ limSwitchExtend</text>
<text text-anchor="start" x="474.5" y="-627.5" font-family="Helvetica,sans-Serif" font-size="10.00">+ limitSwitchState</text>
<text text-anchor="start" x="474.5" y="-616.5" font-family="Helvetica,sans-Serif" font-size="10.00">+ homingType</text>
<text text-anchor="start" x="474.5" y="-605.5" font-family="Helvetica,sans-Serif" font-size="10.00">+ atSafeAngle</text>
<text text-anchor="start" x="474.5" y="-594.5" font-family="Helvetica,sans-Serif" font-size="10.00">+ gearRatioReciprocal</text>
<text text-anchor="start" x="474.5" y="-583.5" font-family="Helvetica,sans-Serif" font-size="10.00">+ minJointAngle</text>
<text text-anchor="start" x="474.5" y="-572.5" font-family="Helvetica,sans-Serif" font-size="10.00">+ minSoftAngle</text>
<text text-anchor="start" x="474.5" y="-561.5" font-family="Helvetica,sans-Serif" font-size="10.00">+ hasEncoder</text>
<text text-anchor="start" x="474.5" y="-550.5" font-family="Helvetica,sans-Serif" font-size="10.00">+ startAngle</text>
<text text-anchor="start" x="474.5" y="-539.5" font-family="Helvetica,sans-Serif" font-size="10.00">+ numMotors</text>
<text text-anchor="start" x="474.5" y="-528.5" font-family="Helvetica,sans-Serif" font-size="10.00"># encoderShift</text>
<text text-anchor="start" x="474.5" y="-517.5" font-family="Helvetica,sans-Serif" font-size="10.00"># currentAngle</text>
<polyline fill="none" stroke="black" points="466.5,-510.5 598.5,-510.5 "/>
<text text-anchor="start" x="474.5" y="-498.5" font-family="Helvetica,sans-Serif" font-size="10.00">+ checkForActualPress()</text>
<text text-anchor="start" x="474.5" y="-487.5" font-family="Helvetica,sans-Serif" font-size="10.00">+ goToSafeAngle()</text>
<text text-anchor="start" x="474.5" y="-476.5" font-family="Helvetica,sans-Serif" font-size="10.00">+ homeMotor()</text>
<text text-anchor="start" x="474.5" y="-465.5" font-family="Helvetica,sans-Serif" font-size="10.00">+ stopHoming()</text>
<text text-anchor="start" x="474.5" y="-454.5" font-family="Helvetica,sans-Serif" font-size="10.00">+ RobotMotor()</text>
<text text-anchor="start" x="474.5" y="-443.5" font-family="Helvetica,sans-Serif" font-size="10.00">+ attachEncoder()</text>
<text text-anchor="start" x="474.5" y="-432.5" font-family="Helvetica,sans-Serif" font-size="10.00">+ attachLimitSwitches()</text>
<text text-anchor="start" x="474.5" y="-421.5" font-family="Helvetica,sans-Serif" font-size="10.00">+ setAngleLimits()</text>
<text text-anchor="start" x="474.5" y="-410.5" font-family="Helvetica,sans-Serif" font-size="10.00">+ withinJointAngleLimits()</text>
<text text-anchor="start" x="474.5" y="-399.5" font-family="Helvetica,sans-Serif" font-size="10.00">+ calcDirection()</text>
<text text-anchor="start" x="474.5" y="-388.5" font-family="Helvetica,sans-Serif" font-size="10.00">+ setDesiredAngle()</text>
<text text-anchor="start" x="474.5" y="-377.5" font-family="Helvetica,sans-Serif" font-size="10.00">+ getDesiredAngle()</text>
<text text-anchor="start" x="474.5" y="-366.5" font-family="Helvetica,sans-Serif" font-size="10.00">+ calcCurrentAngle()</text>
<text text-anchor="start" x="474.5" y="-355.5" font-family="Helvetica,sans-Serif" font-size="10.00">+ setSoftwareAngle()</text>
<text text-anchor="start" x="474.5" y="-344.5" font-family="Helvetica,sans-Serif" font-size="10.00">+ getSoftwareAngle()</text>
<text text-anchor="start" x="474.5" y="-333.5" font-family="Helvetica,sans-Serif" font-size="10.00">+ switchDirectionLogic()</text>
<text text-anchor="start" x="474.5" y="-322.5" font-family="Helvetica,sans-Serif" font-size="10.00">+ getDirectionLogic()</text>
<text text-anchor="start" x="474.5" y="-311.5" font-family="Helvetica,sans-Serif" font-size="10.00">+ setGearRatio()</text>
<text text-anchor="start" x="474.5" y="-300.5" font-family="Helvetica,sans-Serif" font-size="10.00">+ setOpenLoopGain()</text>
<text text-anchor="start" x="474.5" y="-289.5" font-family="Helvetica,sans-Serif" font-size="10.00">+ setMotorSpeed()</text>
<text text-anchor="start" x="474.5" y="-278.5" font-family="Helvetica,sans-Serif" font-size="10.00">+ getMotorSpeed()</text>
<text text-anchor="start" x="474.5" y="-267.5" font-family="Helvetica,sans-Serif" font-size="10.00">+ stopRotation()</text>
<text text-anchor="start" x="474.5" y="-256.5" font-family="Helvetica,sans-Serif" font-size="10.00">+ setVelocity()</text>
<text text-anchor="start" x="474.5" y="-245.5" font-family="Helvetica,sans-Serif" font-size="10.00">+ goToCommandedAngle()</text>
<text text-anchor="start" x="474.5" y="-234.5" font-family="Helvetica,sans-Serif" font-size="10.00">+ forceToAngle()</text>
<text text-anchor="start" x="474.5" y="-223.5" font-family="Helvetica,sans-Serif" font-size="10.00">+ budge()</text>
</a>
</g>
</g>
<!-- Node3&#45;&gt;Node2 -->
<g id="edge1" class="edge"><title>Node3&#45;&gt;Node2</title>
<path fill="none" stroke="midnightblue" d="M532.5,-206.352C532.5,-196.83 532.5,-187.591 532.5,-178.76"/>
<polygon fill="none" stroke="midnightblue" points="529,-206.373 532.5,-216.373 536,-206.373 529,-206.373"/>
</g>
<!-- Node4 -->
<g id="node3" class="node"><title>Node4</title>
<polygon fill="white" stroke="#bfbfbf" points="0,-937.5 0,-994.5 67,-994.5 67,-937.5 0,-937.5"/>
<text text-anchor="middle" x="33.5" y="-982.5" font-family="Helvetica,sans-Serif" font-size="10.00">volatile long</text>
<polyline fill="none" stroke="#bfbfbf" points="0,-975.5 67,-975.5 "/>
<text text-anchor="middle" x="33.5" y="-963.5" font-family="Helvetica,sans-Serif" font-size="10.00"> </text>
<polyline fill="none" stroke="#bfbfbf" points="0,-956.5 67,-956.5 "/>
<text text-anchor="middle" x="33.5" y="-944.5" font-family="Helvetica,sans-Serif" font-size="10.00"> </text>
</g>
<!-- Node4&#45;&gt;Node3 -->
<g id="edge2" class="edge"><title>Node4&#45;&gt;Node3</title>
<path fill="none" stroke="#404040" d="M25.017,-937.284C12.0747,-889.268 -6.99687,-789.222 34.5,-721 126.692,-569.434 339.127,-501.759 454.505,-475.265"/>
<polygon fill="none" stroke="#404040" points="454.67,-475.228 459.651,-470.013 466.38,-472.605 461.4,-477.82 454.67,-475.228"/>
<text text-anchor="middle" x="69.5" y="-779" font-family="Helvetica,sans-Serif" font-size="10.00"> +encoderCount</text>
</g>
<!-- Node5 -->
<g id="node4" class="node"><title>Node5</title>
<g id="a_node4"><a xlink:href="classPidController.html" target="_top" xlink:title="This is intended to be a generic PID controller class. ">
<polygon fill="white" stroke="black" points="348.5,-860.5 348.5,-1071.5 480.5,-1071.5 480.5,-860.5 348.5,-860.5"/>
<text text-anchor="middle" x="414.5" y="-1059.5" font-family="Helvetica,sans-Serif" font-size="10.00">PidController</text>
<polyline fill="none" stroke="black" points="348.5,-1052.5 480.5,-1052.5 "/>
<text text-anchor="start" x="356.5" y="-1040.5" font-family="Helvetica,sans-Serif" font-size="10.00">&#45; kp</text>
<text text-anchor="start" x="356.5" y="-1029.5" font-family="Helvetica,sans-Serif" font-size="10.00">&#45; minOutputValue</text>
<text text-anchor="start" x="356.5" y="-1018.5" font-family="Helvetica,sans-Serif" font-size="10.00">&#45; pTerm</text>
<text text-anchor="start" x="356.5" y="-1007.5" font-family="Helvetica,sans-Serif" font-size="10.00">&#45; dTerm</text>
<text text-anchor="start" x="356.5" y="-996.5" font-family="Helvetica,sans-Serif" font-size="10.00">&#45; previousError</text>
<polyline fill="none" stroke="black" points="348.5,-989.5 480.5,-989.5 "/>
<text text-anchor="start" x="356.5" y="-977.5" font-family="Helvetica,sans-Serif" font-size="10.00">+ PidController()</text>
<text text-anchor="start" x="356.5" y="-966.5" font-family="Helvetica,sans-Serif" font-size="10.00">+ updatePID()</text>
<text text-anchor="start" x="356.5" y="-955.5" font-family="Helvetica,sans-Serif" font-size="10.00">+ setJointAngleTolerance()</text>
<text text-anchor="start" x="356.5" y="-944.5" font-family="Helvetica,sans-Serif" font-size="10.00">+ setOutputLimits()</text>
<text text-anchor="start" x="356.5" y="-933.5" font-family="Helvetica,sans-Serif" font-size="10.00">+ setOutputLimits()</text>
<text text-anchor="start" x="356.5" y="-922.5" font-family="Helvetica,sans-Serif" font-size="10.00">+ setSlowestSpeed()</text>
<text text-anchor="start" x="356.5" y="-911.5" font-family="Helvetica,sans-Serif" font-size="10.00">+ setGainConstants()</text>
<text text-anchor="start" x="356.5" y="-900.5" font-family="Helvetica,sans-Serif" font-size="10.00">+ getMaxOutputValue()</text>
<text text-anchor="start" x="356.5" y="-889.5" font-family="Helvetica,sans-Serif" font-size="10.00">+ getMinOutputValue()</text>
<text text-anchor="start" x="356.5" y="-878.5" font-family="Helvetica,sans-Serif" font-size="10.00">+ getJointAngleTolerance()</text>
<text text-anchor="start" x="356.5" y="-867.5" font-family="Helvetica,sans-Serif" font-size="10.00">+ printPidParameters()</text>
</a>
</g>
</g>
<!-- Node5&#45;&gt;Node3 -->
<g id="edge3" class="edge"><title>Node5&#45;&gt;Node3</title>
<path fill="none" stroke="#404040" d="M419.086,-860.202C422.462,-816.741 428.323,-766.048 438.5,-721 444.809,-693.074 453.268,-664.045 462.537,-635.938"/>
<polygon fill="none" stroke="#404040" points="462.597,-635.756 460.711,-628.796 466.41,-624.378 468.297,-631.338 462.597,-635.756"/>
<text text-anchor="middle" x="470.5" y="-779" font-family="Helvetica,sans-Serif" font-size="10.00"> +pidController</text>
</g>
<!-- Node6 -->
<g id="node5" class="node"><title>Node6</title>
<polygon fill="white" stroke="#bfbfbf" points="180,-1229.5 180,-1286.5 215,-1286.5 215,-1229.5 180,-1229.5"/>
<text text-anchor="middle" x="197.5" y="-1274.5" font-family="Helvetica,sans-Serif" font-size="10.00">float</text>
<polyline fill="none" stroke="#bfbfbf" points="180,-1267.5 215,-1267.5 "/>
<text text-anchor="middle" x="197.5" y="-1255.5" font-family="Helvetica,sans-Serif" font-size="10.00"> </text>
<polyline fill="none" stroke="#bfbfbf" points="180,-1248.5 215,-1248.5 "/>
<text text-anchor="middle" x="197.5" y="-1236.5" font-family="Helvetica,sans-Serif" font-size="10.00"> </text>
</g>
<!-- Node6&#45;&gt;Node2 -->
<g id="edge12" class="edge"><title>Node6&#45;&gt;Node2</title>
<path fill="none" stroke="#404040" d="M181.807,-1229.41C178.984,-1223.49 176.354,-1217.16 174.5,-1211 142.97,-1106.3 98.823,-825.956 129.5,-721 193.753,-501.171 360.628,-285.106 458.313,-171.871"/>
<polygon fill="none" stroke="#404040" points="458.52,-171.632 459.43,-164.479 466.383,-162.567 465.473,-169.721 458.52,-171.632"/>
<text text-anchor="middle" x="170.5" y="-790" font-family="Helvetica,sans-Serif" font-size="10.00"> +stepResolution</text>
<text text-anchor="middle" x="170.5" y="-779" font-family="Helvetica,sans-Serif" font-size="10.00">&#45;steppingMode</text>
<text text-anchor="middle" x="170.5" y="-768" font-family="Helvetica,sans-Serif" font-size="10.00">&#45;fullStepResolution</text>
</g>
<!-- Node6&#45;&gt;Node3 -->
<g id="edge6" class="edge"><title>Node6&#45;&gt;Node3</title>
<path fill="none" stroke="#404040" d="M192.182,-1229.39C180.666,-1163.15 158.164,-990.971 206.5,-860 257.608,-721.517 378.131,-595.684 457.442,-523.661"/>
<polygon fill="none" stroke="#404040" points="457.504,-523.605 459.286,-516.618 466.422,-515.576 464.639,-522.563 457.504,-523.605"/>
<text text-anchor="middle" x="273" y="-1018.5" font-family="Helvetica,sans-Serif" font-size="10.00"> +minHardAngle</text>
<text text-anchor="middle" x="273" y="-1007.5" font-family="Helvetica,sans-Serif" font-size="10.00">+maxJointAngle</text>
<text text-anchor="middle" x="273" y="-996.5" font-family="Helvetica,sans-Serif" font-size="10.00">+maxSoftAngle</text>
<text text-anchor="middle" x="273" y="-985.5" font-family="Helvetica,sans-Serif" font-size="10.00">+openLoopError</text>
<text text-anchor="middle" x="273" y="-974.5" font-family="Helvetica,sans-Serif" font-size="10.00">+gearRatio</text>
<text text-anchor="middle" x="273" y="-963.5" font-family="Helvetica,sans-Serif" font-size="10.00">#openLoopGain</text>
<text text-anchor="middle" x="273" y="-952.5" font-family="Helvetica,sans-Serif" font-size="10.00">#imaginedAngle</text>
<text text-anchor="middle" x="273" y="-941.5" font-family="Helvetica,sans-Serif" font-size="10.00">+maxHardAngle</text>
<text text-anchor="middle" x="273" y="-930.5" font-family="Helvetica,sans-Serif" font-size="10.00">#desiredAngle</text>
<text text-anchor="middle" x="273" y="-919.5" font-family="Helvetica,sans-Serif" font-size="10.00">+encoderResolutionReciprocal</text>
<text text-anchor="middle" x="273" y="-908.5" font-family="Helvetica,sans-Serif" font-size="10.00">...</text>
</g>
<!-- Node6&#45;&gt;Node5 -->
<g id="edge4" class="edge"><title>Node6&#45;&gt;Node5</title>
<path fill="none" stroke="#404040" d="M215.258,-1233.27C242.489,-1196.88 296.111,-1125.22 340.873,-1065.4"/>
<polygon fill="none" stroke="#404040" points="341.07,-1065.13 341.463,-1057.93 348.26,-1055.52 347.868,-1062.72 341.07,-1065.13"/>
<text text-anchor="middle" x="363.5" y="-1203" font-family="Helvetica,sans-Serif" font-size="10.00"> &#45;errorSum</text>
<text text-anchor="middle" x="363.5" y="-1192" font-family="Helvetica,sans-Serif" font-size="10.00">&#45;pidSum</text>
<text text-anchor="middle" x="363.5" y="-1181" font-family="Helvetica,sans-Serif" font-size="10.00">&#45;maxOutputValue</text>
<text text-anchor="middle" x="363.5" y="-1170" font-family="Helvetica,sans-Serif" font-size="10.00">&#45;iTerm</text>
<text text-anchor="middle" x="363.5" y="-1159" font-family="Helvetica,sans-Serif" font-size="10.00">&#45;kd</text>
<text text-anchor="middle" x="363.5" y="-1148" font-family="Helvetica,sans-Serif" font-size="10.00">&#45;pidOutput</text>
<text text-anchor="middle" x="363.5" y="-1137" font-family="Helvetica,sans-Serif" font-size="10.00">&#45;error</text>
<text text-anchor="middle" x="363.5" y="-1126" font-family="Helvetica,sans-Serif" font-size="10.00">&#45;jointAngleTolerance</text>
<text text-anchor="middle" x="363.5" y="-1115" font-family="Helvetica,sans-Serif" font-size="10.00">&#45;slowestSpeed</text>
<text text-anchor="middle" x="363.5" y="-1104" font-family="Helvetica,sans-Serif" font-size="10.00">&#45;ki</text>
<text text-anchor="middle" x="363.5" y="-1093" font-family="Helvetica,sans-Serif" font-size="10.00">...</text>
</g>
<!-- Node7 -->
<g id="node6" class="node"><title>Node7</title>
<polygon fill="white" stroke="#bfbfbf" points="447,-1229.5 447,-1286.5 520,-1286.5 520,-1229.5 447,-1229.5"/>
<text text-anchor="middle" x="483.5" y="-1274.5" font-family="Helvetica,sans-Serif" font-size="10.00">elapsedMillis</text>
<polyline fill="none" stroke="#bfbfbf" points="447,-1267.5 520,-1267.5 "/>
<text text-anchor="middle" x="483.5" y="-1255.5" font-family="Helvetica,sans-Serif" font-size="10.00"> </text>
<polyline fill="none" stroke="#bfbfbf" points="447,-1248.5 520,-1248.5 "/>
<text text-anchor="middle" x="483.5" y="-1236.5" font-family="Helvetica,sans-Serif" font-size="10.00"> </text>
</g>
<!-- Node7&#45;&gt;Node3 -->
<g id="edge9" class="edge"><title>Node7&#45;&gt;Node3</title>
<path fill="none" stroke="#404040" d="M488.852,-1229.35C489.867,-1223.32 490.821,-1216.96 491.5,-1211 510.24,-1046.43 520.476,-860.552 526.034,-714.952"/>
<polygon fill="none" stroke="#404040" points="526.041,-714.761 522.269,-708.615 526.491,-702.77 530.263,-708.916 526.041,-714.761"/>
<text text-anchor="middle" x="570.5" y="-969" font-family="Helvetica,sans-Serif" font-size="10.00"> +sinceTrigger</text>
<text text-anchor="middle" x="570.5" y="-958" font-family="Helvetica,sans-Serif" font-size="10.00">+sinceBudgeCommand</text>
</g>
<!-- Node7&#45;&gt;Node5 -->
<g id="edge5" class="edge"><title>Node7&#45;&gt;Node5</title>
<path fill="none" stroke="#404040" d="M476.946,-1229.46C468.955,-1195.87 454.935,-1136.94 442.201,-1083.43"/>
<polygon fill="none" stroke="#404040" points="442.2,-1083.42 436.92,-1078.51 439.422,-1071.75 444.702,-1076.66 442.2,-1083.42"/>
<text text-anchor="middle" x="480" y="-1148" font-family="Helvetica,sans-Serif" font-size="10.00"> &#45;dt</text>
</g>
<!-- Node8 -->
<g id="node7" class="node"><title>Node8</title>
<polygon fill="white" stroke="#bfbfbf" points="637,-937.5 637,-994.5 672,-994.5 672,-937.5 637,-937.5"/>
<text text-anchor="middle" x="654.5" y="-982.5" font-family="Helvetica,sans-Serif" font-size="10.00">char</text>
<polyline fill="none" stroke="#bfbfbf" points="637,-975.5 672,-975.5 "/>
<text text-anchor="middle" x="654.5" y="-963.5" font-family="Helvetica,sans-Serif" font-size="10.00"> </text>
<polyline fill="none" stroke="#bfbfbf" points="637,-956.5 672,-956.5 "/>
<text text-anchor="middle" x="654.5" y="-944.5" font-family="Helvetica,sans-Serif" font-size="10.00"> </text>
</g>
<!-- Node8&#45;&gt;Node3 -->
<g id="edge7" class="edge"><title>Node8&#45;&gt;Node3</title>
<path fill="none" stroke="#404040" d="M653.392,-937.44C650.937,-913.669 643.635,-880.086 622.5,-860 598.591,-837.277 571.406,-867.513 550.5,-842 540.827,-830.196 535.783,-777.54 533.291,-714.942"/>
<polygon fill="none" stroke="#404040" points="533.282,-714.715 529.064,-708.867 532.84,-702.724 537.058,-708.572 533.282,-714.715"/>
<text text-anchor="middle" x="589.5" y="-779" font-family="Helvetica,sans-Serif" font-size="10.00"> +limitSwitchType</text>
</g>
<!-- Node9 -->
<g id="node8" class="node"><title>Node9</title>
<polygon fill="white" stroke="#bfbfbf" points="690,-937.5 690,-994.5 741,-994.5 741,-937.5 690,-937.5"/>
<text text-anchor="middle" x="715.5" y="-982.5" font-family="Helvetica,sans-Serif" font-size="10.00">uint32_t</text>
<polyline fill="none" stroke="#bfbfbf" points="690,-975.5 741,-975.5 "/>
<text text-anchor="middle" x="715.5" y="-963.5" font-family="Helvetica,sans-Serif" font-size="10.00"> </text>
<polyline fill="none" stroke="#bfbfbf" points="690,-956.5 741,-956.5 "/>
<text text-anchor="middle" x="715.5" y="-944.5" font-family="Helvetica,sans-Serif" font-size="10.00"> </text>
</g>
<!-- Node9&#45;&gt;Node3 -->
<g id="edge8" class="edge"><title>Node9&#45;&gt;Node3</title>
<path fill="none" stroke="#404040" d="M711.569,-937.079C707.191,-914.351 698.246,-882.468 680.5,-860 671.097,-848.096 660.085,-854.507 651.5,-842 620.52,-796.869 643.125,-773.751 628.5,-721 621.063,-694.177 612.096,-666.199 602.668,-638.953"/>
<polygon fill="none" stroke="#404040" points="602.564,-638.653 596.807,-634.31 598.602,-627.326 604.359,-631.669 602.564,-638.653"/>
<text text-anchor="middle" x="682" y="-779" font-family="Helvetica,sans-Serif" font-size="10.00"> #encoderPort</text>
</g>
<!-- Node10 -->
<g id="node9" class="node"><title>Node10</title>
<polygon fill="white" stroke="#bfbfbf" points="782,-937.5 782,-994.5 811,-994.5 811,-937.5 782,-937.5"/>
<text text-anchor="middle" x="796.5" y="-982.5" font-family="Helvetica,sans-Serif" font-size="10.00">int</text>
<polyline fill="none" stroke="#bfbfbf" points="782,-975.5 811,-975.5 "/>
<text text-anchor="middle" x="796.5" y="-963.5" font-family="Helvetica,sans-Serif" font-size="10.00"> </text>
<polyline fill="none" stroke="#bfbfbf" points="782,-956.5 811,-956.5 "/>
<text text-anchor="middle" x="796.5" y="-944.5" font-family="Helvetica,sans-Serif" font-size="10.00"> </text>
</g>
<!-- Node10&#45;&gt;Node2 -->
<g id="edge13" class="edge"><title>Node10&#45;&gt;Node2</title>
<path fill="none" stroke="#404040" d="M804.721,-937.29C817.035,-891.75 837.225,-798.41 821.5,-721 780.867,-520.974 667.336,-309.407 595.26,-189.281"/>
<polygon fill="none" stroke="#404040" points="595.049,-188.932 588.525,-185.861 588.85,-178.657 595.375,-181.728 595.049,-188.932"/>
<text text-anchor="middle" x="862" y="-490" font-family="Helvetica,sans-Serif" font-size="10.00"> &#45;directionPin</text>
<text text-anchor="middle" x="862" y="-479" font-family="Helvetica,sans-Serif" font-size="10.00">&#45;enablePin</text>
<text text-anchor="middle" x="862" y="-468" font-family="Helvetica,sans-Serif" font-size="10.00">+stepCount</text>
<text text-anchor="middle" x="862" y="-457" font-family="Helvetica,sans-Serif" font-size="10.00">+numSteps</text>
<text text-anchor="middle" x="862" y="-446" font-family="Helvetica,sans-Serif" font-size="10.00">+numStepperMotors</text>
<text text-anchor="middle" x="862" y="-435" font-family="Helvetica,sans-Serif" font-size="10.00">+nextInterval</text>
<text text-anchor="middle" x="862" y="-424" font-family="Helvetica,sans-Serif" font-size="10.00">&#45;stepPin</text>
</g>
<!-- Node10&#45;&gt;Node3 -->
<g id="edge10" class="edge"><title>Node10&#45;&gt;Node3</title>
<path fill="none" stroke="#404040" d="M786.241,-937.346C777.691,-915.633 764.516,-884.996 749.5,-860 744.281,-851.312 739.674,-851.236 735.5,-842 712.957,-792.117 733.627,-771.499 712.5,-721 686.244,-658.243 643.311,-595.287 605.96,-546.99"/>
<polygon fill="none" stroke="#404040" points="605.957,-546.987 599.112,-544.721 598.57,-537.53 605.416,-539.796 605.957,-546.987"/>
<text text-anchor="middle" x="778.5" y="-834" font-family="Helvetica,sans-Serif" font-size="10.00"> #openLoopSpeed</text>
<text text-anchor="middle" x="778.5" y="-823" font-family="Helvetica,sans-Serif" font-size="10.00">+homingPass</text>
<text text-anchor="middle" x="778.5" y="-812" font-family="Helvetica,sans-Serif" font-size="10.00">+limSwitchOpen</text>
<text text-anchor="middle" x="778.5" y="-801" font-family="Helvetica,sans-Serif" font-size="10.00">+limSwitchCw</text>
<text text-anchor="middle" x="778.5" y="-790" font-family="Helvetica,sans-Serif" font-size="10.00">#directionModifier</text>
<text text-anchor="middle" x="778.5" y="-779" font-family="Helvetica,sans-Serif" font-size="10.00">+rotationDirection</text>
<text text-anchor="middle" x="778.5" y="-768" font-family="Helvetica,sans-Serif" font-size="10.00">+triggerState</text>
<text text-anchor="middle" x="778.5" y="-757" font-family="Helvetica,sans-Serif" font-size="10.00">+encoderPinA</text>
<text text-anchor="middle" x="778.5" y="-746" font-family="Helvetica,sans-Serif" font-size="10.00">+encoderPinB</text>
<text text-anchor="middle" x="778.5" y="-735" font-family="Helvetica,sans-Serif" font-size="10.00">#encoderResolution</text>
<text text-anchor="middle" x="778.5" y="-724" font-family="Helvetica,sans-Serif" font-size="10.00">...</text>
</g>
<!-- Node11 -->
<g id="node10" class="node"><title>Node11</title>
<polygon fill="white" stroke="#bfbfbf" points="851,-937.5 851,-994.5 886,-994.5 886,-937.5 851,-937.5"/>
<text text-anchor="middle" x="868.5" y="-982.5" font-family="Helvetica,sans-Serif" font-size="10.00">bool</text>
<polyline fill="none" stroke="#bfbfbf" points="851,-975.5 886,-975.5 "/>
<text text-anchor="middle" x="868.5" y="-963.5" font-family="Helvetica,sans-Serif" font-size="10.00"> </text>
<polyline fill="none" stroke="#bfbfbf" points="851,-956.5 886,-956.5 "/>
<text text-anchor="middle" x="868.5" y="-944.5" font-family="Helvetica,sans-Serif" font-size="10.00"> </text>
</g>
<!-- Node11&#45;&gt;Node3 -->
<g id="edge11" class="edge"><title>Node11&#45;&gt;Node3</title>
<path fill="none" stroke="#404040" d="M869.355,-937.443C869.634,-890.1 864.924,-791.605 825.5,-721 798.292,-672.272 685.714,-579.08 608.302,-518.384"/>
<polygon fill="none" stroke="#404040" points="608.027,-518.169 600.836,-517.626 598.571,-510.78 605.762,-511.323 608.027,-518.169"/>
<text text-anchor="middle" x="904" y="-834" font-family="Helvetica,sans-Serif" font-size="10.00"> +hasRamping</text>
<text text-anchor="middle" x="904" y="-823" font-family="Helvetica,sans-Serif" font-size="10.00">+homingDone</text>
<text text-anchor="middle" x="904" y="-812" font-family="Helvetica,sans-Serif" font-size="10.00">+triggered</text>
<text text-anchor="middle" x="904" y="-801" font-family="Helvetica,sans-Serif" font-size="10.00">+isOpenLoop</text>
<text text-anchor="middle" x="904" y="-790" font-family="Helvetica,sans-Serif" font-size="10.00">+hasAngleLimits</text>
<text text-anchor="middle" x="904" y="-779" font-family="Helvetica,sans-Serif" font-size="10.00">+hasLimitSwitches</text>
<text text-anchor="middle" x="904" y="-768" font-family="Helvetica,sans-Serif" font-size="10.00">+movementDone</text>
<text text-anchor="middle" x="904" y="-757" font-family="Helvetica,sans-Serif" font-size="10.00">+startedZeroing</text>
<text text-anchor="middle" x="904" y="-746" font-family="Helvetica,sans-Serif" font-size="10.00">+isBudging</text>
<text text-anchor="middle" x="904" y="-735" font-family="Helvetica,sans-Serif" font-size="10.00">+actualPress</text>
<text text-anchor="middle" x="904" y="-724" font-family="Helvetica,sans-Serif" font-size="10.00">...</text>
</g>
</g>
</svg>
