<?xml version="1.0" encoding="UTF-8" standalone="no"?>
<!DOCTYPE svg PUBLIC "-//W3C//DTD SVG 1.1//EN"
 "http://www.w3.org/Graphics/SVG/1.1/DTD/svg11.dtd">
<!-- Generated by graphviz version 2.38.0 (20140413.2041)
 -->
<!-- Title: RobotMotor Pages: 1 -->
<svg width="914pt" height="1046pt"
 viewBox="0.00 0.00 913.50 1046.00" xmlns="http://www.w3.org/2000/svg" xmlns:xlink="http://www.w3.org/1999/xlink">
<g id="graph0" class="graph" transform="scale(1 1) rotate(0) translate(4 1042)">
<title>RobotMotor</title>
<polygon fill="white" stroke="none" points="-4,4 -4,-1042 909.5,-1042 909.5,4 -4,4"/>
<!-- Node4 -->
<g id="node1" class="node"><title>Node4</title>
<polygon fill="#bfbfbf" stroke="black" points="407.5,-0.5 407.5,-464.5 539.5,-464.5 539.5,-0.5 407.5,-0.5"/>
<text text-anchor="middle" x="473.5" y="-452.5" font-family="Helvetica,sans-Serif" font-size="10.00">RobotMotor</text>
<polyline fill="none" stroke="black" points="407.5,-445.5 539.5,-445.5 "/>
<text text-anchor="start" x="415.5" y="-433.5" font-family="Helvetica,sans-Serif" font-size="10.00">+ motorType</text>
<text text-anchor="start" x="415.5" y="-422.5" font-family="Helvetica,sans-Serif" font-size="10.00">+ limSwitchCcw</text>
<text text-anchor="start" x="415.5" y="-411.5" font-family="Helvetica,sans-Serif" font-size="10.00">+ limSwitchFlex</text>
<text text-anchor="start" x="415.5" y="-400.5" font-family="Helvetica,sans-Serif" font-size="10.00">+ limSwitchExtend</text>
<text text-anchor="start" x="415.5" y="-389.5" font-family="Helvetica,sans-Serif" font-size="10.00">+ limitSwitchState</text>
<text text-anchor="start" x="415.5" y="-378.5" font-family="Helvetica,sans-Serif" font-size="10.00">+ homingType</text>
<text text-anchor="start" x="415.5" y="-367.5" font-family="Helvetica,sans-Serif" font-size="10.00">+ atSafeAngle</text>
<text text-anchor="start" x="415.5" y="-356.5" font-family="Helvetica,sans-Serif" font-size="10.00">+ gearRatioReciprocal</text>
<text text-anchor="start" x="415.5" y="-345.5" font-family="Helvetica,sans-Serif" font-size="10.00">+ minJointAngle</text>
<text text-anchor="start" x="415.5" y="-334.5" font-family="Helvetica,sans-Serif" font-size="10.00">+ minSoftAngle</text>
<text text-anchor="start" x="415.5" y="-323.5" font-family="Helvetica,sans-Serif" font-size="10.00">+ openLoopGain</text>
<text text-anchor="start" x="415.5" y="-312.5" font-family="Helvetica,sans-Serif" font-size="10.00">+ numMotors</text>
<text text-anchor="start" x="415.5" y="-301.5" font-family="Helvetica,sans-Serif" font-size="10.00"># encoderShift</text>
<text text-anchor="start" x="415.5" y="-290.5" font-family="Helvetica,sans-Serif" font-size="10.00"># currentAngle</text>
<polyline fill="none" stroke="black" points="407.5,-283.5 539.5,-283.5 "/>
<text text-anchor="start" x="415.5" y="-271.5" font-family="Helvetica,sans-Serif" font-size="10.00">+ checkForActualPress()</text>
<text text-anchor="start" x="415.5" y="-260.5" font-family="Helvetica,sans-Serif" font-size="10.00">+ goToSafeAngle()</text>
<text text-anchor="start" x="415.5" y="-249.5" font-family="Helvetica,sans-Serif" font-size="10.00">+ homeMotor()</text>
<text text-anchor="start" x="415.5" y="-238.5" font-family="Helvetica,sans-Serif" font-size="10.00">+ stopHoming()</text>
<text text-anchor="start" x="415.5" y="-227.5" font-family="Helvetica,sans-Serif" font-size="10.00">+ RobotMotor()</text>
<text text-anchor="start" x="415.5" y="-216.5" font-family="Helvetica,sans-Serif" font-size="10.00">+ attachEncoder()</text>
<text text-anchor="start" x="415.5" y="-205.5" font-family="Helvetica,sans-Serif" font-size="10.00">+ attachLimitSwitches()</text>
<text text-anchor="start" x="415.5" y="-194.5" font-family="Helvetica,sans-Serif" font-size="10.00">+ setAngleLimits()</text>
<text text-anchor="start" x="415.5" y="-183.5" font-family="Helvetica,sans-Serif" font-size="10.00">+ withinJointAngleLimits()</text>
<text text-anchor="start" x="415.5" y="-172.5" font-family="Helvetica,sans-Serif" font-size="10.00">+ calcDirection()</text>
<text text-anchor="start" x="415.5" y="-161.5" font-family="Helvetica,sans-Serif" font-size="10.00">+ setDesiredAngle()</text>
<text text-anchor="start" x="415.5" y="-150.5" font-family="Helvetica,sans-Serif" font-size="10.00">+ getDesiredAngle()</text>
<text text-anchor="start" x="415.5" y="-139.5" font-family="Helvetica,sans-Serif" font-size="10.00">+ calcCurrentAngle()</text>
<text text-anchor="start" x="415.5" y="-128.5" font-family="Helvetica,sans-Serif" font-size="10.00">+ setSoftwareAngle()</text>
<text text-anchor="start" x="415.5" y="-117.5" font-family="Helvetica,sans-Serif" font-size="10.00">+ getSoftwareAngle()</text>
<text text-anchor="start" x="415.5" y="-106.5" font-family="Helvetica,sans-Serif" font-size="10.00">+ switchDirectionLogic()</text>
<text text-anchor="start" x="415.5" y="-95.5" font-family="Helvetica,sans-Serif" font-size="10.00">+ getDirectionLogic()</text>
<text text-anchor="start" x="415.5" y="-84.5" font-family="Helvetica,sans-Serif" font-size="10.00">+ setGearRatio()</text>
<text text-anchor="start" x="415.5" y="-73.5" font-family="Helvetica,sans-Serif" font-size="10.00">+ setOpenLoopGain()</text>
<text text-anchor="start" x="415.5" y="-62.5" font-family="Helvetica,sans-Serif" font-size="10.00">+ setMotorSpeed()</text>
<text text-anchor="start" x="415.5" y="-51.5" font-family="Helvetica,sans-Serif" font-size="10.00">+ stopRotation()</text>
<text text-anchor="start" x="415.5" y="-40.5" font-family="Helvetica,sans-Serif" font-size="10.00">+ setVelocity()</text>
<text text-anchor="start" x="415.5" y="-29.5" font-family="Helvetica,sans-Serif" font-size="10.00">+ goToCommandedAngle()</text>
<text text-anchor="start" x="415.5" y="-18.5" font-family="Helvetica,sans-Serif" font-size="10.00">+ goToAngle()</text>
<text text-anchor="start" x="415.5" y="-7.5" font-family="Helvetica,sans-Serif" font-size="10.00">+ budge()</text>
</g>
<!-- Node5 -->
<g id="node2" class="node"><title>Node5</title>
<polygon fill="white" stroke="#bfbfbf" points="0,-694 0,-751 67,-751 67,-694 0,-694"/>
<text text-anchor="middle" x="33.5" y="-739" font-family="Helvetica,sans-Serif" font-size="10.00">volatile long</text>
<polyline fill="none" stroke="#bfbfbf" points="0,-732 67,-732 "/>
<text text-anchor="middle" x="33.5" y="-720" font-family="Helvetica,sans-Serif" font-size="10.00"> </text>
<polyline fill="none" stroke="#bfbfbf" points="0,-713 67,-713 "/>
<text text-anchor="middle" x="33.5" y="-701" font-family="Helvetica,sans-Serif" font-size="10.00"> </text>
</g>
<!-- Node5&#45;&gt;Node4 -->
<g id="edge1" class="edge"><title>Node5&#45;&gt;Node4</title>
<path fill="none" stroke="#404040" d="M25.2593,-693.806C12.9923,-646.809 -4.68721,-550.022 34.5,-483 112.682,-349.285 292.07,-281.294 395.715,-252.001"/>
<polygon fill="none" stroke="#404040" points="395.785,-251.982 400.502,-246.528 407.351,-248.785 402.633,-254.239 395.785,-251.982"/>
<text text-anchor="middle" x="69.5" y="-541" font-family="Helvetica,sans-Serif" font-size="10.00"> +encoderCount</text>
</g>
<!-- Node6 -->
<g id="node3" class="node"><title>Node6</title>
<g id="a_node3"><a xlink:href="classPidController.html" target="_top" xlink:title="This is intended to be a generic PID controller class. ">
<polygon fill="white" stroke="black" points="269.5,-622.5 269.5,-822.5 401.5,-822.5 401.5,-622.5 269.5,-622.5"/>
<text text-anchor="middle" x="335.5" y="-810.5" font-family="Helvetica,sans-Serif" font-size="10.00">PidController</text>
<polyline fill="none" stroke="black" points="269.5,-803.5 401.5,-803.5 "/>
<text text-anchor="start" x="277.5" y="-791.5" font-family="Helvetica,sans-Serif" font-size="10.00">&#45; kp</text>
<text text-anchor="start" x="277.5" y="-780.5" font-family="Helvetica,sans-Serif" font-size="10.00">&#45; minOutputValue</text>
<text text-anchor="start" x="277.5" y="-769.5" font-family="Helvetica,sans-Serif" font-size="10.00">&#45; pTerm</text>
<text text-anchor="start" x="277.5" y="-758.5" font-family="Helvetica,sans-Serif" font-size="10.00">&#45; dTerm</text>
<text text-anchor="start" x="277.5" y="-747.5" font-family="Helvetica,sans-Serif" font-size="10.00">&#45; previousError</text>
<polyline fill="none" stroke="black" points="269.5,-740.5 401.5,-740.5 "/>
<text text-anchor="start" x="277.5" y="-728.5" font-family="Helvetica,sans-Serif" font-size="10.00">+ PidController()</text>
<text text-anchor="start" x="277.5" y="-717.5" font-family="Helvetica,sans-Serif" font-size="10.00">+ updatePID()</text>
<text text-anchor="start" x="277.5" y="-706.5" font-family="Helvetica,sans-Serif" font-size="10.00">+ setJointAngleTolerance()</text>
<text text-anchor="start" x="277.5" y="-695.5" font-family="Helvetica,sans-Serif" font-size="10.00">+ setOutputLimits()</text>
<text text-anchor="start" x="277.5" y="-684.5" font-family="Helvetica,sans-Serif" font-size="10.00">+ setOutputLimits()</text>
<text text-anchor="start" x="277.5" y="-673.5" font-family="Helvetica,sans-Serif" font-size="10.00">+ setGainConstants()</text>
<text text-anchor="start" x="277.5" y="-662.5" font-family="Helvetica,sans-Serif" font-size="10.00">+ getMaxOutputValue()</text>
<text text-anchor="start" x="277.5" y="-651.5" font-family="Helvetica,sans-Serif" font-size="10.00">+ getMinOutputValue()</text>
<text text-anchor="start" x="277.5" y="-640.5" font-family="Helvetica,sans-Serif" font-size="10.00">+ getJointAngleTolerance()</text>
<text text-anchor="start" x="277.5" y="-629.5" font-family="Helvetica,sans-Serif" font-size="10.00">+ printPidParameters()</text>
</a>
</g>
</g>
<!-- Node6&#45;&gt;Node4 -->
<g id="edge2" class="edge"><title>Node6&#45;&gt;Node4</title>
<path fill="none" stroke="#404040" d="M338.195,-622.42C341.229,-579.034 347.345,-527.889 359.5,-483 369.934,-444.466 385.759,-404.415 402.325,-367.973"/>
<polygon fill="none" stroke="#404040" points="402.459,-367.682 401.339,-360.558 407.484,-356.785 408.604,-363.909 402.459,-367.682"/>
<text text-anchor="middle" x="391.5" y="-541" font-family="Helvetica,sans-Serif" font-size="10.00"> +pidController</text>
</g>
<!-- Node7 -->
<g id="node4" class="node"><title>Node7</title>
<polygon fill="white" stroke="#bfbfbf" points="154,-980.5 154,-1037.5 189,-1037.5 189,-980.5 154,-980.5"/>
<text text-anchor="middle" x="171.5" y="-1025.5" font-family="Helvetica,sans-Serif" font-size="10.00">float</text>
<polyline fill="none" stroke="#bfbfbf" points="154,-1018.5 189,-1018.5 "/>
<text text-anchor="middle" x="171.5" y="-1006.5" font-family="Helvetica,sans-Serif" font-size="10.00"> </text>
<polyline fill="none" stroke="#bfbfbf" points="154,-999.5 189,-999.5 "/>
<text text-anchor="middle" x="171.5" y="-987.5" font-family="Helvetica,sans-Serif" font-size="10.00"> </text>
</g>
<!-- Node7&#45;&gt;Node4 -->
<g id="edge5" class="edge"><title>Node7&#45;&gt;Node4</title>
<path fill="none" stroke="#404040" d="M159.791,-980.235C134.169,-915.222 79.1403,-749.012 127.5,-622 181.423,-480.377 313.289,-357.513 397.767,-289.653"/>
<polygon fill="none" stroke="#404040" points="397.926,-289.526 400.131,-282.66 407.316,-282.054 405.112,-288.92 397.926,-289.526"/>
<text text-anchor="middle" x="194" y="-775" font-family="Helvetica,sans-Serif" font-size="10.00"> +minHardAngle</text>
<text text-anchor="middle" x="194" y="-764" font-family="Helvetica,sans-Serif" font-size="10.00">+maxJointAngle</text>
<text text-anchor="middle" x="194" y="-753" font-family="Helvetica,sans-Serif" font-size="10.00">+maxSoftAngle</text>
<text text-anchor="middle" x="194" y="-742" font-family="Helvetica,sans-Serif" font-size="10.00">+openLoopError</text>
<text text-anchor="middle" x="194" y="-731" font-family="Helvetica,sans-Serif" font-size="10.00">+gearRatio</text>
<text text-anchor="middle" x="194" y="-720" font-family="Helvetica,sans-Serif" font-size="10.00">#imaginedAngle</text>
<text text-anchor="middle" x="194" y="-709" font-family="Helvetica,sans-Serif" font-size="10.00">+maxHardAngle</text>
<text text-anchor="middle" x="194" y="-698" font-family="Helvetica,sans-Serif" font-size="10.00">#desiredAngle</text>
<text text-anchor="middle" x="194" y="-687" font-family="Helvetica,sans-Serif" font-size="10.00">+encoderResolutionReciprocal</text>
<text text-anchor="middle" x="194" y="-676" font-family="Helvetica,sans-Serif" font-size="10.00">+startAngle</text>
<text text-anchor="middle" x="194" y="-665" font-family="Helvetica,sans-Serif" font-size="10.00">...</text>
</g>
<!-- Node7&#45;&gt;Node6 -->
<g id="edge3" class="edge"><title>Node7&#45;&gt;Node6</title>
<path fill="none" stroke="#404040" d="M187.374,-980.462C206.968,-946.471 241.478,-886.605 272.261,-833.205"/>
<polygon fill="none" stroke="#404040" points="272.369,-833.017 271.9,-825.821 278.362,-822.621 278.831,-829.816 272.369,-833.017"/>
<text text-anchor="middle" x="307.5" y="-954" font-family="Helvetica,sans-Serif" font-size="10.00"> &#45;errorSum</text>
<text text-anchor="middle" x="307.5" y="-943" font-family="Helvetica,sans-Serif" font-size="10.00">&#45;pidSum</text>
<text text-anchor="middle" x="307.5" y="-932" font-family="Helvetica,sans-Serif" font-size="10.00">&#45;maxOutputValue</text>
<text text-anchor="middle" x="307.5" y="-921" font-family="Helvetica,sans-Serif" font-size="10.00">&#45;iTerm</text>
<text text-anchor="middle" x="307.5" y="-910" font-family="Helvetica,sans-Serif" font-size="10.00">&#45;kd</text>
<text text-anchor="middle" x="307.5" y="-899" font-family="Helvetica,sans-Serif" font-size="10.00">&#45;pidOutput</text>
<text text-anchor="middle" x="307.5" y="-888" font-family="Helvetica,sans-Serif" font-size="10.00">&#45;error</text>
<text text-anchor="middle" x="307.5" y="-877" font-family="Helvetica,sans-Serif" font-size="10.00">&#45;jointAngleTolerance</text>
<text text-anchor="middle" x="307.5" y="-866" font-family="Helvetica,sans-Serif" font-size="10.00">&#45;slowestSpeed</text>
<text text-anchor="middle" x="307.5" y="-855" font-family="Helvetica,sans-Serif" font-size="10.00">&#45;ki</text>
<text text-anchor="middle" x="307.5" y="-844" font-family="Helvetica,sans-Serif" font-size="10.00">...</text>
</g>
<!-- Node8 -->
<g id="node5" class="node"><title>Node8</title>
<polygon fill="white" stroke="#bfbfbf" points="368,-980.5 368,-1037.5 441,-1037.5 441,-980.5 368,-980.5"/>
<text text-anchor="middle" x="404.5" y="-1025.5" font-family="Helvetica,sans-Serif" font-size="10.00">elapsedMillis</text>
<polyline fill="none" stroke="#bfbfbf" points="368,-1018.5 441,-1018.5 "/>
<text text-anchor="middle" x="404.5" y="-1006.5" font-family="Helvetica,sans-Serif" font-size="10.00"> </text>
<polyline fill="none" stroke="#bfbfbf" points="368,-999.5 441,-999.5 "/>
<text text-anchor="middle" x="404.5" y="-987.5" font-family="Helvetica,sans-Serif" font-size="10.00"> </text>
</g>
<!-- Node8&#45;&gt;Node4 -->
<g id="edge8" class="edge"><title>Node8&#45;&gt;Node4</title>
<path fill="none" stroke="#404040" d="M409.721,-980.33C410.744,-974.303 411.735,-967.949 412.5,-962 424.172,-871.216 442.056,-651.47 455.446,-476.903"/>
<polygon fill="none" stroke="#404040" points="455.466,-476.644 451.936,-470.356 456.382,-464.679 459.912,-470.967 455.466,-476.644"/>
<text text-anchor="middle" x="495.5" y="-725.5" font-family="Helvetica,sans-Serif" font-size="10.00"> +sinceTrigger</text>
<text text-anchor="middle" x="495.5" y="-714.5" font-family="Helvetica,sans-Serif" font-size="10.00">+sinceBudgeCommand</text>
</g>
<!-- Node8&#45;&gt;Node6 -->
<g id="edge4" class="edge"><title>Node8&#45;&gt;Node6</title>
<path fill="none" stroke="#404040" d="M397.821,-980.462C389.646,-946.755 375.3,-887.601 362.431,-834.541"/>
<polygon fill="none" stroke="#404040" points="362.368,-834.282 357.067,-829.394 359.54,-822.621 364.841,-827.509 362.368,-834.282"/>
<text text-anchor="middle" x="401" y="-899" font-family="Helvetica,sans-Serif" font-size="10.00"> &#45;dt</text>
</g>
<!-- Node9 -->
<g id="node6" class="node"><title>Node9</title>
<polygon fill="white" stroke="#bfbfbf" points="558,-694 558,-751 593,-751 593,-694 558,-694"/>
<text text-anchor="middle" x="575.5" y="-739" font-family="Helvetica,sans-Serif" font-size="10.00">char</text>
<polyline fill="none" stroke="#bfbfbf" points="558,-732 593,-732 "/>
<text text-anchor="middle" x="575.5" y="-720" font-family="Helvetica,sans-Serif" font-size="10.00"> </text>
<polyline fill="none" stroke="#bfbfbf" points="558,-713 593,-713 "/>
<text text-anchor="middle" x="575.5" y="-701" font-family="Helvetica,sans-Serif" font-size="10.00"> </text>
</g>
<!-- Node9&#45;&gt;Node4 -->
<g id="edge6" class="edge"><title>Node9&#45;&gt;Node4</title>
<path fill="none" stroke="#404040" d="M570.639,-693.624C566.051,-672.675 557.701,-643.934 543.5,-622 537.001,-611.961 529.087,-614.574 523.5,-604 502.903,-565.016 489.717,-520.634 481.458,-476.463"/>
<polygon fill="none" stroke="#404040" points="481.455,-476.446 476.469,-471.237 479.36,-464.63 484.346,-469.84 481.455,-476.446"/>
<text text-anchor="middle" x="562.5" y="-541" font-family="Helvetica,sans-Serif" font-size="10.00"> +limitSwitchType</text>
</g>
<!-- Node10 -->
<g id="node7" class="node"><title>Node10</title>
<polygon fill="white" stroke="#bfbfbf" points="611,-694 611,-751 662,-751 662,-694 611,-694"/>
<text text-anchor="middle" x="636.5" y="-739" font-family="Helvetica,sans-Serif" font-size="10.00">uint32_t</text>
<polyline fill="none" stroke="#bfbfbf" points="611,-732 662,-732 "/>
<text text-anchor="middle" x="636.5" y="-720" font-family="Helvetica,sans-Serif" font-size="10.00"> </text>
<polyline fill="none" stroke="#bfbfbf" points="611,-713 662,-713 "/>
<text text-anchor="middle" x="636.5" y="-701" font-family="Helvetica,sans-Serif" font-size="10.00"> </text>
</g>
<!-- Node10&#45;&gt;Node4 -->
<g id="edge7" class="edge"><title>Node10&#45;&gt;Node4</title>
<path fill="none" stroke="#404040" d="M633.605,-693.948C627.737,-639.901 613.942,-521.86 601.5,-483 587.494,-439.255 566.425,-393.864 545.403,-353.984"/>
<polygon fill="none" stroke="#404040" points="545.276,-353.746 538.922,-350.335 539.627,-343.159 545.98,-346.569 545.276,-353.746"/>
<text text-anchor="middle" x="654" y="-541" font-family="Helvetica,sans-Serif" font-size="10.00"> #encoderPort</text>
</g>
<!-- Node11 -->
<g id="node8" class="node"><title>Node11</title>
<polygon fill="white" stroke="#bfbfbf" points="693,-694 693,-751 722,-751 722,-694 693,-694"/>
<text text-anchor="middle" x="707.5" y="-739" font-family="Helvetica,sans-Serif" font-size="10.00">int</text>
<polyline fill="none" stroke="#bfbfbf" points="693,-732 722,-732 "/>
<text text-anchor="middle" x="707.5" y="-720" font-family="Helvetica,sans-Serif" font-size="10.00"> </text>
<polyline fill="none" stroke="#bfbfbf" points="693,-713 722,-713 "/>
<text text-anchor="middle" x="707.5" y="-701" font-family="Helvetica,sans-Serif" font-size="10.00"> </text>
</g>
<!-- Node11&#45;&gt;Node4 -->
<g id="edge9" class="edge"><title>Node11&#45;&gt;Node4</title>
<path fill="none" stroke="#404040" d="M707.025,-693.694C705.756,-639.191 701.219,-520.371 685.5,-483 655.261,-411.109 596.536,-344.608 548.547,-298.371"/>
<polygon fill="none" stroke="#404040" points="548.416,-298.246 541.311,-297.01 539.72,-289.976 546.824,-291.213 548.416,-298.246"/>
<text text-anchor="middle" x="746.5" y="-596" font-family="Helvetica,sans-Serif" font-size="10.00"> +homingPass</text>
<text text-anchor="middle" x="746.5" y="-585" font-family="Helvetica,sans-Serif" font-size="10.00">+limSwitchOpen</text>
<text text-anchor="middle" x="746.5" y="-574" font-family="Helvetica,sans-Serif" font-size="10.00">+limSwitchCw</text>
<text text-anchor="middle" x="746.5" y="-563" font-family="Helvetica,sans-Serif" font-size="10.00">#directionModifier</text>
<text text-anchor="middle" x="746.5" y="-552" font-family="Helvetica,sans-Serif" font-size="10.00">+rotationDirection</text>
<text text-anchor="middle" x="746.5" y="-541" font-family="Helvetica,sans-Serif" font-size="10.00">+triggerState</text>
<text text-anchor="middle" x="746.5" y="-530" font-family="Helvetica,sans-Serif" font-size="10.00">+encoderPinA</text>
<text text-anchor="middle" x="746.5" y="-519" font-family="Helvetica,sans-Serif" font-size="10.00">+encoderPinB</text>
<text text-anchor="middle" x="746.5" y="-508" font-family="Helvetica,sans-Serif" font-size="10.00">#encoderResolution</text>
<text text-anchor="middle" x="746.5" y="-497" font-family="Helvetica,sans-Serif" font-size="10.00">+openLoopSpeed</text>
<text text-anchor="middle" x="746.5" y="-486" font-family="Helvetica,sans-Serif" font-size="10.00">...</text>
</g>
<!-- Node12 -->
<g id="node9" class="node"><title>Node12</title>
<polygon fill="white" stroke="#bfbfbf" points="799,-694 799,-751 834,-751 834,-694 799,-694"/>
<text text-anchor="middle" x="816.5" y="-739" font-family="Helvetica,sans-Serif" font-size="10.00">bool</text>
<polyline fill="none" stroke="#bfbfbf" points="799,-732 834,-732 "/>
<text text-anchor="middle" x="816.5" y="-720" font-family="Helvetica,sans-Serif" font-size="10.00"> </text>
<polyline fill="none" stroke="#bfbfbf" points="799,-713 834,-713 "/>
<text text-anchor="middle" x="816.5" y="-701" font-family="Helvetica,sans-Serif" font-size="10.00"> </text>
</g>
<!-- Node12&#45;&gt;Node4 -->
<g id="edge10" class="edge"><title>Node12&#45;&gt;Node4</title>
<path fill="none" stroke="#404040" d="M820.551,-693.72C825.963,-647.012 830.954,-551.178 793.5,-483 738.945,-383.693 626.626,-310.684 550.662,-270.129"/>
<polygon fill="none" stroke="#404040" points="550.351,-269.965 543.178,-270.714 539.729,-264.382 546.901,-263.633 550.351,-269.965"/>
<text text-anchor="middle" x="864" y="-596" font-family="Helvetica,sans-Serif" font-size="10.00"> +hasRamping</text>
<text text-anchor="middle" x="864" y="-585" font-family="Helvetica,sans-Serif" font-size="10.00">+homingDone</text>
<text text-anchor="middle" x="864" y="-574" font-family="Helvetica,sans-Serif" font-size="10.00">+triggered</text>
<text text-anchor="middle" x="864" y="-563" font-family="Helvetica,sans-Serif" font-size="10.00">+isOpenLoop</text>
<text text-anchor="middle" x="864" y="-552" font-family="Helvetica,sans-Serif" font-size="10.00">+hasAngleLimits</text>
<text text-anchor="middle" x="864" y="-541" font-family="Helvetica,sans-Serif" font-size="10.00">+hasLimitSwitches</text>
<text text-anchor="middle" x="864" y="-530" font-family="Helvetica,sans-Serif" font-size="10.00">+movementDone</text>
<text text-anchor="middle" x="864" y="-519" font-family="Helvetica,sans-Serif" font-size="10.00">+isBudging</text>
<text text-anchor="middle" x="864" y="-508" font-family="Helvetica,sans-Serif" font-size="10.00">+actualPress</text>
<text text-anchor="middle" x="864" y="-497" font-family="Helvetica,sans-Serif" font-size="10.00">+hasEncoder</text>
<text text-anchor="middle" x="864" y="-486" font-family="Helvetica,sans-Serif" font-size="10.00">...</text>
</g>
</g>
</svg>
