<?xml version="1.0" encoding="UTF-8" standalone="no"?>
<!DOCTYPE svg PUBLIC "-//W3C//DTD SVG 1.1//EN"
 "http://www.w3.org/Graphics/SVG/1.1/DTD/svg11.dtd">
<!-- Generated by graphviz version 2.38.0 (20140413.2041)
 -->
<!-- Title: DcMotor Pages: 1 -->
<!--zoomable 1262 -->
<svg id="main" version="1.1" xmlns="http://www.w3.org/2000/svg" xmlns:xlink="http://www.w3.org/1999/xlink" xml:space="preserve" onload="init(evt)">
<style type="text/css"><![CDATA[
.edge:hover path { stroke: red; }
.edge:hover polygon { stroke: red; fill: red; }
]]></style>
<script type="text/javascript"><![CDATA[
var edges = document.getElementsByTagName('g');
if (edges && edges.length) {
  for (var i=0;i<edges.length;i++) {
    if (edges[i].id.substr(0,4)=='edge') {
      edges[i].setAttribute('class','edge');
    }
  }
}
]]></script>
        <defs>
                <circle id="rim" cx="0" cy="0" r="7"/>
                <circle id="rim2" cx="0" cy="0" r="3.5"/>
                <g id="zoomPlus">
                        <use xlink:href="#rim" fill="#404040">
                                <set attributeName="fill" to="#808080" begin="zoomplus.mouseover" end="zoomplus.mouseout"/>
                        </use>
                        <path d="M-4,0h8M0,-4v8" fill="none" stroke="white" stroke-width="1.5" pointer-events="none"/>
                </g>
                <g id="zoomMin">
                        <use xlink:href="#rim" fill="#404040">
                                <set attributeName="fill" to="#808080" begin="zoomminus.mouseover" end="zoomminus.mouseout"/>
                        </use>
                        <path d="M-4,0h8" fill="none" stroke="white" stroke-width="1.5" pointer-events="none"/>
                </g>
                <g id="dirArrow">
                        <path fill="none" stroke="white" stroke-width="1.5" d="M0,-3.0v7 M-2.5,-0.5L0,-3.0L2.5,-0.5"/>
                </g>
               <g id="resetDef">
                       <use xlink:href="#rim2" fill="#404040">
                               <set attributeName="fill" to="#808080" begin="reset.mouseover" end="reset.mouseout"/>
                       </use>
               </g>
        </defs>

<script type="text/javascript">
var viewWidth = 1006;
var viewHeight = 1262;
var sectionId = 'dynsection-1';
</script>
<script xlink:href="svgpan.js"/>
<svg id="graph" class="graph">
<g id="viewport">
<title>DcMotor</title>
<polygon fill="white" stroke="none" points="-4,4 -4,-1258 1001.5,-1258 1001.5,4 -4,4"/>
<!-- Node2 -->
<g id="node1" class="node"><title>Node2</title>
<polygon fill="#bfbfbf" stroke="black" points="737.5,-0.5 737.5,-145.5 869.5,-145.5 869.5,-0.5 737.5,-0.5"/>
<text text-anchor="middle" x="803.5" y="-133.5" font-family="Helvetica,sans-Serif" font-size="10.00">DcMotor</text>
<polyline fill="none" stroke="black" points="737.5,-126.5 869.5,-126.5 "/>
<text text-anchor="middle" x="803.5" y="-114.5" font-family="Helvetica,sans-Serif" font-size="10.00"> </text>
<polyline fill="none" stroke="black" points="737.5,-107.5 869.5,-107.5 "/>
<text text-anchor="start" x="745.5" y="-95.5" font-family="Helvetica,sans-Serif" font-size="10.00">+ DcMotor()</text>
<text text-anchor="start" x="745.5" y="-84.5" font-family="Helvetica,sans-Serif" font-size="10.00">+ motorTimerInterrupt()</text>
<text text-anchor="start" x="745.5" y="-73.5" font-family="Helvetica,sans-Serif" font-size="10.00">+ calcTurningDuration()</text>
<text text-anchor="start" x="745.5" y="-62.5" font-family="Helvetica,sans-Serif" font-size="10.00">+ calcCurrentAngle()</text>
<text text-anchor="start" x="745.5" y="-51.5" font-family="Helvetica,sans-Serif" font-size="10.00">+ stopRotation()</text>
<text text-anchor="start" x="745.5" y="-40.5" font-family="Helvetica,sans-Serif" font-size="10.00">+ setVelocity()</text>
<text text-anchor="start" x="745.5" y="-29.5" font-family="Helvetica,sans-Serif" font-size="10.00">+ goToCommandedAngle()</text>
<text text-anchor="start" x="745.5" y="-18.5" font-family="Helvetica,sans-Serif" font-size="10.00">+ forceToAngle()</text>
<text text-anchor="start" x="745.5" y="-7.5" font-family="Helvetica,sans-Serif" font-size="10.00">+ budge()</text>
</g>
<!-- Node3 -->
<g id="node2" class="node"><title>Node3</title>
<g id="a_node2"><a xlink:href="classRobotMotor.html" target="_top" xlink:title="The base class for ServoMotor, StepperMotor and DcMotor. ">
<polygon fill="white" stroke="black" points="397.5,-183.5 397.5,-669.5 529.5,-669.5 529.5,-183.5 397.5,-183.5"/>
<text text-anchor="middle" x="463.5" y="-657.5" font-family="Helvetica,sans-Serif" font-size="10.00">RobotMotor</text>
<polyline fill="none" stroke="black" points="397.5,-650.5 529.5,-650.5 "/>
<text text-anchor="start" x="405.5" y="-638.5" font-family="Helvetica,sans-Serif" font-size="10.00">+ motorType</text>
<text text-anchor="start" x="405.5" y="-627.5" font-family="Helvetica,sans-Serif" font-size="10.00">+ limSwitchCcw</text>
<text text-anchor="start" x="405.5" y="-616.5" font-family="Helvetica,sans-Serif" font-size="10.00">+ limSwitchFlex</text>
<text text-anchor="start" x="405.5" y="-605.5" font-family="Helvetica,sans-Serif" font-size="10.00">+ limSwitchExtend</text>
<text text-anchor="start" x="405.5" y="-594.5" font-family="Helvetica,sans-Serif" font-size="10.00">+ limitSwitchState</text>
<text text-anchor="start" x="405.5" y="-583.5" font-family="Helvetica,sans-Serif" font-size="10.00">+ homingType</text>
<text text-anchor="start" x="405.5" y="-572.5" font-family="Helvetica,sans-Serif" font-size="10.00">+ atSafeAngle</text>
<text text-anchor="start" x="405.5" y="-561.5" font-family="Helvetica,sans-Serif" font-size="10.00">+ gearRatioReciprocal</text>
<text text-anchor="start" x="405.5" y="-550.5" font-family="Helvetica,sans-Serif" font-size="10.00">+ minJointAngle</text>
<text text-anchor="start" x="405.5" y="-539.5" font-family="Helvetica,sans-Serif" font-size="10.00">+ minSoftAngle</text>
<text text-anchor="start" x="405.5" y="-528.5" font-family="Helvetica,sans-Serif" font-size="10.00">+ hasEncoder</text>
<text text-anchor="start" x="405.5" y="-517.5" font-family="Helvetica,sans-Serif" font-size="10.00">+ startAngle</text>
<text text-anchor="start" x="405.5" y="-506.5" font-family="Helvetica,sans-Serif" font-size="10.00">+ numMotors</text>
<text text-anchor="start" x="405.5" y="-495.5" font-family="Helvetica,sans-Serif" font-size="10.00"># encoderShift</text>
<text text-anchor="start" x="405.5" y="-484.5" font-family="Helvetica,sans-Serif" font-size="10.00"># currentAngle</text>
<polyline fill="none" stroke="black" points="397.5,-477.5 529.5,-477.5 "/>
<text text-anchor="start" x="405.5" y="-465.5" font-family="Helvetica,sans-Serif" font-size="10.00">+ checkForActualPress()</text>
<text text-anchor="start" x="405.5" y="-454.5" font-family="Helvetica,sans-Serif" font-size="10.00">+ goToSafeAngle()</text>
<text text-anchor="start" x="405.5" y="-443.5" font-family="Helvetica,sans-Serif" font-size="10.00">+ homeMotor()</text>
<text text-anchor="start" x="405.5" y="-432.5" font-family="Helvetica,sans-Serif" font-size="10.00">+ stopHoming()</text>
<text text-anchor="start" x="405.5" y="-421.5" font-family="Helvetica,sans-Serif" font-size="10.00">+ RobotMotor()</text>
<text text-anchor="start" x="405.5" y="-410.5" font-family="Helvetica,sans-Serif" font-size="10.00">+ attachEncoder()</text>
<text text-anchor="start" x="405.5" y="-399.5" font-family="Helvetica,sans-Serif" font-size="10.00">+ attachLimitSwitches()</text>
<text text-anchor="start" x="405.5" y="-388.5" font-family="Helvetica,sans-Serif" font-size="10.00">+ setAngleLimits()</text>
<text text-anchor="start" x="405.5" y="-377.5" font-family="Helvetica,sans-Serif" font-size="10.00">+ withinJointAngleLimits()</text>
<text text-anchor="start" x="405.5" y="-366.5" font-family="Helvetica,sans-Serif" font-size="10.00">+ calcDirection()</text>
<text text-anchor="start" x="405.5" y="-355.5" font-family="Helvetica,sans-Serif" font-size="10.00">+ setDesiredAngle()</text>
<text text-anchor="start" x="405.5" y="-344.5" font-family="Helvetica,sans-Serif" font-size="10.00">+ getDesiredAngle()</text>
<text text-anchor="start" x="405.5" y="-333.5" font-family="Helvetica,sans-Serif" font-size="10.00">+ calcCurrentAngle()</text>
<text text-anchor="start" x="405.5" y="-322.5" font-family="Helvetica,sans-Serif" font-size="10.00">+ setSoftwareAngle()</text>
<text text-anchor="start" x="405.5" y="-311.5" font-family="Helvetica,sans-Serif" font-size="10.00">+ getSoftwareAngle()</text>
<text text-anchor="start" x="405.5" y="-300.5" font-family="Helvetica,sans-Serif" font-size="10.00">+ switchDirectionLogic()</text>
<text text-anchor="start" x="405.5" y="-289.5" font-family="Helvetica,sans-Serif" font-size="10.00">+ getDirectionLogic()</text>
<text text-anchor="start" x="405.5" y="-278.5" font-family="Helvetica,sans-Serif" font-size="10.00">+ setGearRatio()</text>
<text text-anchor="start" x="405.5" y="-267.5" font-family="Helvetica,sans-Serif" font-size="10.00">+ setOpenLoopGain()</text>
<text text-anchor="start" x="405.5" y="-256.5" font-family="Helvetica,sans-Serif" font-size="10.00">+ setMotorSpeed()</text>
<text text-anchor="start" x="405.5" y="-245.5" font-family="Helvetica,sans-Serif" font-size="10.00">+ getMotorSpeed()</text>
<text text-anchor="start" x="405.5" y="-234.5" font-family="Helvetica,sans-Serif" font-size="10.00">+ stopRotation()</text>
<text text-anchor="start" x="405.5" y="-223.5" font-family="Helvetica,sans-Serif" font-size="10.00">+ setVelocity()</text>
<text text-anchor="start" x="405.5" y="-212.5" font-family="Helvetica,sans-Serif" font-size="10.00">+ goToCommandedAngle()</text>
<text text-anchor="start" x="405.5" y="-201.5" font-family="Helvetica,sans-Serif" font-size="10.00">+ forceToAngle()</text>
<text text-anchor="start" x="405.5" y="-190.5" font-family="Helvetica,sans-Serif" font-size="10.00">+ budge()</text>
</a>
</g>
</g>
<!-- Node3&#45;&gt;Node2 -->
<g id="edge1" class="edge"><title>Node3&#45;&gt;Node2</title>
<path fill="none" stroke="midnightblue" d="M537.007,-349.507C596.579,-287.92 679.786,-201.898 737.305,-142.434"/>
<polygon fill="none" stroke="midnightblue" points="534.299,-347.272 529.863,-356.893 539.331,-352.139 534.299,-347.272"/>
</g>
<!-- Node4 -->
<g id="node3" class="node"><title>Node4</title>
<polygon fill="white" stroke="#bfbfbf" points="0,-904.5 0,-961.5 67,-961.5 67,-904.5 0,-904.5"/>
<text text-anchor="middle" x="33.5" y="-949.5" font-family="Helvetica,sans-Serif" font-size="10.00">volatile long</text>
<polyline fill="none" stroke="#bfbfbf" points="0,-942.5 67,-942.5 "/>
<text text-anchor="middle" x="33.5" y="-930.5" font-family="Helvetica,sans-Serif" font-size="10.00"> </text>
<polyline fill="none" stroke="#bfbfbf" points="0,-923.5 67,-923.5 "/>
<text text-anchor="middle" x="33.5" y="-911.5" font-family="Helvetica,sans-Serif" font-size="10.00"> </text>
</g>
<!-- Node4&#45;&gt;Node3 -->
<g id="edge2" class="edge"><title>Node4&#45;&gt;Node3</title>
<path fill="none" stroke="#404040" d="M25.2258,-904.185C12.7334,-856.452 -5.59015,-757.385 33.5,-688 108.889,-554.184 283.806,-481.249 385.804,-448.725"/>
<polygon fill="none" stroke="#404040" points="385.809,-448.724 390.342,-443.116 397.262,-445.144 392.729,-450.752 385.809,-448.724"/>
<text text-anchor="middle" x="68.5" y="-746" font-family="Helvetica,sans-Serif" font-size="10.00"> +encoderCount</text>
</g>
<!-- Node5 -->
<g id="node4" class="node"><title>Node5</title>
<g id="a_node4"><a xlink:href="classPidController.html" target="_top" xlink:title="This is intended to be a generic PID controller class. ">
<polygon fill="white" stroke="black" points="501.5,-827.5 501.5,-1038.5 633.5,-1038.5 633.5,-827.5 501.5,-827.5"/>
<text text-anchor="middle" x="567.5" y="-1026.5" font-family="Helvetica,sans-Serif" font-size="10.00">PidController</text>
<polyline fill="none" stroke="black" points="501.5,-1019.5 633.5,-1019.5 "/>
<text text-anchor="start" x="509.5" y="-1007.5" font-family="Helvetica,sans-Serif" font-size="10.00">&#45; kp</text>
<text text-anchor="start" x="509.5" y="-996.5" font-family="Helvetica,sans-Serif" font-size="10.00">&#45; minOutputValue</text>
<text text-anchor="start" x="509.5" y="-985.5" font-family="Helvetica,sans-Serif" font-size="10.00">&#45; pTerm</text>
<text text-anchor="start" x="509.5" y="-974.5" font-family="Helvetica,sans-Serif" font-size="10.00">&#45; dTerm</text>
<text text-anchor="start" x="509.5" y="-963.5" font-family="Helvetica,sans-Serif" font-size="10.00">&#45; previousError</text>
<polyline fill="none" stroke="black" points="501.5,-956.5 633.5,-956.5 "/>
<text text-anchor="start" x="509.5" y="-944.5" font-family="Helvetica,sans-Serif" font-size="10.00">+ PidController()</text>
<text text-anchor="start" x="509.5" y="-933.5" font-family="Helvetica,sans-Serif" font-size="10.00">+ updatePID()</text>
<text text-anchor="start" x="509.5" y="-922.5" font-family="Helvetica,sans-Serif" font-size="10.00">+ setJointAngleTolerance()</text>
<text text-anchor="start" x="509.5" y="-911.5" font-family="Helvetica,sans-Serif" font-size="10.00">+ setOutputLimits()</text>
<text text-anchor="start" x="509.5" y="-900.5" font-family="Helvetica,sans-Serif" font-size="10.00">+ setOutputLimits()</text>
<text text-anchor="start" x="509.5" y="-889.5" font-family="Helvetica,sans-Serif" font-size="10.00">+ setSlowestSpeed()</text>
<text text-anchor="start" x="509.5" y="-878.5" font-family="Helvetica,sans-Serif" font-size="10.00">+ setGainConstants()</text>
<text text-anchor="start" x="509.5" y="-867.5" font-family="Helvetica,sans-Serif" font-size="10.00">+ getMaxOutputValue()</text>
<text text-anchor="start" x="509.5" y="-856.5" font-family="Helvetica,sans-Serif" font-size="10.00">+ getMinOutputValue()</text>
<text text-anchor="start" x="509.5" y="-845.5" font-family="Helvetica,sans-Serif" font-size="10.00">+ getJointAngleTolerance()</text>
<text text-anchor="start" x="509.5" y="-834.5" font-family="Helvetica,sans-Serif" font-size="10.00">+ printPidParameters()</text>
</a>
</g>
</g>
<!-- Node5&#45;&gt;Node3 -->
<g id="edge3" class="edge"><title>Node5&#45;&gt;Node3</title>
<path fill="none" stroke="#404040" d="M564.215,-827.378C561.486,-783.945 556.52,-733.225 547.5,-688 543.48,-667.844 538.421,-647.063 532.788,-626.443"/>
<polygon fill="none" stroke="#404040" points="532.728,-626.229 527.264,-621.524 529.506,-614.67 534.97,-619.376 532.728,-626.229"/>
<text text-anchor="middle" x="595.5" y="-746" font-family="Helvetica,sans-Serif" font-size="10.00"> +pidController</text>
</g>
<!-- Node6 -->
<g id="node5" class="node"><title>Node6</title>
<polygon fill="white" stroke="#bfbfbf" points="328,-1196.5 328,-1253.5 363,-1253.5 363,-1196.5 328,-1196.5"/>
<text text-anchor="middle" x="345.5" y="-1241.5" font-family="Helvetica,sans-Serif" font-size="10.00">float</text>
<polyline fill="none" stroke="#bfbfbf" points="328,-1234.5 363,-1234.5 "/>
<text text-anchor="middle" x="345.5" y="-1222.5" font-family="Helvetica,sans-Serif" font-size="10.00"> </text>
<polyline fill="none" stroke="#bfbfbf" points="328,-1215.5 363,-1215.5 "/>
<text text-anchor="middle" x="345.5" y="-1203.5" font-family="Helvetica,sans-Serif" font-size="10.00"> </text>
</g>
<!-- Node6&#45;&gt;Node3 -->
<g id="edge6" class="edge"><title>Node6&#45;&gt;Node3</title>
<path fill="none" stroke="#404040" d="M337.28,-1196.33C319.156,-1131.34 279.37,-964.117 305.5,-827 322.432,-738.147 358.78,-643.823 392.348,-569.152"/>
<polygon fill="none" stroke="#404040" points="392.535,-568.739 391.371,-561.622 397.493,-557.811 398.657,-564.927 392.535,-568.739"/>
<text text-anchor="middle" x="372" y="-985.5" font-family="Helvetica,sans-Serif" font-size="10.00"> +minHardAngle</text>
<text text-anchor="middle" x="372" y="-974.5" font-family="Helvetica,sans-Serif" font-size="10.00">+maxJointAngle</text>
<text text-anchor="middle" x="372" y="-963.5" font-family="Helvetica,sans-Serif" font-size="10.00">+maxSoftAngle</text>
<text text-anchor="middle" x="372" y="-952.5" font-family="Helvetica,sans-Serif" font-size="10.00">+openLoopError</text>
<text text-anchor="middle" x="372" y="-941.5" font-family="Helvetica,sans-Serif" font-size="10.00">+gearRatio</text>
<text text-anchor="middle" x="372" y="-930.5" font-family="Helvetica,sans-Serif" font-size="10.00">#openLoopGain</text>
<text text-anchor="middle" x="372" y="-919.5" font-family="Helvetica,sans-Serif" font-size="10.00">#imaginedAngle</text>
<text text-anchor="middle" x="372" y="-908.5" font-family="Helvetica,sans-Serif" font-size="10.00">+maxHardAngle</text>
<text text-anchor="middle" x="372" y="-897.5" font-family="Helvetica,sans-Serif" font-size="10.00">#desiredAngle</text>
<text text-anchor="middle" x="372" y="-886.5" font-family="Helvetica,sans-Serif" font-size="10.00">+encoderResolutionReciprocal</text>
<text text-anchor="middle" x="372" y="-875.5" font-family="Helvetica,sans-Serif" font-size="10.00">...</text>
</g>
<!-- Node6&#45;&gt;Node5 -->
<g id="edge4" class="edge"><title>Node6&#45;&gt;Node5</title>
<path fill="none" stroke="#404040" d="M363.103,-1202.3C390.841,-1167.98 446.223,-1098.89 491.5,-1039 492.314,-1037.92 493.132,-1036.84 493.953,-1035.75"/>
<polygon fill="none" stroke="#404040" points="494.215,-1035.4 494.606,-1028.2 501.403,-1025.79 501.012,-1032.99 494.215,-1035.4"/>
<text text-anchor="middle" x="520.5" y="-1170" font-family="Helvetica,sans-Serif" font-size="10.00"> &#45;errorSum</text>
<text text-anchor="middle" x="520.5" y="-1159" font-family="Helvetica,sans-Serif" font-size="10.00">&#45;pidSum</text>
<text text-anchor="middle" x="520.5" y="-1148" font-family="Helvetica,sans-Serif" font-size="10.00">&#45;maxOutputValue</text>
<text text-anchor="middle" x="520.5" y="-1137" font-family="Helvetica,sans-Serif" font-size="10.00">&#45;iTerm</text>
<text text-anchor="middle" x="520.5" y="-1126" font-family="Helvetica,sans-Serif" font-size="10.00">&#45;kd</text>
<text text-anchor="middle" x="520.5" y="-1115" font-family="Helvetica,sans-Serif" font-size="10.00">&#45;pidOutput</text>
<text text-anchor="middle" x="520.5" y="-1104" font-family="Helvetica,sans-Serif" font-size="10.00">&#45;error</text>
<text text-anchor="middle" x="520.5" y="-1093" font-family="Helvetica,sans-Serif" font-size="10.00">&#45;jointAngleTolerance</text>
<text text-anchor="middle" x="520.5" y="-1082" font-family="Helvetica,sans-Serif" font-size="10.00">&#45;slowestSpeed</text>
<text text-anchor="middle" x="520.5" y="-1071" font-family="Helvetica,sans-Serif" font-size="10.00">&#45;ki</text>
<text text-anchor="middle" x="520.5" y="-1060" font-family="Helvetica,sans-Serif" font-size="10.00">...</text>
</g>
<!-- Node7 -->
<g id="node6" class="node"><title>Node7</title>
<polygon fill="white" stroke="#bfbfbf" points="633,-1196.5 633,-1253.5 706,-1253.5 706,-1196.5 633,-1196.5"/>
<text text-anchor="middle" x="669.5" y="-1241.5" font-family="Helvetica,sans-Serif" font-size="10.00">elapsedMillis</text>
<polyline fill="none" stroke="#bfbfbf" points="633,-1234.5 706,-1234.5 "/>
<text text-anchor="middle" x="669.5" y="-1222.5" font-family="Helvetica,sans-Serif" font-size="10.00"> </text>
<polyline fill="none" stroke="#bfbfbf" points="633,-1215.5 706,-1215.5 "/>
<text text-anchor="middle" x="669.5" y="-1203.5" font-family="Helvetica,sans-Serif" font-size="10.00"> </text>
</g>
<!-- Node7&#45;&gt;Node2 -->
<g id="edge12" class="edge"><title>Node7&#45;&gt;Node2</title>
<path fill="none" stroke="#404040" d="M702.702,-1196.49C740.154,-1163.37 799.597,-1104.01 828.5,-1039 983.281,-690.837 985.138,-547.902 875.5,-183 872.793,-173.99 869.072,-165.037 864.738,-156.36"/>
<polygon fill="none" stroke="#404040" points="864.607,-156.116 858.251,-152.711 858.949,-145.534 865.306,-148.939 864.607,-156.116"/>
<text text-anchor="middle" x="970.5" y="-746" font-family="Helvetica,sans-Serif" font-size="10.00"> +timeCount</text>
</g>
<!-- Node7&#45;&gt;Node3 -->
<g id="edge9" class="edge"><title>Node7&#45;&gt;Node3</title>
<path fill="none" stroke="#404040" d="M669.374,-1196.49C668.655,-1100.88 663.83,-783.67 631.5,-688 610.627,-626.233 571.883,-564.585 536.859,-516.777"/>
<polygon fill="none" stroke="#404040" points="536.829,-516.736 530.042,-514.299 529.68,-507.097 536.467,-509.534 536.829,-516.736"/>
<text text-anchor="middle" x="717.5" y="-936" font-family="Helvetica,sans-Serif" font-size="10.00"> +sinceTrigger</text>
<text text-anchor="middle" x="717.5" y="-925" font-family="Helvetica,sans-Serif" font-size="10.00">+sinceBudgeCommand</text>
</g>
<!-- Node7&#45;&gt;Node5 -->
<g id="edge5" class="edge"><title>Node7&#45;&gt;Node5</title>
<path fill="none" stroke="#404040" d="M650.45,-1196.46C646.837,-1190.53 643.313,-1184.19 640.5,-1178 622.185,-1137.7 607.032,-1091.61 595.367,-1050.42"/>
<polygon fill="none" stroke="#404040" points="595.311,-1050.22 589.849,-1045.51 592.093,-1038.66 597.556,-1043.37 595.311,-1050.22"/>
<text text-anchor="middle" x="648" y="-1115" font-family="Helvetica,sans-Serif" font-size="10.00"> &#45;dt</text>
</g>
<!-- Node8 -->
<g id="node7" class="node"><title>Node8</title>
<polygon fill="white" stroke="#bfbfbf" points="109,-904.5 109,-961.5 144,-961.5 144,-904.5 109,-904.5"/>
<text text-anchor="middle" x="126.5" y="-949.5" font-family="Helvetica,sans-Serif" font-size="10.00">char</text>
<polyline fill="none" stroke="#bfbfbf" points="109,-942.5 144,-942.5 "/>
<text text-anchor="middle" x="126.5" y="-930.5" font-family="Helvetica,sans-Serif" font-size="10.00"> </text>
<polyline fill="none" stroke="#bfbfbf" points="109,-923.5 144,-923.5 "/>
<text text-anchor="middle" x="126.5" y="-911.5" font-family="Helvetica,sans-Serif" font-size="10.00"> </text>
</g>
<!-- Node8&#45;&gt;Node3 -->
<g id="edge7" class="edge"><title>Node8&#45;&gt;Node3</title>
<path fill="none" stroke="#404040" d="M119.45,-904.225C109.005,-856.976 94.2109,-759.164 129.5,-688 183.168,-579.773 305.49,-503.177 386.258,-462.182"/>
<polygon fill="none" stroke="#404040" points="386.632,-461.995 390.213,-455.736 397.368,-456.634 393.787,-462.893 386.632,-461.995"/>
<text text-anchor="middle" x="168.5" y="-746" font-family="Helvetica,sans-Serif" font-size="10.00"> +limitSwitchType</text>
</g>
<!-- Node9 -->
<g id="node8" class="node"><title>Node9</title>
<polygon fill="white" stroke="#bfbfbf" points="202,-904.5 202,-961.5 253,-961.5 253,-904.5 202,-904.5"/>
<text text-anchor="middle" x="227.5" y="-949.5" font-family="Helvetica,sans-Serif" font-size="10.00">uint32_t</text>
<polyline fill="none" stroke="#bfbfbf" points="202,-942.5 253,-942.5 "/>
<text text-anchor="middle" x="227.5" y="-930.5" font-family="Helvetica,sans-Serif" font-size="10.00"> </text>
<polyline fill="none" stroke="#bfbfbf" points="202,-923.5 253,-923.5 "/>
<text text-anchor="middle" x="227.5" y="-911.5" font-family="Helvetica,sans-Serif" font-size="10.00"> </text>
</g>
<!-- Node9&#45;&gt;Node3 -->
<g id="edge8" class="edge"><title>Node9&#45;&gt;Node3</title>
<path fill="none" stroke="#404040" d="M221.451,-904.48C212.563,-858.022 199.925,-761.883 228.5,-688 260.485,-605.3 332.087,-532.417 387.905,-484.929"/>
<polygon fill="none" stroke="#404040" points="388.229,-484.657 390.255,-477.736 397.423,-476.945 395.396,-483.866 388.229,-484.657"/>
<text text-anchor="middle" x="259" y="-746" font-family="Helvetica,sans-Serif" font-size="10.00"> #encoderPort</text>
</g>
<!-- Node10 -->
<g id="node9" class="node"><title>Node10</title>
<polygon fill="white" stroke="#bfbfbf" points="790,-904.5 790,-961.5 819,-961.5 819,-904.5 790,-904.5"/>
<text text-anchor="middle" x="804.5" y="-949.5" font-family="Helvetica,sans-Serif" font-size="10.00">int</text>
<polyline fill="none" stroke="#bfbfbf" points="790,-942.5 819,-942.5 "/>
<text text-anchor="middle" x="804.5" y="-930.5" font-family="Helvetica,sans-Serif" font-size="10.00"> </text>
<polyline fill="none" stroke="#bfbfbf" points="790,-923.5 819,-923.5 "/>
<text text-anchor="middle" x="804.5" y="-911.5" font-family="Helvetica,sans-Serif" font-size="10.00"> </text>
</g>
<!-- Node10&#45;&gt;Node2 -->
<g id="edge13" class="edge"><title>Node10&#45;&gt;Node2</title>
<path fill="none" stroke="#404040" d="M804.468,-904.425C804.334,-789.406 803.816,-345.183 803.598,-157.963"/>
<polygon fill="none" stroke="#404040" points="803.598,-157.74 799.591,-151.745 803.584,-145.74 807.591,-151.735 803.598,-157.74"/>
<text text-anchor="middle" x="838" y="-440.5" font-family="Helvetica,sans-Serif" font-size="10.00"> &#45;pwmPin</text>
<text text-anchor="middle" x="838" y="-429.5" font-family="Helvetica,sans-Serif" font-size="10.00">&#45;directionPin</text>
<text text-anchor="middle" x="838" y="-418.5" font-family="Helvetica,sans-Serif" font-size="10.00">+numDcMotors</text>
<text text-anchor="middle" x="838" y="-407.5" font-family="Helvetica,sans-Serif" font-size="10.00">+numMillis</text>
</g>
<!-- Node10&#45;&gt;Node3 -->
<g id="edge10" class="edge"><title>Node10&#45;&gt;Node3</title>
<path fill="none" stroke="#404040" d="M804.251,-904.499C802.523,-880.766 796.209,-847.208 775.5,-827 751.892,-803.964 726.148,-832.981 703.5,-809 665.914,-769.203 703.875,-737.499 680.5,-688 646.059,-615.07 586.319,-545.58 538.229,-496.742"/>
<polygon fill="none" stroke="#404040" points="538.166,-496.679 531.098,-495.247 529.701,-488.173 536.769,-489.604 538.166,-496.679"/>
<text text-anchor="middle" x="746.5" y="-801" font-family="Helvetica,sans-Serif" font-size="10.00"> #openLoopSpeed</text>
<text text-anchor="middle" x="746.5" y="-790" font-family="Helvetica,sans-Serif" font-size="10.00">+homingPass</text>
<text text-anchor="middle" x="746.5" y="-779" font-family="Helvetica,sans-Serif" font-size="10.00">+limSwitchOpen</text>
<text text-anchor="middle" x="746.5" y="-768" font-family="Helvetica,sans-Serif" font-size="10.00">+limSwitchCw</text>
<text text-anchor="middle" x="746.5" y="-757" font-family="Helvetica,sans-Serif" font-size="10.00">#directionModifier</text>
<text text-anchor="middle" x="746.5" y="-746" font-family="Helvetica,sans-Serif" font-size="10.00">+rotationDirection</text>
<text text-anchor="middle" x="746.5" y="-735" font-family="Helvetica,sans-Serif" font-size="10.00">+triggerState</text>
<text text-anchor="middle" x="746.5" y="-724" font-family="Helvetica,sans-Serif" font-size="10.00">+encoderPinA</text>
<text text-anchor="middle" x="746.5" y="-713" font-family="Helvetica,sans-Serif" font-size="10.00">+encoderPinB</text>
<text text-anchor="middle" x="746.5" y="-702" font-family="Helvetica,sans-Serif" font-size="10.00">#encoderResolution</text>
<text text-anchor="middle" x="746.5" y="-691" font-family="Helvetica,sans-Serif" font-size="10.00">...</text>
</g>
<!-- Node11 -->
<g id="node10" class="node"><title>Node11</title>
<polygon fill="white" stroke="#bfbfbf" points="448,-904.5 448,-961.5 483,-961.5 483,-904.5 448,-904.5"/>
<text text-anchor="middle" x="465.5" y="-949.5" font-family="Helvetica,sans-Serif" font-size="10.00">bool</text>
<polyline fill="none" stroke="#bfbfbf" points="448,-942.5 483,-942.5 "/>
<text text-anchor="middle" x="465.5" y="-930.5" font-family="Helvetica,sans-Serif" font-size="10.00"> </text>
<polyline fill="none" stroke="#bfbfbf" points="448,-923.5 483,-923.5 "/>
<text text-anchor="middle" x="465.5" y="-911.5" font-family="Helvetica,sans-Serif" font-size="10.00"> </text>
</g>
<!-- Node11&#45;&gt;Node3 -->
<g id="edge11" class="edge"><title>Node11&#45;&gt;Node3</title>
<path fill="none" stroke="#404040" d="M465.23,-904.156C464.999,-879.226 464.676,-841.672 464.5,-809 464.279,-767.921 464.107,-724.353 463.972,-681.914"/>
<polygon fill="none" stroke="#404040" points="463.971,-681.68 459.953,-675.693 463.934,-669.68 467.953,-675.668 463.971,-681.68"/>
<text text-anchor="middle" x="506" y="-801" font-family="Helvetica,sans-Serif" font-size="10.00"> +hasRamping</text>
<text text-anchor="middle" x="506" y="-790" font-family="Helvetica,sans-Serif" font-size="10.00">+homingDone</text>
<text text-anchor="middle" x="506" y="-779" font-family="Helvetica,sans-Serif" font-size="10.00">+triggered</text>
<text text-anchor="middle" x="506" y="-768" font-family="Helvetica,sans-Serif" font-size="10.00">+isOpenLoop</text>
<text text-anchor="middle" x="506" y="-757" font-family="Helvetica,sans-Serif" font-size="10.00">+hasAngleLimits</text>
<text text-anchor="middle" x="506" y="-746" font-family="Helvetica,sans-Serif" font-size="10.00">+hasLimitSwitches</text>
<text text-anchor="middle" x="506" y="-735" font-family="Helvetica,sans-Serif" font-size="10.00">+movementDone</text>
<text text-anchor="middle" x="506" y="-724" font-family="Helvetica,sans-Serif" font-size="10.00">+startedZeroing</text>
<text text-anchor="middle" x="506" y="-713" font-family="Helvetica,sans-Serif" font-size="10.00">+isBudging</text>
<text text-anchor="middle" x="506" y="-702" font-family="Helvetica,sans-Serif" font-size="10.00">+actualPress</text>
<text text-anchor="middle" x="506" y="-691" font-family="Helvetica,sans-Serif" font-size="10.00">...</text>
</g>
</g>
</svg>
        <g id="navigator" transform="translate(0 0)" fill="#404254">
                <rect fill="#f2f5e9" fill-opacity="0.5" stroke="#606060" stroke-width=".5" x="0" y="0" width="60" height="60"/>
                <use id="zoomplus" xlink:href="#zoomPlus" x="17" y="9" onmousedown="handleZoom(evt,'in')"/>
                <use id="zoomminus" xlink:href="#zoomMin" x="42" y="9" onmousedown="handleZoom(evt,'out')"/>
                <use id="reset" xlink:href="#resetDef" x="30" y="36" onmousedown="handleReset()"/>
                <g id="arrowUp" xlink:href="#dirArrow" transform="translate(30 24)" onmousedown="handlePan(0,-1)">
                  <use xlink:href="#rim" fill="#404040">
                        <set attributeName="fill" to="#808080" begin="arrowUp.mouseover" end="arrowUp.mouseout"/>
                  </use>
                  <path fill="none" stroke="white" stroke-width="1.5" d="M0,-3.0v7 M-2.5,-0.5L0,-3.0L2.5,-0.5"/>
                </g>
                <g id="arrowRight" xlink:href="#dirArrow" transform="rotate(90) translate(36 -43)" onmousedown="handlePan(1,0)">
                  <use xlink:href="#rim" fill="#404040">
                        <set attributeName="fill" to="#808080" begin="arrowRight.mouseover" end="arrowRight.mouseout"/>
                  </use>
                  <path fill="none" stroke="white" stroke-width="1.5" d="M0,-3.0v7 M-2.5,-0.5L0,-3.0L2.5,-0.5"/>
                </g>
                <g id="arrowDown" xlink:href="#dirArrow" transform="rotate(180) translate(-30 -48)" onmousedown="handlePan(0,1)">
                  <use xlink:href="#rim" fill="#404040">
                        <set attributeName="fill" to="#808080" begin="arrowDown.mouseover" end="arrowDown.mouseout"/>
                  </use>
                  <path fill="none" stroke="white" stroke-width="1.5" d="M0,-3.0v7 M-2.5,-0.5L0,-3.0L2.5,-0.5"/>
                </g>
                <g id="arrowLeft" xlink:href="#dirArrow" transform="rotate(270) translate(-36 17)" onmousedown="handlePan(-1,0)">
                  <use xlink:href="#rim" fill="#404040">
                        <set attributeName="fill" to="#808080" begin="arrowLeft.mouseover" end="arrowLeft.mouseout"/>
                  </use>
                  <path fill="none" stroke="white" stroke-width="1.5" d="M0,-3.0v7 M-2.5,-0.5L0,-3.0L2.5,-0.5"/>
                </g>
        </g>
        <svg viewBox="0 0 15 15" width="100%" height="30px" preserveAspectRatio="xMaxYMin meet">
         <g id="arrow_out" transform="scale(0.3 0.3)">
          <a xlink:href="classDcMotor__coll__graph_org.svg" target="_base">
           <rect id="button" ry="5" rx="5" y="6" x="6" height="38" width="38"
                fill="#f2f5e9" fill-opacity="0.5" stroke="#606060" stroke-width="1.0"/>
           <path id="arrow"
             d="M 11.500037,31.436501 C 11.940474,20.09759 22.043105,11.32322 32.158766,21.979434 L 37.068811,17.246167 C 37.068811,17.246167 37.088388,32 37.088388,32 L 22.160133,31.978069 C 22.160133,31.978069 26.997745,27.140456 26.997745,27.140456 C 18.528582,18.264221 13.291696,25.230495 11.500037,31.436501 z"
             style="fill:#404040;"/>
          </a>
         </g>
        </svg>
</svg>
