<?xml version="1.0" encoding="UTF-8" standalone="no"?>
<!DOCTYPE svg PUBLIC "-//W3C//DTD SVG 1.1//EN"
 "http://www.w3.org/Graphics/SVG/1.1/DTD/svg11.dtd">
<!-- Generated by graphviz version 2.38.0 (20140413.2041)
 -->
<!-- Title: ServoMotor Pages: 1 -->
<!--zoomable 1272 -->
<svg id="main" version="1.1" xmlns="http://www.w3.org/2000/svg" xmlns:xlink="http://www.w3.org/1999/xlink" xml:space="preserve" onload="init(evt)">
<style type="text/css"><![CDATA[
.edge:hover path { stroke: red; }
.edge:hover polygon { stroke: red; fill: red; }
]]></style>
<script type="text/javascript"><![CDATA[
var edges = document.getElementsByTagName('g');
if (edges && edges.length) {
  for (var i=0;i<edges.length;i++) {
    if (edges[i].id.substr(0,4)=='edge') {
      edges[i].setAttribute('class','edge');
    }
  }
}
]]></script>
        <defs>
                <circle id="rim" cx="0" cy="0" r="7"/>
                <circle id="rim2" cx="0" cy="0" r="3.5"/>
                <g id="zoomPlus">
                        <use xlink:href="#rim" fill="#404040">
                                <set attributeName="fill" to="#808080" begin="zoomplus.mouseover" end="zoomplus.mouseout"/>
                        </use>
                        <path d="M-4,0h8M0,-4v8" fill="none" stroke="white" stroke-width="1.5" pointer-events="none"/>
                </g>
                <g id="zoomMin">
                        <use xlink:href="#rim" fill="#404040">
                                <set attributeName="fill" to="#808080" begin="zoomminus.mouseover" end="zoomminus.mouseout"/>
                        </use>
                        <path d="M-4,0h8" fill="none" stroke="white" stroke-width="1.5" pointer-events="none"/>
                </g>
                <g id="dirArrow">
                        <path fill="none" stroke="white" stroke-width="1.5" d="M0,-3.0v7 M-2.5,-0.5L0,-3.0L2.5,-0.5"/>
                </g>
               <g id="resetDef">
                       <use xlink:href="#rim2" fill="#404040">
                               <set attributeName="fill" to="#808080" begin="reset.mouseover" end="reset.mouseout"/>
                       </use>
               </g>
        </defs>

<script type="text/javascript">
var viewWidth = 988;
var viewHeight = 1272;
var sectionId = 'dynsection-1';
</script>
<script xlink:href="svgpan.js"/>
<svg id="graph" class="graph">
<g id="viewport">
<title>ServoMotor</title>
<polygon fill="white" stroke="none" points="-4,4 -4,-1268 984,-1268 984,4 -4,4"/>
<!-- Node2 -->
<g id="node1" class="node"><title>Node2</title>
<polygon fill="#bfbfbf" stroke="black" points="790.5,-0.5 790.5,-145.5 922.5,-145.5 922.5,-0.5 790.5,-0.5"/>
<text text-anchor="middle" x="856.5" y="-133.5" font-family="Helvetica,sans-Serif" font-size="10.00">ServoMotor</text>
<polyline fill="none" stroke="black" points="790.5,-126.5 922.5,-126.5 "/>
<text text-anchor="middle" x="856.5" y="-114.5" font-family="Helvetica,sans-Serif" font-size="10.00"> </text>
<polyline fill="none" stroke="black" points="790.5,-107.5 922.5,-107.5 "/>
<text text-anchor="start" x="798.5" y="-95.5" font-family="Helvetica,sans-Serif" font-size="10.00">+ ServoMotor()</text>
<text text-anchor="start" x="798.5" y="-84.5" font-family="Helvetica,sans-Serif" font-size="10.00">+ motorTimerInterrupt()</text>
<text text-anchor="start" x="798.5" y="-73.5" font-family="Helvetica,sans-Serif" font-size="10.00">+ calcTurningDuration()</text>
<text text-anchor="start" x="798.5" y="-62.5" font-family="Helvetica,sans-Serif" font-size="10.00">+ calcCurrentAngle()</text>
<text text-anchor="start" x="798.5" y="-51.5" font-family="Helvetica,sans-Serif" font-size="10.00">+ stopRotation()</text>
<text text-anchor="start" x="798.5" y="-40.5" font-family="Helvetica,sans-Serif" font-size="10.00">+ setVelocity()</text>
<text text-anchor="start" x="798.5" y="-29.5" font-family="Helvetica,sans-Serif" font-size="10.00">+ goToCommandedAngle()</text>
<text text-anchor="start" x="798.5" y="-18.5" font-family="Helvetica,sans-Serif" font-size="10.00">+ forceToAngle()</text>
<text text-anchor="start" x="798.5" y="-7.5" font-family="Helvetica,sans-Serif" font-size="10.00">+ budge()</text>
</g>
<!-- Node3 -->
<g id="node2" class="node"><title>Node3</title>
<g id="a_node2"><a xlink:href="classRobotMotor.html" target="_top" xlink:title="The base class for ServoMotor, StepperMotor and DcMotor. ">
<polygon fill="white" stroke="black" points="397.5,-193.5 397.5,-679.5 529.5,-679.5 529.5,-193.5 397.5,-193.5"/>
<text text-anchor="middle" x="463.5" y="-667.5" font-family="Helvetica,sans-Serif" font-size="10.00">RobotMotor</text>
<polyline fill="none" stroke="black" points="397.5,-660.5 529.5,-660.5 "/>
<text text-anchor="start" x="405.5" y="-648.5" font-family="Helvetica,sans-Serif" font-size="10.00">+ motorType</text>
<text text-anchor="start" x="405.5" y="-637.5" font-family="Helvetica,sans-Serif" font-size="10.00">+ limSwitchCcw</text>
<text text-anchor="start" x="405.5" y="-626.5" font-family="Helvetica,sans-Serif" font-size="10.00">+ limSwitchFlex</text>
<text text-anchor="start" x="405.5" y="-615.5" font-family="Helvetica,sans-Serif" font-size="10.00">+ limSwitchExtend</text>
<text text-anchor="start" x="405.5" y="-604.5" font-family="Helvetica,sans-Serif" font-size="10.00">+ limitSwitchState</text>
<text text-anchor="start" x="405.5" y="-593.5" font-family="Helvetica,sans-Serif" font-size="10.00">+ homingType</text>
<text text-anchor="start" x="405.5" y="-582.5" font-family="Helvetica,sans-Serif" font-size="10.00">+ atSafeAngle</text>
<text text-anchor="start" x="405.5" y="-571.5" font-family="Helvetica,sans-Serif" font-size="10.00">+ gearRatioReciprocal</text>
<text text-anchor="start" x="405.5" y="-560.5" font-family="Helvetica,sans-Serif" font-size="10.00">+ minJointAngle</text>
<text text-anchor="start" x="405.5" y="-549.5" font-family="Helvetica,sans-Serif" font-size="10.00">+ minSoftAngle</text>
<text text-anchor="start" x="405.5" y="-538.5" font-family="Helvetica,sans-Serif" font-size="10.00">+ hasEncoder</text>
<text text-anchor="start" x="405.5" y="-527.5" font-family="Helvetica,sans-Serif" font-size="10.00">+ startAngle</text>
<text text-anchor="start" x="405.5" y="-516.5" font-family="Helvetica,sans-Serif" font-size="10.00">+ numMotors</text>
<text text-anchor="start" x="405.5" y="-505.5" font-family="Helvetica,sans-Serif" font-size="10.00"># encoderShift</text>
<text text-anchor="start" x="405.5" y="-494.5" font-family="Helvetica,sans-Serif" font-size="10.00"># currentAngle</text>
<polyline fill="none" stroke="black" points="397.5,-487.5 529.5,-487.5 "/>
<text text-anchor="start" x="405.5" y="-475.5" font-family="Helvetica,sans-Serif" font-size="10.00">+ checkForActualPress()</text>
<text text-anchor="start" x="405.5" y="-464.5" font-family="Helvetica,sans-Serif" font-size="10.00">+ goToSafeAngle()</text>
<text text-anchor="start" x="405.5" y="-453.5" font-family="Helvetica,sans-Serif" font-size="10.00">+ homeMotor()</text>
<text text-anchor="start" x="405.5" y="-442.5" font-family="Helvetica,sans-Serif" font-size="10.00">+ stopHoming()</text>
<text text-anchor="start" x="405.5" y="-431.5" font-family="Helvetica,sans-Serif" font-size="10.00">+ RobotMotor()</text>
<text text-anchor="start" x="405.5" y="-420.5" font-family="Helvetica,sans-Serif" font-size="10.00">+ attachEncoder()</text>
<text text-anchor="start" x="405.5" y="-409.5" font-family="Helvetica,sans-Serif" font-size="10.00">+ attachLimitSwitches()</text>
<text text-anchor="start" x="405.5" y="-398.5" font-family="Helvetica,sans-Serif" font-size="10.00">+ setAngleLimits()</text>
<text text-anchor="start" x="405.5" y="-387.5" font-family="Helvetica,sans-Serif" font-size="10.00">+ withinJointAngleLimits()</text>
<text text-anchor="start" x="405.5" y="-376.5" font-family="Helvetica,sans-Serif" font-size="10.00">+ calcDirection()</text>
<text text-anchor="start" x="405.5" y="-365.5" font-family="Helvetica,sans-Serif" font-size="10.00">+ setDesiredAngle()</text>
<text text-anchor="start" x="405.5" y="-354.5" font-family="Helvetica,sans-Serif" font-size="10.00">+ getDesiredAngle()</text>
<text text-anchor="start" x="405.5" y="-343.5" font-family="Helvetica,sans-Serif" font-size="10.00">+ calcCurrentAngle()</text>
<text text-anchor="start" x="405.5" y="-332.5" font-family="Helvetica,sans-Serif" font-size="10.00">+ setSoftwareAngle()</text>
<text text-anchor="start" x="405.5" y="-321.5" font-family="Helvetica,sans-Serif" font-size="10.00">+ getSoftwareAngle()</text>
<text text-anchor="start" x="405.5" y="-310.5" font-family="Helvetica,sans-Serif" font-size="10.00">+ switchDirectionLogic()</text>
<text text-anchor="start" x="405.5" y="-299.5" font-family="Helvetica,sans-Serif" font-size="10.00">+ getDirectionLogic()</text>
<text text-anchor="start" x="405.5" y="-288.5" font-family="Helvetica,sans-Serif" font-size="10.00">+ setGearRatio()</text>
<text text-anchor="start" x="405.5" y="-277.5" font-family="Helvetica,sans-Serif" font-size="10.00">+ setOpenLoopGain()</text>
<text text-anchor="start" x="405.5" y="-266.5" font-family="Helvetica,sans-Serif" font-size="10.00">+ setMotorSpeed()</text>
<text text-anchor="start" x="405.5" y="-255.5" font-family="Helvetica,sans-Serif" font-size="10.00">+ getMotorSpeed()</text>
<text text-anchor="start" x="405.5" y="-244.5" font-family="Helvetica,sans-Serif" font-size="10.00">+ stopRotation()</text>
<text text-anchor="start" x="405.5" y="-233.5" font-family="Helvetica,sans-Serif" font-size="10.00">+ setVelocity()</text>
<text text-anchor="start" x="405.5" y="-222.5" font-family="Helvetica,sans-Serif" font-size="10.00">+ goToCommandedAngle()</text>
<text text-anchor="start" x="405.5" y="-211.5" font-family="Helvetica,sans-Serif" font-size="10.00">+ forceToAngle()</text>
<text text-anchor="start" x="405.5" y="-200.5" font-family="Helvetica,sans-Serif" font-size="10.00">+ budge()</text>
</a>
</g>
</g>
<!-- Node3&#45;&gt;Node2 -->
<g id="edge1" class="edge"><title>Node3&#45;&gt;Node2</title>
<path fill="none" stroke="midnightblue" d="M537.085,-367.813C609.869,-300.863 720.247,-199.332 790.334,-134.863"/>
<polygon fill="none" stroke="midnightblue" points="534.713,-365.239 529.723,-374.585 539.452,-370.391 534.713,-365.239"/>
</g>
<!-- Node4 -->
<g id="node3" class="node"><title>Node4</title>
<polygon fill="white" stroke="#bfbfbf" points="0,-914.5 0,-971.5 67,-971.5 67,-914.5 0,-914.5"/>
<text text-anchor="middle" x="33.5" y="-959.5" font-family="Helvetica,sans-Serif" font-size="10.00">volatile long</text>
<polyline fill="none" stroke="#bfbfbf" points="0,-952.5 67,-952.5 "/>
<text text-anchor="middle" x="33.5" y="-940.5" font-family="Helvetica,sans-Serif" font-size="10.00"> </text>
<polyline fill="none" stroke="#bfbfbf" points="0,-933.5 67,-933.5 "/>
<text text-anchor="middle" x="33.5" y="-921.5" font-family="Helvetica,sans-Serif" font-size="10.00"> </text>
</g>
<!-- Node4&#45;&gt;Node3 -->
<g id="edge2" class="edge"><title>Node4&#45;&gt;Node3</title>
<path fill="none" stroke="#404040" d="M25.2258,-914.185C12.7334,-866.452 -5.59015,-767.385 33.5,-698 108.889,-564.184 283.806,-491.249 385.804,-458.725"/>
<polygon fill="none" stroke="#404040" points="385.809,-458.724 390.342,-453.116 397.262,-455.144 392.729,-460.752 385.809,-458.724"/>
<text text-anchor="middle" x="68.5" y="-756" font-family="Helvetica,sans-Serif" font-size="10.00"> +encoderCount</text>
</g>
<!-- Node5 -->
<g id="node4" class="node"><title>Node5</title>
<g id="a_node4"><a xlink:href="classPidController.html" target="_top" xlink:title="This is intended to be a generic PID controller class. ">
<polygon fill="white" stroke="black" points="501.5,-837.5 501.5,-1048.5 633.5,-1048.5 633.5,-837.5 501.5,-837.5"/>
<text text-anchor="middle" x="567.5" y="-1036.5" font-family="Helvetica,sans-Serif" font-size="10.00">PidController</text>
<polyline fill="none" stroke="black" points="501.5,-1029.5 633.5,-1029.5 "/>
<text text-anchor="start" x="509.5" y="-1017.5" font-family="Helvetica,sans-Serif" font-size="10.00">&#45; kp</text>
<text text-anchor="start" x="509.5" y="-1006.5" font-family="Helvetica,sans-Serif" font-size="10.00">&#45; minOutputValue</text>
<text text-anchor="start" x="509.5" y="-995.5" font-family="Helvetica,sans-Serif" font-size="10.00">&#45; pTerm</text>
<text text-anchor="start" x="509.5" y="-984.5" font-family="Helvetica,sans-Serif" font-size="10.00">&#45; dTerm</text>
<text text-anchor="start" x="509.5" y="-973.5" font-family="Helvetica,sans-Serif" font-size="10.00">&#45; previousError</text>
<polyline fill="none" stroke="black" points="501.5,-966.5 633.5,-966.5 "/>
<text text-anchor="start" x="509.5" y="-954.5" font-family="Helvetica,sans-Serif" font-size="10.00">+ PidController()</text>
<text text-anchor="start" x="509.5" y="-943.5" font-family="Helvetica,sans-Serif" font-size="10.00">+ updatePID()</text>
<text text-anchor="start" x="509.5" y="-932.5" font-family="Helvetica,sans-Serif" font-size="10.00">+ setJointAngleTolerance()</text>
<text text-anchor="start" x="509.5" y="-921.5" font-family="Helvetica,sans-Serif" font-size="10.00">+ setOutputLimits()</text>
<text text-anchor="start" x="509.5" y="-910.5" font-family="Helvetica,sans-Serif" font-size="10.00">+ setOutputLimits()</text>
<text text-anchor="start" x="509.5" y="-899.5" font-family="Helvetica,sans-Serif" font-size="10.00">+ setSlowestSpeed()</text>
<text text-anchor="start" x="509.5" y="-888.5" font-family="Helvetica,sans-Serif" font-size="10.00">+ setGainConstants()</text>
<text text-anchor="start" x="509.5" y="-877.5" font-family="Helvetica,sans-Serif" font-size="10.00">+ getMaxOutputValue()</text>
<text text-anchor="start" x="509.5" y="-866.5" font-family="Helvetica,sans-Serif" font-size="10.00">+ getMinOutputValue()</text>
<text text-anchor="start" x="509.5" y="-855.5" font-family="Helvetica,sans-Serif" font-size="10.00">+ getJointAngleTolerance()</text>
<text text-anchor="start" x="509.5" y="-844.5" font-family="Helvetica,sans-Serif" font-size="10.00">+ printPidParameters()</text>
</a>
</g>
</g>
<!-- Node5&#45;&gt;Node3 -->
<g id="edge3" class="edge"><title>Node5&#45;&gt;Node3</title>
<path fill="none" stroke="#404040" d="M564.215,-837.378C561.486,-793.945 556.52,-743.225 547.5,-698 543.48,-677.844 538.421,-657.063 532.788,-636.443"/>
<polygon fill="none" stroke="#404040" points="532.728,-636.229 527.264,-631.524 529.506,-624.67 534.97,-629.376 532.728,-636.229"/>
<text text-anchor="middle" x="595.5" y="-756" font-family="Helvetica,sans-Serif" font-size="10.00"> +pidController</text>
</g>
<!-- Node6 -->
<g id="node5" class="node"><title>Node6</title>
<polygon fill="white" stroke="#bfbfbf" points="328,-1206.5 328,-1263.5 363,-1263.5 363,-1206.5 328,-1206.5"/>
<text text-anchor="middle" x="345.5" y="-1251.5" font-family="Helvetica,sans-Serif" font-size="10.00">float</text>
<polyline fill="none" stroke="#bfbfbf" points="328,-1244.5 363,-1244.5 "/>
<text text-anchor="middle" x="345.5" y="-1232.5" font-family="Helvetica,sans-Serif" font-size="10.00"> </text>
<polyline fill="none" stroke="#bfbfbf" points="328,-1225.5 363,-1225.5 "/>
<text text-anchor="middle" x="345.5" y="-1213.5" font-family="Helvetica,sans-Serif" font-size="10.00"> </text>
</g>
<!-- Node6&#45;&gt;Node3 -->
<g id="edge6" class="edge"><title>Node6&#45;&gt;Node3</title>
<path fill="none" stroke="#404040" d="M337.28,-1206.33C319.156,-1141.34 279.37,-974.117 305.5,-837 322.432,-748.147 358.78,-653.823 392.348,-579.152"/>
<polygon fill="none" stroke="#404040" points="392.535,-578.739 391.371,-571.622 397.493,-567.811 398.657,-574.927 392.535,-578.739"/>
<text text-anchor="middle" x="372" y="-995.5" font-family="Helvetica,sans-Serif" font-size="10.00"> +minHardAngle</text>
<text text-anchor="middle" x="372" y="-984.5" font-family="Helvetica,sans-Serif" font-size="10.00">+maxJointAngle</text>
<text text-anchor="middle" x="372" y="-973.5" font-family="Helvetica,sans-Serif" font-size="10.00">+maxSoftAngle</text>
<text text-anchor="middle" x="372" y="-962.5" font-family="Helvetica,sans-Serif" font-size="10.00">+openLoopError</text>
<text text-anchor="middle" x="372" y="-951.5" font-family="Helvetica,sans-Serif" font-size="10.00">+gearRatio</text>
<text text-anchor="middle" x="372" y="-940.5" font-family="Helvetica,sans-Serif" font-size="10.00">#openLoopGain</text>
<text text-anchor="middle" x="372" y="-929.5" font-family="Helvetica,sans-Serif" font-size="10.00">#imaginedAngle</text>
<text text-anchor="middle" x="372" y="-918.5" font-family="Helvetica,sans-Serif" font-size="10.00">+maxHardAngle</text>
<text text-anchor="middle" x="372" y="-907.5" font-family="Helvetica,sans-Serif" font-size="10.00">#desiredAngle</text>
<text text-anchor="middle" x="372" y="-896.5" font-family="Helvetica,sans-Serif" font-size="10.00">+encoderResolutionReciprocal</text>
<text text-anchor="middle" x="372" y="-885.5" font-family="Helvetica,sans-Serif" font-size="10.00">...</text>
</g>
<!-- Node6&#45;&gt;Node5 -->
<g id="edge4" class="edge"><title>Node6&#45;&gt;Node5</title>
<path fill="none" stroke="#404040" d="M363.103,-1212.3C390.841,-1177.98 446.223,-1108.89 491.5,-1049 492.314,-1047.92 493.132,-1046.84 493.953,-1045.75"/>
<polygon fill="none" stroke="#404040" points="494.215,-1045.4 494.606,-1038.2 501.403,-1035.79 501.012,-1042.99 494.215,-1045.4"/>
<text text-anchor="middle" x="520.5" y="-1180" font-family="Helvetica,sans-Serif" font-size="10.00"> &#45;errorSum</text>
<text text-anchor="middle" x="520.5" y="-1169" font-family="Helvetica,sans-Serif" font-size="10.00">&#45;pidSum</text>
<text text-anchor="middle" x="520.5" y="-1158" font-family="Helvetica,sans-Serif" font-size="10.00">&#45;maxOutputValue</text>
<text text-anchor="middle" x="520.5" y="-1147" font-family="Helvetica,sans-Serif" font-size="10.00">&#45;iTerm</text>
<text text-anchor="middle" x="520.5" y="-1136" font-family="Helvetica,sans-Serif" font-size="10.00">&#45;kd</text>
<text text-anchor="middle" x="520.5" y="-1125" font-family="Helvetica,sans-Serif" font-size="10.00">&#45;pidOutput</text>
<text text-anchor="middle" x="520.5" y="-1114" font-family="Helvetica,sans-Serif" font-size="10.00">&#45;error</text>
<text text-anchor="middle" x="520.5" y="-1103" font-family="Helvetica,sans-Serif" font-size="10.00">&#45;jointAngleTolerance</text>
<text text-anchor="middle" x="520.5" y="-1092" font-family="Helvetica,sans-Serif" font-size="10.00">&#45;slowestSpeed</text>
<text text-anchor="middle" x="520.5" y="-1081" font-family="Helvetica,sans-Serif" font-size="10.00">&#45;ki</text>
<text text-anchor="middle" x="520.5" y="-1070" font-family="Helvetica,sans-Serif" font-size="10.00">...</text>
</g>
<!-- Node7 -->
<g id="node6" class="node"><title>Node7</title>
<polygon fill="white" stroke="#bfbfbf" points="633,-1206.5 633,-1263.5 706,-1263.5 706,-1206.5 633,-1206.5"/>
<text text-anchor="middle" x="669.5" y="-1251.5" font-family="Helvetica,sans-Serif" font-size="10.00">elapsedMillis</text>
<polyline fill="none" stroke="#bfbfbf" points="633,-1244.5 706,-1244.5 "/>
<text text-anchor="middle" x="669.5" y="-1232.5" font-family="Helvetica,sans-Serif" font-size="10.00"> </text>
<polyline fill="none" stroke="#bfbfbf" points="633,-1225.5 706,-1225.5 "/>
<text text-anchor="middle" x="669.5" y="-1213.5" font-family="Helvetica,sans-Serif" font-size="10.00"> </text>
</g>
<!-- Node7&#45;&gt;Node2 -->
<g id="edge13" class="edge"><title>Node7&#45;&gt;Node2</title>
<path fill="none" stroke="#404040" d="M701.501,-1206.44C738.07,-1173.04 796.81,-1113.21 827.5,-1049 909.795,-876.816 927.306,-381.336 896.5,-193 894.587,-181.304 891.682,-169.208 888.293,-157.409"/>
<polygon fill="none" stroke="#404040" points="888.236,-157.222 882.67,-152.637 884.761,-145.736 890.327,-150.32 888.236,-157.222"/>
<text text-anchor="middle" x="925.5" y="-756" font-family="Helvetica,sans-Serif" font-size="10.00"> +timeCount</text>
</g>
<!-- Node7&#45;&gt;Node3 -->
<g id="edge9" class="edge"><title>Node7&#45;&gt;Node3</title>
<path fill="none" stroke="#404040" d="M669.374,-1206.49C668.655,-1110.88 663.83,-793.67 631.5,-698 610.627,-636.233 571.883,-574.585 536.859,-526.777"/>
<polygon fill="none" stroke="#404040" points="536.829,-526.736 530.042,-524.299 529.68,-517.097 536.467,-519.534 536.829,-526.736"/>
<text text-anchor="middle" x="717.5" y="-946" font-family="Helvetica,sans-Serif" font-size="10.00"> +sinceTrigger</text>
<text text-anchor="middle" x="717.5" y="-935" font-family="Helvetica,sans-Serif" font-size="10.00">+sinceBudgeCommand</text>
</g>
<!-- Node7&#45;&gt;Node5 -->
<g id="edge5" class="edge"><title>Node7&#45;&gt;Node5</title>
<path fill="none" stroke="#404040" d="M650.45,-1206.46C646.837,-1200.53 643.313,-1194.19 640.5,-1188 622.185,-1147.7 607.032,-1101.61 595.367,-1060.42"/>
<polygon fill="none" stroke="#404040" points="595.311,-1060.22 589.849,-1055.51 592.093,-1048.66 597.556,-1053.37 595.311,-1060.22"/>
<text text-anchor="middle" x="648" y="-1125" font-family="Helvetica,sans-Serif" font-size="10.00"> &#45;dt</text>
</g>
<!-- Node8 -->
<g id="node7" class="node"><title>Node8</title>
<polygon fill="white" stroke="#bfbfbf" points="109,-914.5 109,-971.5 144,-971.5 144,-914.5 109,-914.5"/>
<text text-anchor="middle" x="126.5" y="-959.5" font-family="Helvetica,sans-Serif" font-size="10.00">char</text>
<polyline fill="none" stroke="#bfbfbf" points="109,-952.5 144,-952.5 "/>
<text text-anchor="middle" x="126.5" y="-940.5" font-family="Helvetica,sans-Serif" font-size="10.00"> </text>
<polyline fill="none" stroke="#bfbfbf" points="109,-933.5 144,-933.5 "/>
<text text-anchor="middle" x="126.5" y="-921.5" font-family="Helvetica,sans-Serif" font-size="10.00"> </text>
</g>
<!-- Node8&#45;&gt;Node3 -->
<g id="edge7" class="edge"><title>Node8&#45;&gt;Node3</title>
<path fill="none" stroke="#404040" d="M119.45,-914.225C109.005,-866.976 94.2109,-769.164 129.5,-698 183.168,-589.773 305.49,-513.177 386.258,-472.182"/>
<polygon fill="none" stroke="#404040" points="386.632,-471.995 390.213,-465.736 397.368,-466.634 393.787,-472.893 386.632,-471.995"/>
<text text-anchor="middle" x="168.5" y="-756" font-family="Helvetica,sans-Serif" font-size="10.00"> +limitSwitchType</text>
</g>
<!-- Node9 -->
<g id="node8" class="node"><title>Node9</title>
<polygon fill="white" stroke="#bfbfbf" points="202,-914.5 202,-971.5 253,-971.5 253,-914.5 202,-914.5"/>
<text text-anchor="middle" x="227.5" y="-959.5" font-family="Helvetica,sans-Serif" font-size="10.00">uint32_t</text>
<polyline fill="none" stroke="#bfbfbf" points="202,-952.5 253,-952.5 "/>
<text text-anchor="middle" x="227.5" y="-940.5" font-family="Helvetica,sans-Serif" font-size="10.00"> </text>
<polyline fill="none" stroke="#bfbfbf" points="202,-933.5 253,-933.5 "/>
<text text-anchor="middle" x="227.5" y="-921.5" font-family="Helvetica,sans-Serif" font-size="10.00"> </text>
</g>
<!-- Node9&#45;&gt;Node3 -->
<g id="edge8" class="edge"><title>Node9&#45;&gt;Node3</title>
<path fill="none" stroke="#404040" d="M221.451,-914.48C212.563,-868.022 199.925,-771.883 228.5,-698 260.485,-615.3 332.087,-542.417 387.905,-494.929"/>
<polygon fill="none" stroke="#404040" points="388.229,-494.657 390.255,-487.736 397.423,-486.945 395.396,-493.866 388.229,-494.657"/>
<text text-anchor="middle" x="259" y="-756" font-family="Helvetica,sans-Serif" font-size="10.00"> #encoderPort</text>
</g>
<!-- Node10 -->
<g id="node9" class="node"><title>Node10</title>
<polygon fill="white" stroke="#bfbfbf" points="790,-914.5 790,-971.5 819,-971.5 819,-914.5 790,-914.5"/>
<text text-anchor="middle" x="804.5" y="-959.5" font-family="Helvetica,sans-Serif" font-size="10.00">int</text>
<polyline fill="none" stroke="#bfbfbf" points="790,-952.5 819,-952.5 "/>
<text text-anchor="middle" x="804.5" y="-940.5" font-family="Helvetica,sans-Serif" font-size="10.00"> </text>
<polyline fill="none" stroke="#bfbfbf" points="790,-933.5 819,-933.5 "/>
<text text-anchor="middle" x="804.5" y="-921.5" font-family="Helvetica,sans-Serif" font-size="10.00"> </text>
</g>
<!-- Node10&#45;&gt;Node2 -->
<g id="edge14" class="edge"><title>Node10&#45;&gt;Node2</title>
<path fill="none" stroke="#404040" d="M802.018,-914.181C793.81,-815.17 770.635,-470.97 817.5,-193 819.465,-181.343 822.355,-169.269 825.688,-157.482"/>
<polygon fill="none" stroke="#404040" points="825.736,-157.319 823.609,-150.429 829.151,-145.816 831.279,-152.706 825.736,-157.319"/>
<text text-anchor="middle" x="857" y="-445" font-family="Helvetica,sans-Serif" font-size="10.00"> &#45;pwmPin</text>
<text text-anchor="middle" x="857" y="-434" font-family="Helvetica,sans-Serif" font-size="10.00">+numServoMotors</text>
<text text-anchor="middle" x="857" y="-423" font-family="Helvetica,sans-Serif" font-size="10.00">+numMillis</text>
</g>
<!-- Node10&#45;&gt;Node3 -->
<g id="edge10" class="edge"><title>Node10&#45;&gt;Node3</title>
<path fill="none" stroke="#404040" d="M804.251,-914.499C802.523,-890.766 796.209,-857.208 775.5,-837 751.892,-813.964 726.148,-842.981 703.5,-819 665.914,-779.203 703.875,-747.499 680.5,-698 646.059,-625.07 586.319,-555.58 538.229,-506.742"/>
<polygon fill="none" stroke="#404040" points="538.166,-506.679 531.098,-505.247 529.701,-498.173 536.769,-499.604 538.166,-506.679"/>
<text text-anchor="middle" x="746.5" y="-811" font-family="Helvetica,sans-Serif" font-size="10.00"> #openLoopSpeed</text>
<text text-anchor="middle" x="746.5" y="-800" font-family="Helvetica,sans-Serif" font-size="10.00">+homingPass</text>
<text text-anchor="middle" x="746.5" y="-789" font-family="Helvetica,sans-Serif" font-size="10.00">+limSwitchOpen</text>
<text text-anchor="middle" x="746.5" y="-778" font-family="Helvetica,sans-Serif" font-size="10.00">+limSwitchCw</text>
<text text-anchor="middle" x="746.5" y="-767" font-family="Helvetica,sans-Serif" font-size="10.00">#directionModifier</text>
<text text-anchor="middle" x="746.5" y="-756" font-family="Helvetica,sans-Serif" font-size="10.00">+rotationDirection</text>
<text text-anchor="middle" x="746.5" y="-745" font-family="Helvetica,sans-Serif" font-size="10.00">+triggerState</text>
<text text-anchor="middle" x="746.5" y="-734" font-family="Helvetica,sans-Serif" font-size="10.00">+encoderPinA</text>
<text text-anchor="middle" x="746.5" y="-723" font-family="Helvetica,sans-Serif" font-size="10.00">+encoderPinB</text>
<text text-anchor="middle" x="746.5" y="-712" font-family="Helvetica,sans-Serif" font-size="10.00">#encoderResolution</text>
<text text-anchor="middle" x="746.5" y="-701" font-family="Helvetica,sans-Serif" font-size="10.00">...</text>
</g>
<!-- Node11 -->
<g id="node10" class="node"><title>Node11</title>
<polygon fill="white" stroke="#bfbfbf" points="448,-914.5 448,-971.5 483,-971.5 483,-914.5 448,-914.5"/>
<text text-anchor="middle" x="465.5" y="-959.5" font-family="Helvetica,sans-Serif" font-size="10.00">bool</text>
<polyline fill="none" stroke="#bfbfbf" points="448,-952.5 483,-952.5 "/>
<text text-anchor="middle" x="465.5" y="-940.5" font-family="Helvetica,sans-Serif" font-size="10.00"> </text>
<polyline fill="none" stroke="#bfbfbf" points="448,-933.5 483,-933.5 "/>
<text text-anchor="middle" x="465.5" y="-921.5" font-family="Helvetica,sans-Serif" font-size="10.00"> </text>
</g>
<!-- Node11&#45;&gt;Node3 -->
<g id="edge11" class="edge"><title>Node11&#45;&gt;Node3</title>
<path fill="none" stroke="#404040" d="M465.23,-914.156C464.999,-889.226 464.676,-851.672 464.5,-819 464.279,-777.921 464.107,-734.353 463.972,-691.914"/>
<polygon fill="none" stroke="#404040" points="463.971,-691.68 459.953,-685.693 463.934,-679.68 467.953,-685.668 463.971,-691.68"/>
<text text-anchor="middle" x="506" y="-811" font-family="Helvetica,sans-Serif" font-size="10.00"> +hasRamping</text>
<text text-anchor="middle" x="506" y="-800" font-family="Helvetica,sans-Serif" font-size="10.00">+homingDone</text>
<text text-anchor="middle" x="506" y="-789" font-family="Helvetica,sans-Serif" font-size="10.00">+triggered</text>
<text text-anchor="middle" x="506" y="-778" font-family="Helvetica,sans-Serif" font-size="10.00">+isOpenLoop</text>
<text text-anchor="middle" x="506" y="-767" font-family="Helvetica,sans-Serif" font-size="10.00">+hasAngleLimits</text>
<text text-anchor="middle" x="506" y="-756" font-family="Helvetica,sans-Serif" font-size="10.00">+hasLimitSwitches</text>
<text text-anchor="middle" x="506" y="-745" font-family="Helvetica,sans-Serif" font-size="10.00">+movementDone</text>
<text text-anchor="middle" x="506" y="-734" font-family="Helvetica,sans-Serif" font-size="10.00">+startedZeroing</text>
<text text-anchor="middle" x="506" y="-723" font-family="Helvetica,sans-Serif" font-size="10.00">+isBudging</text>
<text text-anchor="middle" x="506" y="-712" font-family="Helvetica,sans-Serif" font-size="10.00">+actualPress</text>
<text text-anchor="middle" x="506" y="-701" font-family="Helvetica,sans-Serif" font-size="10.00">...</text>
</g>
<!-- Node12 -->
<g id="node11" class="node"><title>Node12</title>
<polygon fill="white" stroke="#bfbfbf" points="939,-408 939,-465 980,-465 980,-408 939,-408"/>
<text text-anchor="middle" x="959.5" y="-453" font-family="Helvetica,sans-Serif" font-size="10.00">Servo</text>
<polyline fill="none" stroke="#bfbfbf" points="939,-446 980,-446 "/>
<text text-anchor="middle" x="959.5" y="-434" font-family="Helvetica,sans-Serif" font-size="10.00"> </text>
<polyline fill="none" stroke="#bfbfbf" points="939,-427 980,-427 "/>
<text text-anchor="middle" x="959.5" y="-415" font-family="Helvetica,sans-Serif" font-size="10.00"> </text>
</g>
<!-- Node12&#45;&gt;Node2 -->
<g id="edge12" class="edge"><title>Node12&#45;&gt;Node2</title>
<path fill="none" stroke="#404040" d="M960.52,-407.736C961.393,-357.234 958.722,-247.819 924.5,-164 923.478,-161.496 922.367,-159 921.182,-156.518"/>
<polygon fill="none" stroke="#404040" points="921.111,-156.382 914.783,-152.923 915.542,-145.752 921.87,-149.211 921.111,-156.382"/>
<text text-anchor="middle" x="942" y="-167" font-family="Helvetica,sans-Serif" font-size="10.00"> &#45;servo</text>
</g>
</g>
</svg>
        <g id="navigator" transform="translate(0 0)" fill="#404254">
                <rect fill="#f2f5e9" fill-opacity="0.5" stroke="#606060" stroke-width=".5" x="0" y="0" width="60" height="60"/>
                <use id="zoomplus" xlink:href="#zoomPlus" x="17" y="9" onmousedown="handleZoom(evt,'in')"/>
                <use id="zoomminus" xlink:href="#zoomMin" x="42" y="9" onmousedown="handleZoom(evt,'out')"/>
                <use id="reset" xlink:href="#resetDef" x="30" y="36" onmousedown="handleReset()"/>
                <g id="arrowUp" xlink:href="#dirArrow" transform="translate(30 24)" onmousedown="handlePan(0,-1)">
                  <use xlink:href="#rim" fill="#404040">
                        <set attributeName="fill" to="#808080" begin="arrowUp.mouseover" end="arrowUp.mouseout"/>
                  </use>
                  <path fill="none" stroke="white" stroke-width="1.5" d="M0,-3.0v7 M-2.5,-0.5L0,-3.0L2.5,-0.5"/>
                </g>
                <g id="arrowRight" xlink:href="#dirArrow" transform="rotate(90) translate(36 -43)" onmousedown="handlePan(1,0)">
                  <use xlink:href="#rim" fill="#404040">
                        <set attributeName="fill" to="#808080" begin="arrowRight.mouseover" end="arrowRight.mouseout"/>
                  </use>
                  <path fill="none" stroke="white" stroke-width="1.5" d="M0,-3.0v7 M-2.5,-0.5L0,-3.0L2.5,-0.5"/>
                </g>
                <g id="arrowDown" xlink:href="#dirArrow" transform="rotate(180) translate(-30 -48)" onmousedown="handlePan(0,1)">
                  <use xlink:href="#rim" fill="#404040">
                        <set attributeName="fill" to="#808080" begin="arrowDown.mouseover" end="arrowDown.mouseout"/>
                  </use>
                  <path fill="none" stroke="white" stroke-width="1.5" d="M0,-3.0v7 M-2.5,-0.5L0,-3.0L2.5,-0.5"/>
                </g>
                <g id="arrowLeft" xlink:href="#dirArrow" transform="rotate(270) translate(-36 17)" onmousedown="handlePan(-1,0)">
                  <use xlink:href="#rim" fill="#404040">
                        <set attributeName="fill" to="#808080" begin="arrowLeft.mouseover" end="arrowLeft.mouseout"/>
                  </use>
                  <path fill="none" stroke="white" stroke-width="1.5" d="M0,-3.0v7 M-2.5,-0.5L0,-3.0L2.5,-0.5"/>
                </g>
        </g>
        <svg viewBox="0 0 15 15" width="100%" height="30px" preserveAspectRatio="xMaxYMin meet">
         <g id="arrow_out" transform="scale(0.3 0.3)">
          <a xlink:href="classServoMotor__coll__graph_org.svg" target="_base">
           <rect id="button" ry="5" rx="5" y="6" x="6" height="38" width="38"
                fill="#f2f5e9" fill-opacity="0.5" stroke="#606060" stroke-width="1.0"/>
           <path id="arrow"
             d="M 11.500037,31.436501 C 11.940474,20.09759 22.043105,11.32322 32.158766,21.979434 L 37.068811,17.246167 C 37.068811,17.246167 37.088388,32 37.088388,32 L 22.160133,31.978069 C 22.160133,31.978069 26.997745,27.140456 26.997745,27.140456 C 18.528582,18.264221 13.291696,25.230495 11.500037,31.436501 z"
             style="fill:#404040;"/>
          </a>
         </g>
        </svg>
</svg>
