<?xml version="1.0" encoding="UTF-8" standalone="no"?>
<!DOCTYPE svg PUBLIC "-//W3C//DTD SVG 1.1//EN"
 "http://www.w3.org/Graphics/SVG/1.1/DTD/svg11.dtd">
<!-- Generated by graphviz version 2.38.0 (20140413.2041)
 -->
<!-- Title: DcMotor Pages: 1 -->
<svg width="1003pt" height="1229pt"
 viewBox="0.00 0.00 1002.50 1229.00" xmlns="http://www.w3.org/2000/svg" xmlns:xlink="http://www.w3.org/1999/xlink">
<g id="graph0" class="graph" transform="scale(1 1) rotate(0) translate(4 1225)">
<title>DcMotor</title>
<polygon fill="white" stroke="none" points="-4,4 -4,-1225 998.5,-1225 998.5,4 -4,4"/>
<!-- Node2 -->
<g id="node1" class="node"><title>Node2</title>
<polygon fill="#bfbfbf" stroke="black" points="737.5,-0.5 737.5,-145.5 869.5,-145.5 869.5,-0.5 737.5,-0.5"/>
<text text-anchor="middle" x="803.5" y="-133.5" font-family="Helvetica,sans-Serif" font-size="10.00">DcMotor</text>
<polyline fill="none" stroke="black" points="737.5,-126.5 869.5,-126.5 "/>
<text text-anchor="middle" x="803.5" y="-114.5" font-family="Helvetica,sans-Serif" font-size="10.00"> </text>
<polyline fill="none" stroke="black" points="737.5,-107.5 869.5,-107.5 "/>
<text text-anchor="start" x="745.5" y="-95.5" font-family="Helvetica,sans-Serif" font-size="10.00">+ DcMotor()</text>
<text text-anchor="start" x="745.5" y="-84.5" font-family="Helvetica,sans-Serif" font-size="10.00">+ motorTimerInterrupt()</text>
<text text-anchor="start" x="745.5" y="-73.5" font-family="Helvetica,sans-Serif" font-size="10.00">+ calcTurningDuration()</text>
<text text-anchor="start" x="745.5" y="-62.5" font-family="Helvetica,sans-Serif" font-size="10.00">+ calcCurrentAngle()</text>
<text text-anchor="start" x="745.5" y="-51.5" font-family="Helvetica,sans-Serif" font-size="10.00">+ stopRotation()</text>
<text text-anchor="start" x="745.5" y="-40.5" font-family="Helvetica,sans-Serif" font-size="10.00">+ setVelocity()</text>
<text text-anchor="start" x="745.5" y="-29.5" font-family="Helvetica,sans-Serif" font-size="10.00">+ goToCommandedAngle()</text>
<text text-anchor="start" x="745.5" y="-18.5" font-family="Helvetica,sans-Serif" font-size="10.00">+ goToAngle()</text>
<text text-anchor="start" x="745.5" y="-7.5" font-family="Helvetica,sans-Serif" font-size="10.00">+ budge()</text>
</g>
<!-- Node3 -->
<g id="node2" class="node"><title>Node3</title>
<g id="a_node2"><a xlink:href="classRobotMotor.html" target="_top" xlink:title="{RobotMotor\n|+ motorType\l+ limSwitchCcw\l+ limSwitchFlex\l+ limSwitchExtend\l+ limitSwitchState\l+ homingType\l+ atSafeAngle\l+ gearRatioReciprocal\l+ minJointAngle\l+ minSoftAngle\l+ openLoopGain\l+ numMotors\l# encoderShift\l# currentAngle\l|+ checkForActualPress()\l+ goToSafeAngle()\l+ homeMotor()\l+ stopHoming()\l+ RobotMotor()\l+ attachEncoder()\l+ attachLimitSwitches()\l+ setAngleLimits()\l+ withinJointAngleLimits()\l+ calcDirection()\l+ setDesiredAngle()\l+ getDesiredAngle()\l+ calcCurrentAngle()\l+ setSoftwareAngle()\l+ getSoftwareAngle()\l+ switchDirectionLogic()\l+ getDirectionLogic()\l+ setGearRatio()\l+ setOpenLoopGain()\l+ setMotorSpeed()\l+ stopRotation()\l+ setVelocity()\l+ goToCommandedAngle()\l+ goToAngle()\l+ budge()\l}">
<polygon fill="white" stroke="black" points="397.5,-183.5 397.5,-647.5 529.5,-647.5 529.5,-183.5 397.5,-183.5"/>
<text text-anchor="middle" x="463.5" y="-635.5" font-family="Helvetica,sans-Serif" font-size="10.00">RobotMotor</text>
<polyline fill="none" stroke="black" points="397.5,-628.5 529.5,-628.5 "/>
<text text-anchor="start" x="405.5" y="-616.5" font-family="Helvetica,sans-Serif" font-size="10.00">+ motorType</text>
<text text-anchor="start" x="405.5" y="-605.5" font-family="Helvetica,sans-Serif" font-size="10.00">+ limSwitchCcw</text>
<text text-anchor="start" x="405.5" y="-594.5" font-family="Helvetica,sans-Serif" font-size="10.00">+ limSwitchFlex</text>
<text text-anchor="start" x="405.5" y="-583.5" font-family="Helvetica,sans-Serif" font-size="10.00">+ limSwitchExtend</text>
<text text-anchor="start" x="405.5" y="-572.5" font-family="Helvetica,sans-Serif" font-size="10.00">+ limitSwitchState</text>
<text text-anchor="start" x="405.5" y="-561.5" font-family="Helvetica,sans-Serif" font-size="10.00">+ homingType</text>
<text text-anchor="start" x="405.5" y="-550.5" font-family="Helvetica,sans-Serif" font-size="10.00">+ atSafeAngle</text>
<text text-anchor="start" x="405.5" y="-539.5" font-family="Helvetica,sans-Serif" font-size="10.00">+ gearRatioReciprocal</text>
<text text-anchor="start" x="405.5" y="-528.5" font-family="Helvetica,sans-Serif" font-size="10.00">+ minJointAngle</text>
<text text-anchor="start" x="405.5" y="-517.5" font-family="Helvetica,sans-Serif" font-size="10.00">+ minSoftAngle</text>
<text text-anchor="start" x="405.5" y="-506.5" font-family="Helvetica,sans-Serif" font-size="10.00">+ openLoopGain</text>
<text text-anchor="start" x="405.5" y="-495.5" font-family="Helvetica,sans-Serif" font-size="10.00">+ numMotors</text>
<text text-anchor="start" x="405.5" y="-484.5" font-family="Helvetica,sans-Serif" font-size="10.00"># encoderShift</text>
<text text-anchor="start" x="405.5" y="-473.5" font-family="Helvetica,sans-Serif" font-size="10.00"># currentAngle</text>
<polyline fill="none" stroke="black" points="397.5,-466.5 529.5,-466.5 "/>
<text text-anchor="start" x="405.5" y="-454.5" font-family="Helvetica,sans-Serif" font-size="10.00">+ checkForActualPress()</text>
<text text-anchor="start" x="405.5" y="-443.5" font-family="Helvetica,sans-Serif" font-size="10.00">+ goToSafeAngle()</text>
<text text-anchor="start" x="405.5" y="-432.5" font-family="Helvetica,sans-Serif" font-size="10.00">+ homeMotor()</text>
<text text-anchor="start" x="405.5" y="-421.5" font-family="Helvetica,sans-Serif" font-size="10.00">+ stopHoming()</text>
<text text-anchor="start" x="405.5" y="-410.5" font-family="Helvetica,sans-Serif" font-size="10.00">+ RobotMotor()</text>
<text text-anchor="start" x="405.5" y="-399.5" font-family="Helvetica,sans-Serif" font-size="10.00">+ attachEncoder()</text>
<text text-anchor="start" x="405.5" y="-388.5" font-family="Helvetica,sans-Serif" font-size="10.00">+ attachLimitSwitches()</text>
<text text-anchor="start" x="405.5" y="-377.5" font-family="Helvetica,sans-Serif" font-size="10.00">+ setAngleLimits()</text>
<text text-anchor="start" x="405.5" y="-366.5" font-family="Helvetica,sans-Serif" font-size="10.00">+ withinJointAngleLimits()</text>
<text text-anchor="start" x="405.5" y="-355.5" font-family="Helvetica,sans-Serif" font-size="10.00">+ calcDirection()</text>
<text text-anchor="start" x="405.5" y="-344.5" font-family="Helvetica,sans-Serif" font-size="10.00">+ setDesiredAngle()</text>
<text text-anchor="start" x="405.5" y="-333.5" font-family="Helvetica,sans-Serif" font-size="10.00">+ getDesiredAngle()</text>
<text text-anchor="start" x="405.5" y="-322.5" font-family="Helvetica,sans-Serif" font-size="10.00">+ calcCurrentAngle()</text>
<text text-anchor="start" x="405.5" y="-311.5" font-family="Helvetica,sans-Serif" font-size="10.00">+ setSoftwareAngle()</text>
<text text-anchor="start" x="405.5" y="-300.5" font-family="Helvetica,sans-Serif" font-size="10.00">+ getSoftwareAngle()</text>
<text text-anchor="start" x="405.5" y="-289.5" font-family="Helvetica,sans-Serif" font-size="10.00">+ switchDirectionLogic()</text>
<text text-anchor="start" x="405.5" y="-278.5" font-family="Helvetica,sans-Serif" font-size="10.00">+ getDirectionLogic()</text>
<text text-anchor="start" x="405.5" y="-267.5" font-family="Helvetica,sans-Serif" font-size="10.00">+ setGearRatio()</text>
<text text-anchor="start" x="405.5" y="-256.5" font-family="Helvetica,sans-Serif" font-size="10.00">+ setOpenLoopGain()</text>
<text text-anchor="start" x="405.5" y="-245.5" font-family="Helvetica,sans-Serif" font-size="10.00">+ setMotorSpeed()</text>
<text text-anchor="start" x="405.5" y="-234.5" font-family="Helvetica,sans-Serif" font-size="10.00">+ stopRotation()</text>
<text text-anchor="start" x="405.5" y="-223.5" font-family="Helvetica,sans-Serif" font-size="10.00">+ setVelocity()</text>
<text text-anchor="start" x="405.5" y="-212.5" font-family="Helvetica,sans-Serif" font-size="10.00">+ goToCommandedAngle()</text>
<text text-anchor="start" x="405.5" y="-201.5" font-family="Helvetica,sans-Serif" font-size="10.00">+ goToAngle()</text>
<text text-anchor="start" x="405.5" y="-190.5" font-family="Helvetica,sans-Serif" font-size="10.00">+ budge()</text>
</a>
</g>
</g>
<!-- Node3&#45;&gt;Node2 -->
<g id="edge1" class="edge"><title>Node3&#45;&gt;Node2</title>
<path fill="none" stroke="midnightblue" d="M537.007,-340.885C596.579,-281.226 679.786,-197.896 737.305,-140.293"/>
<polygon fill="none" stroke="midnightblue" points="534.452,-338.491 529.863,-348.04 539.405,-343.437 534.452,-338.491"/>
</g>
<!-- Node4 -->
<g id="node3" class="node"><title>Node4</title>
<polygon fill="white" stroke="#bfbfbf" points="0,-877 0,-934 67,-934 67,-877 0,-877"/>
<text text-anchor="middle" x="33.5" y="-922" font-family="Helvetica,sans-Serif" font-size="10.00">volatile long</text>
<polyline fill="none" stroke="#bfbfbf" points="0,-915 67,-915 "/>
<text text-anchor="middle" x="33.5" y="-903" font-family="Helvetica,sans-Serif" font-size="10.00"> </text>
<polyline fill="none" stroke="#bfbfbf" points="0,-896 67,-896 "/>
<text text-anchor="middle" x="33.5" y="-884" font-family="Helvetica,sans-Serif" font-size="10.00"> </text>
</g>
<!-- Node4&#45;&gt;Node3 -->
<g id="edge2" class="edge"><title>Node4&#45;&gt;Node3</title>
<path fill="none" stroke="#404040" d="M25.1776,-876.861C12.765,-829.945 -5.24576,-733.277 33.5,-666 109.22,-534.522 283.706,-465.964 385.613,-435.91"/>
<polygon fill="none" stroke="#404040" points="385.836,-435.846 390.492,-430.34 397.366,-432.52 392.71,-438.026 385.836,-435.846"/>
<text text-anchor="middle" x="68.5" y="-724" font-family="Helvetica,sans-Serif" font-size="10.00"> +encoderCount</text>
</g>
<!-- Node5 -->
<g id="node4" class="node"><title>Node5</title>
<g id="a_node4"><a xlink:href="classPidController.html" target="_top" xlink:title="{PidController\n|&#45; kp\l&#45; minOutputValue\l&#45; pTerm\l&#45; dTerm\l&#45; previousError\l|+ PidController()\l+ updatePID()\l+ setJointAngleTolerance()\l+ setOutputLimits()\l+ setOutputLimits()\l+ setGainConstants()\l+ getMaxOutputValue()\l+ getMinOutputValue()\l+ getJointAngleTolerance()\l+ printPidParameters()\l}">
<polygon fill="white" stroke="black" points="501.5,-805.5 501.5,-1005.5 633.5,-1005.5 633.5,-805.5 501.5,-805.5"/>
<text text-anchor="middle" x="567.5" y="-993.5" font-family="Helvetica,sans-Serif" font-size="10.00">PidController</text>
<polyline fill="none" stroke="black" points="501.5,-986.5 633.5,-986.5 "/>
<text text-anchor="start" x="509.5" y="-974.5" font-family="Helvetica,sans-Serif" font-size="10.00">&#45; kp</text>
<text text-anchor="start" x="509.5" y="-963.5" font-family="Helvetica,sans-Serif" font-size="10.00">&#45; minOutputValue</text>
<text text-anchor="start" x="509.5" y="-952.5" font-family="Helvetica,sans-Serif" font-size="10.00">&#45; pTerm</text>
<text text-anchor="start" x="509.5" y="-941.5" font-family="Helvetica,sans-Serif" font-size="10.00">&#45; dTerm</text>
<text text-anchor="start" x="509.5" y="-930.5" font-family="Helvetica,sans-Serif" font-size="10.00">&#45; previousError</text>
<polyline fill="none" stroke="black" points="501.5,-923.5 633.5,-923.5 "/>
<text text-anchor="start" x="509.5" y="-911.5" font-family="Helvetica,sans-Serif" font-size="10.00">+ PidController()</text>
<text text-anchor="start" x="509.5" y="-900.5" font-family="Helvetica,sans-Serif" font-size="10.00">+ updatePID()</text>
<text text-anchor="start" x="509.5" y="-889.5" font-family="Helvetica,sans-Serif" font-size="10.00">+ setJointAngleTolerance()</text>
<text text-anchor="start" x="509.5" y="-878.5" font-family="Helvetica,sans-Serif" font-size="10.00">+ setOutputLimits()</text>
<text text-anchor="start" x="509.5" y="-867.5" font-family="Helvetica,sans-Serif" font-size="10.00">+ setOutputLimits()</text>
<text text-anchor="start" x="509.5" y="-856.5" font-family="Helvetica,sans-Serif" font-size="10.00">+ setGainConstants()</text>
<text text-anchor="start" x="509.5" y="-845.5" font-family="Helvetica,sans-Serif" font-size="10.00">+ getMaxOutputValue()</text>
<text text-anchor="start" x="509.5" y="-834.5" font-family="Helvetica,sans-Serif" font-size="10.00">+ getMinOutputValue()</text>
<text text-anchor="start" x="509.5" y="-823.5" font-family="Helvetica,sans-Serif" font-size="10.00">+ getJointAngleTolerance()</text>
<text text-anchor="start" x="509.5" y="-812.5" font-family="Helvetica,sans-Serif" font-size="10.00">+ printPidParameters()</text>
</a>
</g>
</g>
<!-- Node5&#45;&gt;Node3 -->
<g id="edge3" class="edge"><title>Node5&#45;&gt;Node3</title>
<path fill="none" stroke="#404040" d="M564.539,-805.392C561.878,-762.23 556.874,-711.266 547.5,-666 543.51,-646.732 538.486,-626.889 532.889,-607.209"/>
<polygon fill="none" stroke="#404040" points="532.878,-607.17 527.363,-602.524 529.531,-595.646 535.046,-600.293 532.878,-607.17"/>
<text text-anchor="middle" x="595.5" y="-724" font-family="Helvetica,sans-Serif" font-size="10.00"> +pidController</text>
</g>
<!-- Node6 -->
<g id="node5" class="node"><title>Node6</title>
<polygon fill="white" stroke="#bfbfbf" points="328,-1163.5 328,-1220.5 363,-1220.5 363,-1163.5 328,-1163.5"/>
<text text-anchor="middle" x="345.5" y="-1208.5" font-family="Helvetica,sans-Serif" font-size="10.00">float</text>
<polyline fill="none" stroke="#bfbfbf" points="328,-1201.5 363,-1201.5 "/>
<text text-anchor="middle" x="345.5" y="-1189.5" font-family="Helvetica,sans-Serif" font-size="10.00"> </text>
<polyline fill="none" stroke="#bfbfbf" points="328,-1182.5 363,-1182.5 "/>
<text text-anchor="middle" x="345.5" y="-1170.5" font-family="Helvetica,sans-Serif" font-size="10.00"> </text>
</g>
<!-- Node6&#45;&gt;Node3 -->
<g id="edge6" class="edge"><title>Node6&#45;&gt;Node3</title>
<path fill="none" stroke="#404040" d="M337.019,-1163.13C318.795,-1099.26 279.573,-937.571 305.5,-805 322.415,-718.509 358.654,-626.959 392.164,-554.467"/>
<polygon fill="none" stroke="#404040" points="392.227,-554.332 391.138,-547.204 397.3,-543.457 398.388,-550.586 392.227,-554.332"/>
<text text-anchor="middle" x="372" y="-958" font-family="Helvetica,sans-Serif" font-size="10.00"> +minHardAngle</text>
<text text-anchor="middle" x="372" y="-947" font-family="Helvetica,sans-Serif" font-size="10.00">+maxJointAngle</text>
<text text-anchor="middle" x="372" y="-936" font-family="Helvetica,sans-Serif" font-size="10.00">+maxSoftAngle</text>
<text text-anchor="middle" x="372" y="-925" font-family="Helvetica,sans-Serif" font-size="10.00">+openLoopError</text>
<text text-anchor="middle" x="372" y="-914" font-family="Helvetica,sans-Serif" font-size="10.00">+gearRatio</text>
<text text-anchor="middle" x="372" y="-903" font-family="Helvetica,sans-Serif" font-size="10.00">#imaginedAngle</text>
<text text-anchor="middle" x="372" y="-892" font-family="Helvetica,sans-Serif" font-size="10.00">+maxHardAngle</text>
<text text-anchor="middle" x="372" y="-881" font-family="Helvetica,sans-Serif" font-size="10.00">#desiredAngle</text>
<text text-anchor="middle" x="372" y="-870" font-family="Helvetica,sans-Serif" font-size="10.00">+encoderResolutionReciprocal</text>
<text text-anchor="middle" x="372" y="-859" font-family="Helvetica,sans-Serif" font-size="10.00">+startAngle</text>
<text text-anchor="middle" x="372" y="-848" font-family="Helvetica,sans-Serif" font-size="10.00">...</text>
</g>
<!-- Node6&#45;&gt;Node5 -->
<g id="edge4" class="edge"><title>Node6&#45;&gt;Node5</title>
<path fill="none" stroke="#404040" d="M363.143,-1168.88C390.706,-1134.26 445.581,-1065.14 491.5,-1006 492.317,-1004.95 493.137,-1003.89 493.962,-1002.83"/>
<polygon fill="none" stroke="#404040" points="494.127,-1002.61 494.633,-995.42 501.467,-993.121 500.961,-1000.31 494.127,-1002.61"/>
<text text-anchor="middle" x="520.5" y="-1137" font-family="Helvetica,sans-Serif" font-size="10.00"> &#45;errorSum</text>
<text text-anchor="middle" x="520.5" y="-1126" font-family="Helvetica,sans-Serif" font-size="10.00">&#45;pidSum</text>
<text text-anchor="middle" x="520.5" y="-1115" font-family="Helvetica,sans-Serif" font-size="10.00">&#45;maxOutputValue</text>
<text text-anchor="middle" x="520.5" y="-1104" font-family="Helvetica,sans-Serif" font-size="10.00">&#45;iTerm</text>
<text text-anchor="middle" x="520.5" y="-1093" font-family="Helvetica,sans-Serif" font-size="10.00">&#45;kd</text>
<text text-anchor="middle" x="520.5" y="-1082" font-family="Helvetica,sans-Serif" font-size="10.00">&#45;pidOutput</text>
<text text-anchor="middle" x="520.5" y="-1071" font-family="Helvetica,sans-Serif" font-size="10.00">&#45;error</text>
<text text-anchor="middle" x="520.5" y="-1060" font-family="Helvetica,sans-Serif" font-size="10.00">&#45;jointAngleTolerance</text>
<text text-anchor="middle" x="520.5" y="-1049" font-family="Helvetica,sans-Serif" font-size="10.00">&#45;slowestSpeed</text>
<text text-anchor="middle" x="520.5" y="-1038" font-family="Helvetica,sans-Serif" font-size="10.00">&#45;ki</text>
<text text-anchor="middle" x="520.5" y="-1027" font-family="Helvetica,sans-Serif" font-size="10.00">...</text>
</g>
<!-- Node7 -->
<g id="node6" class="node"><title>Node7</title>
<polygon fill="white" stroke="#bfbfbf" points="633,-1163.5 633,-1220.5 706,-1220.5 706,-1163.5 633,-1163.5"/>
<text text-anchor="middle" x="669.5" y="-1208.5" font-family="Helvetica,sans-Serif" font-size="10.00">elapsedMillis</text>
<polyline fill="none" stroke="#bfbfbf" points="633,-1201.5 706,-1201.5 "/>
<text text-anchor="middle" x="669.5" y="-1189.5" font-family="Helvetica,sans-Serif" font-size="10.00"> </text>
<polyline fill="none" stroke="#bfbfbf" points="633,-1182.5 706,-1182.5 "/>
<text text-anchor="middle" x="669.5" y="-1170.5" font-family="Helvetica,sans-Serif" font-size="10.00"> </text>
</g>
<!-- Node7&#45;&gt;Node2 -->
<g id="edge12" class="edge"><title>Node7&#45;&gt;Node2</title>
<path fill="none" stroke="#404040" d="M702.657,-1163.48C740.068,-1130.33 799.472,-1070.96 828.5,-1006 977.976,-671.505 980.925,-533.878 875.5,-183 872.793,-173.99 869.072,-165.037 864.738,-156.36"/>
<polygon fill="none" stroke="#404040" points="864.607,-156.116 858.251,-152.711 858.949,-145.534 865.306,-148.939 864.607,-156.116"/>
<text text-anchor="middle" x="967.5" y="-724" font-family="Helvetica,sans-Serif" font-size="10.00"> +timeCount</text>
</g>
<!-- Node7&#45;&gt;Node3 -->
<g id="edge9" class="edge"><title>Node7&#45;&gt;Node3</title>
<path fill="none" stroke="#404040" d="M669.389,-1163.38C668.716,-1068.87 664.022,-759.183 631.5,-666 610.696,-606.391 572.072,-547.438 537.1,-501.815"/>
<polygon fill="none" stroke="#404040" points="537.06,-501.764 530.221,-499.479 529.7,-492.287 536.539,-494.572 537.06,-501.764"/>
<text text-anchor="middle" x="717.5" y="-908.5" font-family="Helvetica,sans-Serif" font-size="10.00"> +sinceTrigger</text>
<text text-anchor="middle" x="717.5" y="-897.5" font-family="Helvetica,sans-Serif" font-size="10.00">+sinceBudgeCommand</text>
</g>
<!-- Node7&#45;&gt;Node5 -->
<g id="edge5" class="edge"><title>Node7&#45;&gt;Node5</title>
<path fill="none" stroke="#404040" d="M650.481,-1163.45C646.865,-1157.52 643.332,-1151.18 640.5,-1145 621.987,-1104.61 606.586,-1058.28 594.778,-1017.26"/>
<polygon fill="none" stroke="#404040" points="594.734,-1017.11 589.251,-1012.42 591.464,-1005.56 596.948,-1010.24 594.734,-1017.11"/>
<text text-anchor="middle" x="648" y="-1082" font-family="Helvetica,sans-Serif" font-size="10.00"> &#45;dt</text>
</g>
<!-- Node8 -->
<g id="node7" class="node"><title>Node8</title>
<polygon fill="white" stroke="#bfbfbf" points="109,-877 109,-934 144,-934 144,-877 109,-877"/>
<text text-anchor="middle" x="126.5" y="-922" font-family="Helvetica,sans-Serif" font-size="10.00">char</text>
<polyline fill="none" stroke="#bfbfbf" points="109,-915 144,-915 "/>
<text text-anchor="middle" x="126.5" y="-903" font-family="Helvetica,sans-Serif" font-size="10.00"> </text>
<polyline fill="none" stroke="#bfbfbf" points="109,-896 144,-896 "/>
<text text-anchor="middle" x="126.5" y="-884" font-family="Helvetica,sans-Serif" font-size="10.00"> </text>
</g>
<!-- Node8&#45;&gt;Node3 -->
<g id="edge7" class="edge"><title>Node8&#45;&gt;Node3</title>
<path fill="none" stroke="#404040" d="M119.38,-876.901C108.961,-830.459 94.3685,-735.008 129.5,-666 183.443,-560.042 305.687,-487.332 386.364,-448.831"/>
<polygon fill="none" stroke="#404040" points="386.597,-448.722 390.33,-442.552 397.461,-443.625 393.727,-449.795 386.597,-448.722"/>
<text text-anchor="middle" x="168.5" y="-724" font-family="Helvetica,sans-Serif" font-size="10.00"> +limitSwitchType</text>
</g>
<!-- Node9 -->
<g id="node8" class="node"><title>Node9</title>
<polygon fill="white" stroke="#bfbfbf" points="202,-877 202,-934 253,-934 253,-877 202,-877"/>
<text text-anchor="middle" x="227.5" y="-922" font-family="Helvetica,sans-Serif" font-size="10.00">uint32_t</text>
<polyline fill="none" stroke="#bfbfbf" points="202,-915 253,-915 "/>
<text text-anchor="middle" x="227.5" y="-903" font-family="Helvetica,sans-Serif" font-size="10.00"> </text>
<polyline fill="none" stroke="#bfbfbf" points="202,-896 253,-896 "/>
<text text-anchor="middle" x="227.5" y="-884" font-family="Helvetica,sans-Serif" font-size="10.00"> </text>
</g>
<!-- Node9&#45;&gt;Node3 -->
<g id="edge8" class="edge"><title>Node9&#45;&gt;Node3</title>
<path fill="none" stroke="#404040" d="M221.278,-876.799C212.356,-831.019 199.945,-737.527 228.5,-666 260.618,-585.548 332.201,-515.914 387.979,-470.81"/>
<polygon fill="none" stroke="#404040" points="388.105,-470.709 390.305,-463.842 397.49,-463.231 395.29,-470.098 388.105,-470.709"/>
<text text-anchor="middle" x="259" y="-724" font-family="Helvetica,sans-Serif" font-size="10.00"> #encoderPort</text>
</g>
<!-- Node10 -->
<g id="node9" class="node"><title>Node10</title>
<polygon fill="white" stroke="#bfbfbf" points="790,-877 790,-934 819,-934 819,-877 790,-877"/>
<text text-anchor="middle" x="804.5" y="-922" font-family="Helvetica,sans-Serif" font-size="10.00">int</text>
<polyline fill="none" stroke="#bfbfbf" points="790,-915 819,-915 "/>
<text text-anchor="middle" x="804.5" y="-903" font-family="Helvetica,sans-Serif" font-size="10.00"> </text>
<polyline fill="none" stroke="#bfbfbf" points="790,-896 819,-896 "/>
<text text-anchor="middle" x="804.5" y="-884" font-family="Helvetica,sans-Serif" font-size="10.00"> </text>
</g>
<!-- Node10&#45;&gt;Node2 -->
<g id="edge13" class="edge"><title>Node10&#45;&gt;Node2</title>
<path fill="none" stroke="#404040" d="M804.467,-876.868C804.332,-764.614 803.82,-340.063 803.601,-157.875"/>
<polygon fill="none" stroke="#404040" points="803.601,-157.707 799.594,-151.712 803.586,-145.707 807.594,-151.702 803.601,-157.707"/>
<text text-anchor="middle" x="838" y="-429.5" font-family="Helvetica,sans-Serif" font-size="10.00"> &#45;pwmPin</text>
<text text-anchor="middle" x="838" y="-418.5" font-family="Helvetica,sans-Serif" font-size="10.00">&#45;directionPin</text>
<text text-anchor="middle" x="838" y="-407.5" font-family="Helvetica,sans-Serif" font-size="10.00">+numDcMotors</text>
<text text-anchor="middle" x="838" y="-396.5" font-family="Helvetica,sans-Serif" font-size="10.00">+numMillis</text>
</g>
<!-- Node10&#45;&gt;Node3 -->
<g id="edge10" class="edge"><title>Node10&#45;&gt;Node3</title>
<path fill="none" stroke="#404040" d="M803.662,-876.625C801.474,-854.245 794.82,-823.588 775.5,-805 751.73,-782.131 726.148,-810.981 703.5,-787 665.914,-747.203 704.401,-715.247 680.5,-666 646.167,-595.258 586.45,-528.79 538.342,-482.274"/>
<polygon fill="none" stroke="#404040" points="538.177,-482.117 531.076,-480.862 529.503,-473.824 536.604,-475.079 538.177,-482.117"/>
<text text-anchor="middle" x="746.5" y="-779" font-family="Helvetica,sans-Serif" font-size="10.00"> +homingPass</text>
<text text-anchor="middle" x="746.5" y="-768" font-family="Helvetica,sans-Serif" font-size="10.00">+limSwitchOpen</text>
<text text-anchor="middle" x="746.5" y="-757" font-family="Helvetica,sans-Serif" font-size="10.00">+limSwitchCw</text>
<text text-anchor="middle" x="746.5" y="-746" font-family="Helvetica,sans-Serif" font-size="10.00">#directionModifier</text>
<text text-anchor="middle" x="746.5" y="-735" font-family="Helvetica,sans-Serif" font-size="10.00">+rotationDirection</text>
<text text-anchor="middle" x="746.5" y="-724" font-family="Helvetica,sans-Serif" font-size="10.00">+triggerState</text>
<text text-anchor="middle" x="746.5" y="-713" font-family="Helvetica,sans-Serif" font-size="10.00">+encoderPinA</text>
<text text-anchor="middle" x="746.5" y="-702" font-family="Helvetica,sans-Serif" font-size="10.00">+encoderPinB</text>
<text text-anchor="middle" x="746.5" y="-691" font-family="Helvetica,sans-Serif" font-size="10.00">#encoderResolution</text>
<text text-anchor="middle" x="746.5" y="-680" font-family="Helvetica,sans-Serif" font-size="10.00">+openLoopSpeed</text>
<text text-anchor="middle" x="746.5" y="-669" font-family="Helvetica,sans-Serif" font-size="10.00">...</text>
</g>
<!-- Node11 -->
<g id="node10" class="node"><title>Node11</title>
<polygon fill="white" stroke="#bfbfbf" points="448,-877 448,-934 483,-934 483,-877 448,-877"/>
<text text-anchor="middle" x="465.5" y="-922" font-family="Helvetica,sans-Serif" font-size="10.00">bool</text>
<polyline fill="none" stroke="#bfbfbf" points="448,-915 483,-915 "/>
<text text-anchor="middle" x="465.5" y="-903" font-family="Helvetica,sans-Serif" font-size="10.00"> </text>
<polyline fill="none" stroke="#bfbfbf" points="448,-896 483,-896 "/>
<text text-anchor="middle" x="465.5" y="-884" font-family="Helvetica,sans-Serif" font-size="10.00"> </text>
</g>
<!-- Node11&#45;&gt;Node3 -->
<g id="edge11" class="edge"><title>Node11&#45;&gt;Node3</title>
<path fill="none" stroke="#404040" d="M465.22,-876.961C464.99,-853.149 464.673,-817.804 464.5,-787 464.27,-745.932 464.092,-702.303 463.955,-659.945"/>
<polygon fill="none" stroke="#404040" points="463.955,-659.739 459.936,-653.751 463.917,-647.739 467.936,-653.726 463.955,-659.739"/>
<text text-anchor="middle" x="506" y="-779" font-family="Helvetica,sans-Serif" font-size="10.00"> +hasRamping</text>
<text text-anchor="middle" x="506" y="-768" font-family="Helvetica,sans-Serif" font-size="10.00">+homingDone</text>
<text text-anchor="middle" x="506" y="-757" font-family="Helvetica,sans-Serif" font-size="10.00">+triggered</text>
<text text-anchor="middle" x="506" y="-746" font-family="Helvetica,sans-Serif" font-size="10.00">+isOpenLoop</text>
<text text-anchor="middle" x="506" y="-735" font-family="Helvetica,sans-Serif" font-size="10.00">+hasAngleLimits</text>
<text text-anchor="middle" x="506" y="-724" font-family="Helvetica,sans-Serif" font-size="10.00">+hasLimitSwitches</text>
<text text-anchor="middle" x="506" y="-713" font-family="Helvetica,sans-Serif" font-size="10.00">+movementDone</text>
<text text-anchor="middle" x="506" y="-702" font-family="Helvetica,sans-Serif" font-size="10.00">+isBudging</text>
<text text-anchor="middle" x="506" y="-691" font-family="Helvetica,sans-Serif" font-size="10.00">+actualPress</text>
<text text-anchor="middle" x="506" y="-680" font-family="Helvetica,sans-Serif" font-size="10.00">+hasEncoder</text>
<text text-anchor="middle" x="506" y="-669" font-family="Helvetica,sans-Serif" font-size="10.00">...</text>
</g>
</g>
</svg>
