<?xml version="1.0" encoding="UTF-8" standalone="no"?>
<!DOCTYPE svg PUBLIC "-//W3C//DTD SVG 1.1//EN"
 "http://www.w3.org/Graphics/SVG/1.1/DTD/svg11.dtd">
<!-- Generated by graphviz version 2.38.0 (20140413.2041)
 -->
<!-- Title: C:/Users/vashm/Documents/git/robotics&#45;prototype/robot/rover/ArmDriverUnit/DcMotor.h Pages: 1 -->
<svg width="248pt" height="173pt"
 viewBox="0.00 0.00 247.50 173.00" xmlns="http://www.w3.org/2000/svg" xmlns:xlink="http://www.w3.org/1999/xlink">
<g id="graph0" class="graph" transform="scale(1 1) rotate(0) translate(4 169)">
<title>C:/Users/vashm/Documents/git/robotics&#45;prototype/robot/rover/ArmDriverUnit/DcMotor.h</title>
<polygon fill="white" stroke="none" points="-4,4 -4,-169 243.5,-169 243.5,4 -4,4"/>
<!-- Node0 -->
<g id="node1" class="node"><title>Node0</title>
<polygon fill="#bfbfbf" stroke="black" points="47,-112.5 47,-164.5 185,-164.5 185,-112.5 47,-112.5"/>
<text text-anchor="start" x="55" y="-152.5" font-family="Helvetica,sans-Serif" font-size="10.00">C:/Users/vashm/Documents</text>
<text text-anchor="start" x="55" y="-141.5" font-family="Helvetica,sans-Serif" font-size="10.00">/git/robotics&#45;prototype</text>
<text text-anchor="start" x="55" y="-130.5" font-family="Helvetica,sans-Serif" font-size="10.00">/robot/rover/ArmDriverUnit</text>
<text text-anchor="middle" x="116" y="-119.5" font-family="Helvetica,sans-Serif" font-size="10.00">/DcMotor.h</text>
</g>
<!-- Node1 -->
<g id="node2" class="node"><title>Node1</title>
<polygon fill="white" stroke="#bfbfbf" points="0,-0.5 0,-19.5 58,-19.5 58,-0.5 0,-0.5"/>
<text text-anchor="middle" x="29" y="-7.5" font-family="Helvetica,sans-Serif" font-size="10.00">Arduino.h</text>
</g>
<!-- Node0&#45;&gt;Node1 -->
<g id="edge1" class="edge"><title>Node0&#45;&gt;Node1</title>
<path fill="none" stroke="midnightblue" d="M95.9768,-112.492C87.4064,-101.488 77.4482,-88.2932 69,-76 58.2356,-60.3363 46.9762,-41.8194 39.156,-28.564"/>
<polygon fill="midnightblue" stroke="midnightblue" points="41.9781,-26.4562 33.9113,-19.5876 35.9341,-29.9876 41.9781,-26.4562"/>
</g>
<!-- Node2 -->
<g id="node3" class="node"><title>Node2</title>
<g id="a_node3"><a xlink:href="PinSetup_8h.html" target="_top" xlink:title="PinSetup.h">
<polygon fill="white" stroke="black" points="174.5,-0.5 174.5,-19.5 239.5,-19.5 239.5,-0.5 174.5,-0.5"/>
<text text-anchor="middle" x="207" y="-7.5" font-family="Helvetica,sans-Serif" font-size="10.00">PinSetup.h</text>
</a>
</g>
</g>
<!-- Node0&#45;&gt;Node2 -->
<g id="edge2" class="edge"><title>Node0&#45;&gt;Node2</title>
<path fill="none" stroke="midnightblue" d="M135.234,-112.221C143.558,-101.17 153.354,-88.012 162,-76 173.485,-60.0442 186.205,-41.5949 195.183,-28.4374"/>
<polygon fill="midnightblue" stroke="midnightblue" points="198.258,-30.1403 200.988,-19.9033 192.47,-26.2034 198.258,-30.1403"/>
</g>
<!-- Node3 -->
<g id="node4" class="node"><title>Node3</title>
<g id="a_node4"><a xlink:href="RobotMotor_8h.html" target="_top" xlink:title="RobotMotor.h">
<polygon fill="white" stroke="black" points="78.5,-56.5 78.5,-75.5 153.5,-75.5 153.5,-56.5 78.5,-56.5"/>
<text text-anchor="middle" x="116" y="-63.5" font-family="Helvetica,sans-Serif" font-size="10.00">RobotMotor.h</text>
</a>
</g>
</g>
<!-- Node0&#45;&gt;Node3 -->
<g id="edge3" class="edge"><title>Node0&#45;&gt;Node3</title>
<path fill="none" stroke="midnightblue" d="M116,-112.446C116,-103.73 116,-94.1045 116,-85.9641"/>
<polygon fill="midnightblue" stroke="midnightblue" points="119.5,-85.6954 116,-75.6955 112.5,-85.6955 119.5,-85.6954"/>
</g>
<!-- Node3&#45;&gt;Node1 -->
<g id="edge4" class="edge"><title>Node3&#45;&gt;Node1</title>
<path fill="none" stroke="midnightblue" d="M102.022,-56.324C88.4504,-47.9002 67.6198,-34.9709 51.675,-25.0741"/>
<polygon fill="midnightblue" stroke="midnightblue" points="53.2856,-21.9544 42.9434,-19.6545 49.594,-27.9019 53.2856,-21.9544"/>
</g>
<!-- Node3&#45;&gt;Node2 -->
<g id="edge5" class="edge"><title>Node3&#45;&gt;Node2</title>
<path fill="none" stroke="midnightblue" d="M130.621,-56.324C144.949,-47.8215 167.013,-34.7288 183.749,-24.7975"/>
<polygon fill="midnightblue" stroke="midnightblue" points="185.602,-27.7677 192.416,-19.6545 182.03,-21.7478 185.602,-27.7677"/>
</g>
<!-- Node4 -->
<g id="node5" class="node"><title>Node4</title>
<g id="a_node5"><a xlink:href="PidController_8h.html" target="_top" xlink:title="PidController.h">
<polygon fill="white" stroke="black" points="76,-0.5 76,-19.5 156,-19.5 156,-0.5 76,-0.5"/>
<text text-anchor="middle" x="116" y="-7.5" font-family="Helvetica,sans-Serif" font-size="10.00">PidController.h</text>
</a>
</g>
</g>
<!-- Node3&#45;&gt;Node4 -->
<g id="edge6" class="edge"><title>Node3&#45;&gt;Node4</title>
<path fill="none" stroke="midnightblue" d="M116,-56.083C116,-49.0059 116,-38.8611 116,-29.9865"/>
<polygon fill="midnightblue" stroke="midnightblue" points="119.5,-29.751 116,-19.7511 112.5,-29.7511 119.5,-29.751"/>
</g>
</g>
</svg>
