<?xml version="1.0" encoding="UTF-8" standalone="no"?>
<!DOCTYPE svg PUBLIC "-//W3C//DTD SVG 1.1//EN"
 "http://www.w3.org/Graphics/SVG/1.1/DTD/svg11.dtd">
<!-- Generated by graphviz version 2.38.0 (20140413.2041)
 -->
<!-- Title: Graphical Class Hierarchy Pages: 1 -->
<svg width="186pt" height="104pt"
 viewBox="0.00 0.00 186.00 104.00" xmlns="http://www.w3.org/2000/svg" xmlns:xlink="http://www.w3.org/1999/xlink">
<g id="graph0" class="graph" transform="scale(1 1) rotate(0) translate(4 100)">
<title>Graphical Class Hierarchy</title>
<polygon fill="white" stroke="none" points="-4,4 -4,-100 182,-100 182,4 -4,4"/>
<!-- Node0 -->
<g id="node1" class="node"><title>Node0</title>
<g id="a_node1"><a xlink:href="classRobotMotor.html" target="_top" xlink:title="RobotMotor">
<polygon fill="white" stroke="black" points="0,-38.5 0,-57.5 67,-57.5 67,-38.5 0,-38.5"/>
<text text-anchor="middle" x="33.5" y="-45.5" font-family="Helvetica,sans-Serif" font-size="10.00">RobotMotor</text>
</a>
</g>
</g>
<!-- Node1 -->
<g id="node2" class="node"><title>Node1</title>
<g id="a_node2"><a xlink:href="classDcMotor.html" target="_top" xlink:title="DcMotor">
<polygon fill="white" stroke="black" points="114,-76.5 114,-95.5 167,-95.5 167,-76.5 114,-76.5"/>
<text text-anchor="middle" x="140.5" y="-83.5" font-family="Helvetica,sans-Serif" font-size="10.00">DcMotor</text>
</a>
</g>
</g>
<!-- Node0&#45;&gt;Node1 -->
<g id="edge1" class="edge"><title>Node0&#45;&gt;Node1</title>
<path fill="none" stroke="midnightblue" d="M70.491,-61.0253C84.706,-66.1698 100.719,-71.9649 113.738,-76.6768"/>
<polygon fill="midnightblue" stroke="midnightblue" points="71.5902,-57.701 60.9959,-57.589 69.208,-64.2832 71.5902,-57.701"/>
</g>
<!-- Node2 -->
<g id="node3" class="node"><title>Node2</title>
<g id="a_node3"><a xlink:href="classServoMotor.html" target="_top" xlink:title="ServoMotor">
<polygon fill="white" stroke="black" points="108,-38.5 108,-57.5 173,-57.5 173,-38.5 108,-38.5"/>
<text text-anchor="middle" x="140.5" y="-45.5" font-family="Helvetica,sans-Serif" font-size="10.00">ServoMotor</text>
</a>
</g>
</g>
<!-- Node0&#45;&gt;Node2 -->
<g id="edge2" class="edge"><title>Node0&#45;&gt;Node2</title>
<path fill="none" stroke="midnightblue" d="M77.1957,-48C87.479,-48 98.2827,-48 107.952,-48"/>
<polygon fill="midnightblue" stroke="midnightblue" points="77.1471,-44.5001 67.1471,-48 77.1471,-51.5001 77.1471,-44.5001"/>
</g>
<!-- Node3 -->
<g id="node4" class="node"><title>Node3</title>
<g id="a_node4"><a xlink:href="classStepperMotor.html" target="_top" xlink:title="StepperMotor">
<polygon fill="white" stroke="black" points="103,-0.5 103,-19.5 178,-19.5 178,-0.5 103,-0.5"/>
<text text-anchor="middle" x="140.5" y="-7.5" font-family="Helvetica,sans-Serif" font-size="10.00">StepperMotor</text>
</a>
</g>
</g>
<!-- Node0&#45;&gt;Node3 -->
<g id="edge3" class="edge"><title>Node0&#45;&gt;Node3</title>
<path fill="none" stroke="midnightblue" d="M70.7471,-34.882C84.6346,-29.8561 100.205,-24.2209 113.013,-19.5859"/>
<polygon fill="midnightblue" stroke="midnightblue" points="69.208,-31.7168 60.9959,-38.411 71.5902,-38.299 69.208,-31.7168"/>
</g>
</g>
</svg>
