<?xml version="1.0" encoding="UTF-8" standalone="no"?>
<!DOCTYPE svg PUBLIC "-//W3C//DTD SVG 1.1//EN"
 "http://www.w3.org/Graphics/SVG/1.1/DTD/svg11.dtd">
<!-- Generated by graphviz version 2.38.0 (20140413.2041)
 -->
<!-- Title: C:/Users/vashm/Documents/git/robotics&#45;prototype/robot/rover/ArmDriverUnit/Parser.h Pages: 1 -->
<svg width="248pt" height="173pt"
 viewBox="0.00 0.00 247.50 173.00" xmlns="http://www.w3.org/2000/svg" xmlns:xlink="http://www.w3.org/1999/xlink">
<g id="graph0" class="graph" transform="scale(1 1) rotate(0) translate(4 169)">
<title>C:/Users/vashm/Documents/git/robotics&#45;prototype/robot/rover/ArmDriverUnit/Parser.h</title>
<polygon fill="white" stroke="none" points="-4,4 -4,-169 243.5,-169 243.5,4 -4,4"/>
<!-- Node0 -->
<g id="node1" class="node"><title>Node0</title>
<polygon fill="#bfbfbf" stroke="black" points="2.5,-112.5 2.5,-164.5 140.5,-164.5 140.5,-112.5 2.5,-112.5"/>
<text text-anchor="start" x="10.5" y="-152.5" font-family="Helvetica,sans-Serif" font-size="10.00">C:/Users/vashm/Documents</text>
<text text-anchor="start" x="10.5" y="-141.5" font-family="Helvetica,sans-Serif" font-size="10.00">/git/robotics&#45;prototype</text>
<text text-anchor="start" x="10.5" y="-130.5" font-family="Helvetica,sans-Serif" font-size="10.00">/robot/rover/ArmDriverUnit</text>
<text text-anchor="middle" x="71.5" y="-119.5" font-family="Helvetica,sans-Serif" font-size="10.00">/Parser.h</text>
</g>
<!-- Node1 -->
<g id="node2" class="node"><title>Node1</title>
<g id="a_node2"><a xlink:href="PinSetup_8h.html" target="_top" xlink:title="PinSetup.h">
<polygon fill="white" stroke="black" points="0,-0.5 0,-19.5 65,-19.5 65,-0.5 0,-0.5"/>
<text text-anchor="middle" x="32.5" y="-7.5" font-family="Helvetica,sans-Serif" font-size="10.00">PinSetup.h</text>
</a>
</g>
</g>
<!-- Node0&#45;&gt;Node1 -->
<g id="edge1" class="edge"><title>Node0&#45;&gt;Node1</title>
<path fill="none" stroke="midnightblue" d="M63.7015,-112.205C56.1331,-87.656 44.8328,-51.0024 38.1108,-29.1991"/>
<polygon fill="midnightblue" stroke="midnightblue" points="41.4268,-28.0747 35.1359,-19.5497 34.7375,-30.1371 41.4268,-28.0747"/>
</g>
<!-- Node2 -->
<g id="node3" class="node"><title>Node2</title>
<g id="a_node3"><a xlink:href="RobotMotor_8h.html" target="_top" xlink:title="RobotMotor.h">
<polygon fill="white" stroke="black" points="71,-56.5 71,-75.5 146,-75.5 146,-56.5 71,-56.5"/>
<text text-anchor="middle" x="108.5" y="-63.5" font-family="Helvetica,sans-Serif" font-size="10.00">RobotMotor.h</text>
</a>
</g>
</g>
<!-- Node0&#45;&gt;Node2 -->
<g id="edge2" class="edge"><title>Node0&#45;&gt;Node2</title>
<path fill="none" stroke="midnightblue" d="M84.649,-112.446C89.4861,-103.229 94.8572,-92.9951 99.2759,-84.5757"/>
<polygon fill="midnightblue" stroke="midnightblue" points="102.388,-86.1766 103.936,-75.6955 96.1901,-82.9236 102.388,-86.1766"/>
</g>
<!-- Node2&#45;&gt;Node1 -->
<g id="edge4" class="edge"><title>Node2&#45;&gt;Node1</title>
<path fill="none" stroke="midnightblue" d="M96.2893,-56.324C84.7241,-48.1066 67.1246,-35.6017 53.3393,-25.8069"/>
<polygon fill="midnightblue" stroke="midnightblue" points="55.112,-22.7729 44.9329,-19.8339 51.0575,-28.4791 55.112,-22.7729"/>
</g>
<!-- Node3 -->
<g id="node4" class="node"><title>Node3</title>
<polygon fill="white" stroke="#bfbfbf" points="83.5,-0.5 83.5,-19.5 141.5,-19.5 141.5,-0.5 83.5,-0.5"/>
<text text-anchor="middle" x="112.5" y="-7.5" font-family="Helvetica,sans-Serif" font-size="10.00">Arduino.h</text>
</g>
<!-- Node2&#45;&gt;Node3 -->
<g id="edge3" class="edge"><title>Node2&#45;&gt;Node3</title>
<path fill="none" stroke="midnightblue" d="M109.161,-56.083C109.685,-49.0059 110.436,-38.8611 111.094,-29.9865"/>
<polygon fill="midnightblue" stroke="midnightblue" points="114.603,-29.9823 111.852,-19.7511 107.623,-29.4652 114.603,-29.9823"/>
</g>
<!-- Node4 -->
<g id="node5" class="node"><title>Node4</title>
<g id="a_node5"><a xlink:href="PidController_8h.html" target="_top" xlink:title="PidController.h">
<polygon fill="white" stroke="black" points="159.5,-0.5 159.5,-19.5 239.5,-19.5 239.5,-0.5 159.5,-0.5"/>
<text text-anchor="middle" x="199.5" y="-7.5" font-family="Helvetica,sans-Serif" font-size="10.00">PidController.h</text>
</a>
</g>
</g>
<!-- Node2&#45;&gt;Node4 -->
<g id="edge5" class="edge"><title>Node2&#45;&gt;Node4</title>
<path fill="none" stroke="midnightblue" d="M123.121,-56.324C137.449,-47.8215 159.513,-34.7288 176.249,-24.7975"/>
<polygon fill="midnightblue" stroke="midnightblue" points="178.102,-27.7677 184.916,-19.6545 174.53,-21.7478 178.102,-27.7677"/>
</g>
</g>
</svg>
