<?xml version="1.0" encoding="UTF-8" standalone="no"?>
<!DOCTYPE svg PUBLIC "-//W3C//DTD SVG 1.1//EN"
 "http://www.w3.org/Graphics/SVG/1.1/DTD/svg11.dtd">
<!-- Generated by graphviz version 2.38.0 (20140413.2041)
 -->
<!-- Title: C:/Users/vashm/Documents/git/robotics&#45;prototype/robot/rover/ArmDriverUnit/PidController.h Pages: 1 -->
<svg width="676pt" height="328pt"
 viewBox="0.00 0.00 675.91 328.00" xmlns="http://www.w3.org/2000/svg" xmlns:xlink="http://www.w3.org/1999/xlink">
<g id="graph0" class="graph" transform="scale(1 1) rotate(0) translate(4 324)">
<title>C:/Users/vashm/Documents/git/robotics&#45;prototype/robot/rover/ArmDriverUnit/PidController.h</title>
<polygon fill="white" stroke="none" points="-4,4 -4,-324 671.907,-324 671.907,4 -4,4"/>
<!-- Node1 -->
<g id="node1" class="node"><title>Node1</title>
<polygon fill="#bfbfbf" stroke="black" points="476,-267.5 476,-319.5 614,-319.5 614,-267.5 476,-267.5"/>
<text text-anchor="start" x="484" y="-307.5" font-family="Helvetica,sans-Serif" font-size="10.00">C:/Users/vashm/Documents</text>
<text text-anchor="start" x="484" y="-296.5" font-family="Helvetica,sans-Serif" font-size="10.00">/git/robotics&#45;prototype</text>
<text text-anchor="start" x="484" y="-285.5" font-family="Helvetica,sans-Serif" font-size="10.00">/robot/rover/ArmDriverUnit</text>
<text text-anchor="middle" x="545" y="-274.5" font-family="Helvetica,sans-Serif" font-size="10.00">/PidController.h</text>
</g>
<!-- Node2 -->
<g id="node2" class="node"><title>Node2</title>
<g id="a_node2"><a xlink:href="RobotMotor_8h.html" target="_top" xlink:title="C:/Users/vashm/Documents\l/git/robotics&#45;prototype\l/robot/rover/ArmDriverUnit\l/RobotMotor.h">
<polygon fill="white" stroke="black" points="272,-178.5 272,-230.5 410,-230.5 410,-178.5 272,-178.5"/>
<text text-anchor="start" x="280" y="-218.5" font-family="Helvetica,sans-Serif" font-size="10.00">C:/Users/vashm/Documents</text>
<text text-anchor="start" x="280" y="-207.5" font-family="Helvetica,sans-Serif" font-size="10.00">/git/robotics&#45;prototype</text>
<text text-anchor="start" x="280" y="-196.5" font-family="Helvetica,sans-Serif" font-size="10.00">/robot/rover/ArmDriverUnit</text>
<text text-anchor="middle" x="341" y="-185.5" font-family="Helvetica,sans-Serif" font-size="10.00">/RobotMotor.h</text>
</a>
</g>
</g>
<!-- Node1&#45;&gt;Node2 -->
<g id="edge1" class="edge"><title>Node1&#45;&gt;Node2</title>
<path fill="none" stroke="midnightblue" d="M476.849,-263.436C451.842,-252.771 423.773,-240.8 399.67,-230.521"/>
<polygon fill="midnightblue" stroke="midnightblue" points="475.697,-266.749 486.268,-267.453 478.443,-260.31 475.697,-266.749"/>
</g>
<!-- Node4 -->
<g id="node4" class="node"><title>Node4</title>
<g id="a_node4"><a xlink:href="ArmDriverUnit_8ino.html" target="_top" xlink:title="C:/Users/vashm/Documents\l/git/robotics&#45;prototype\l/robot/rover/ArmDriverUnit\l/ArmDriverUnit.ino">
<polygon fill="white" stroke="black" points="272,-0.5 272,-52.5 410,-52.5 410,-0.5 272,-0.5"/>
<text text-anchor="start" x="280" y="-40.5" font-family="Helvetica,sans-Serif" font-size="10.00">C:/Users/vashm/Documents</text>
<text text-anchor="start" x="280" y="-29.5" font-family="Helvetica,sans-Serif" font-size="10.00">/git/robotics&#45;prototype</text>
<text text-anchor="start" x="280" y="-18.5" font-family="Helvetica,sans-Serif" font-size="10.00">/robot/rover/ArmDriverUnit</text>
<text text-anchor="middle" x="341" y="-7.5" font-family="Helvetica,sans-Serif" font-size="10.00">/ArmDriverUnit.ino</text>
</a>
</g>
</g>
<!-- Node1&#45;&gt;Node4 -->
<g id="edge11" class="edge"><title>Node1&#45;&gt;Node4</title>
<path fill="none" stroke="midnightblue" d="M583.749,-260.689C630.474,-218.521 697.513,-143.144 653,-89 622.891,-52.3771 492.75,-37.2132 410.351,-31.1989"/>
<polygon fill="midnightblue" stroke="midnightblue" points="581.323,-258.162 576.158,-267.413 585.964,-263.403 581.323,-258.162"/>
</g>
<!-- Node3 -->
<g id="node3" class="node"><title>Node3</title>
<g id="a_node3"><a xlink:href="Parser_8h.html" target="_top" xlink:title="C:/Users/vashm/Documents\l/git/robotics&#45;prototype\l/robot/rover/ArmDriverUnit\l/Parser.h">
<polygon fill="white" stroke="black" points="0,-89.5 0,-141.5 138,-141.5 138,-89.5 0,-89.5"/>
<text text-anchor="start" x="8" y="-129.5" font-family="Helvetica,sans-Serif" font-size="10.00">C:/Users/vashm/Documents</text>
<text text-anchor="start" x="8" y="-118.5" font-family="Helvetica,sans-Serif" font-size="10.00">/git/robotics&#45;prototype</text>
<text text-anchor="start" x="8" y="-107.5" font-family="Helvetica,sans-Serif" font-size="10.00">/robot/rover/ArmDriverUnit</text>
<text text-anchor="middle" x="69" y="-96.5" font-family="Helvetica,sans-Serif" font-size="10.00">/Parser.h</text>
</a>
</g>
</g>
<!-- Node2&#45;&gt;Node3 -->
<g id="edge2" class="edge"><title>Node2&#45;&gt;Node3</title>
<path fill="none" stroke="midnightblue" d="M261.882,-178.194C222.736,-165.673 175.92,-150.699 138.214,-138.638"/>
<polygon fill="midnightblue" stroke="midnightblue" points="261.068,-181.608 271.659,-181.321 263.201,-174.941 261.068,-181.608"/>
</g>
<!-- Node2&#45;&gt;Node4 -->
<g id="edge4" class="edge"><title>Node2&#45;&gt;Node4</title>
<path fill="none" stroke="midnightblue" d="M262.087,-191.509C232.861,-182.821 202.587,-167.838 185,-142 171.746,-122.527 171.746,-108.473 185,-89 204.575,-60.2412 239.868,-44.9306 271.938,-36.7796"/>
<polygon fill="midnightblue" stroke="midnightblue" points="261.368,-194.941 271.938,-194.22 263.225,-188.192 261.368,-194.941"/>
</g>
<!-- Node5 -->
<g id="node5" class="node"><title>Node5</title>
<g id="a_node5"><a xlink:href="StepperMotor_8h.html" target="_top" xlink:title="C:/Users/vashm/Documents\l/git/robotics&#45;prototype\l/robot/rover/ArmDriverUnit\l/StepperMotor.h">
<polygon fill="white" stroke="black" points="194,-89.5 194,-141.5 332,-141.5 332,-89.5 194,-89.5"/>
<text text-anchor="start" x="202" y="-129.5" font-family="Helvetica,sans-Serif" font-size="10.00">C:/Users/vashm/Documents</text>
<text text-anchor="start" x="202" y="-118.5" font-family="Helvetica,sans-Serif" font-size="10.00">/git/robotics&#45;prototype</text>
<text text-anchor="start" x="202" y="-107.5" font-family="Helvetica,sans-Serif" font-size="10.00">/robot/rover/ArmDriverUnit</text>
<text text-anchor="middle" x="263" y="-96.5" font-family="Helvetica,sans-Serif" font-size="10.00">/StepperMotor.h</text>
</a>
</g>
</g>
<!-- Node2&#45;&gt;Node5 -->
<g id="edge5" class="edge"><title>Node2&#45;&gt;Node5</title>
<path fill="none" stroke="midnightblue" d="M311.674,-170.79C303.012,-161.129 293.671,-150.71 285.51,-141.607"/>
<polygon fill="midnightblue" stroke="midnightblue" points="309.158,-173.227 318.439,-178.336 314.37,-168.554 309.158,-173.227"/>
</g>
<!-- Node6 -->
<g id="node6" class="node"><title>Node6</title>
<g id="a_node6"><a xlink:href="DcMotor_8h.html" target="_top" xlink:title="C:/Users/vashm/Documents\l/git/robotics&#45;prototype\l/robot/rover/ArmDriverUnit\l/DcMotor.h">
<polygon fill="white" stroke="black" points="350,-89.5 350,-141.5 488,-141.5 488,-89.5 350,-89.5"/>
<text text-anchor="start" x="358" y="-129.5" font-family="Helvetica,sans-Serif" font-size="10.00">C:/Users/vashm/Documents</text>
<text text-anchor="start" x="358" y="-118.5" font-family="Helvetica,sans-Serif" font-size="10.00">/git/robotics&#45;prototype</text>
<text text-anchor="start" x="358" y="-107.5" font-family="Helvetica,sans-Serif" font-size="10.00">/robot/rover/ArmDriverUnit</text>
<text text-anchor="middle" x="419" y="-96.5" font-family="Helvetica,sans-Serif" font-size="10.00">/DcMotor.h</text>
</a>
</g>
</g>
<!-- Node2&#45;&gt;Node6 -->
<g id="edge7" class="edge"><title>Node2&#45;&gt;Node6</title>
<path fill="none" stroke="midnightblue" d="M370.326,-170.79C378.988,-161.129 388.329,-150.71 396.49,-141.607"/>
<polygon fill="midnightblue" stroke="midnightblue" points="367.63,-168.554 363.561,-178.336 372.842,-173.227 367.63,-168.554"/>
</g>
<!-- Node7 -->
<g id="node7" class="node"><title>Node7</title>
<g id="a_node7"><a xlink:href="ServoMotor_8h.html" target="_top" xlink:title="C:/Users/vashm/Documents\l/git/robotics&#45;prototype\l/robot/rover/ArmDriverUnit\l/ServoMotor.h">
<polygon fill="white" stroke="black" points="506,-89.5 506,-141.5 644,-141.5 644,-89.5 506,-89.5"/>
<text text-anchor="start" x="514" y="-129.5" font-family="Helvetica,sans-Serif" font-size="10.00">C:/Users/vashm/Documents</text>
<text text-anchor="start" x="514" y="-118.5" font-family="Helvetica,sans-Serif" font-size="10.00">/git/robotics&#45;prototype</text>
<text text-anchor="start" x="514" y="-107.5" font-family="Helvetica,sans-Serif" font-size="10.00">/robot/rover/ArmDriverUnit</text>
<text text-anchor="middle" x="575" y="-96.5" font-family="Helvetica,sans-Serif" font-size="10.00">/ServoMotor.h</text>
</a>
</g>
</g>
<!-- Node2&#45;&gt;Node7 -->
<g id="edge9" class="edge"><title>Node2&#45;&gt;Node7</title>
<path fill="none" stroke="midnightblue" d="M418.038,-174.858C447.006,-164.087 479.689,-151.936 507.702,-141.521"/>
<polygon fill="midnightblue" stroke="midnightblue" points="416.522,-171.687 408.369,-178.453 418.961,-178.248 416.522,-171.687"/>
</g>
<!-- Node3&#45;&gt;Node4 -->
<g id="edge3" class="edge"><title>Node3&#45;&gt;Node4</title>
<path fill="none" stroke="midnightblue" d="M148.118,-89.1939C187.264,-76.6728 234.08,-61.6986 271.786,-49.6384"/>
<polygon fill="midnightblue" stroke="midnightblue" points="146.799,-85.9409 138.341,-92.3211 148.932,-92.6082 146.799,-85.9409"/>
</g>
<!-- Node5&#45;&gt;Node4 -->
<g id="edge6" class="edge"><title>Node5&#45;&gt;Node4</title>
<path fill="none" stroke="midnightblue" d="M292.326,-81.79C300.988,-72.1288 310.329,-61.7097 318.49,-52.6075"/>
<polygon fill="midnightblue" stroke="midnightblue" points="289.63,-79.5539 285.561,-89.336 294.842,-84.2267 289.63,-79.5539"/>
</g>
<!-- Node6&#45;&gt;Node4 -->
<g id="edge8" class="edge"><title>Node6&#45;&gt;Node4</title>
<path fill="none" stroke="midnightblue" d="M389.674,-81.79C381.012,-72.1288 371.671,-61.7097 363.51,-52.6075"/>
<polygon fill="midnightblue" stroke="midnightblue" points="387.158,-84.2267 396.439,-89.336 392.37,-79.5539 387.158,-84.2267"/>
</g>
<!-- Node7&#45;&gt;Node4 -->
<g id="edge10" class="edge"><title>Node7&#45;&gt;Node4</title>
<path fill="none" stroke="midnightblue" d="M497.962,-85.8577C468.994,-75.0875 436.311,-62.9363 408.298,-52.5211"/>
<polygon fill="midnightblue" stroke="midnightblue" points="497.039,-89.2484 507.631,-89.4527 499.478,-82.6872 497.039,-89.2484"/>
</g>
</g>
</svg>
