<?xml version="1.0" encoding="UTF-8" standalone="no"?>
<!DOCTYPE svg PUBLIC "-//W3C//DTD SVG 1.1//EN"
 "http://www.w3.org/Graphics/SVG/1.1/DTD/svg11.dtd">
<!-- Generated by graphviz version 2.38.0 (20140413.2041)
 -->
<!-- Title: C:/Users/vashm/Documents/git/robotics&#45;prototype/robot/rover/ArmDriverUnit/PinSetup.h Pages: 1 -->
<!--zoomable 328 -->
<svg id="main" version="1.1" xmlns="http://www.w3.org/2000/svg" xmlns:xlink="http://www.w3.org/1999/xlink" xml:space="preserve" onload="init(evt)">
<style type="text/css"><![CDATA[
.edge:hover path { stroke: red; }
.edge:hover polygon { stroke: red; fill: red; }
]]></style>
<script type="text/javascript"><![CDATA[
var edges = document.getElementsByTagName('g');
if (edges && edges.length) {
  for (var i=0;i<edges.length;i++) {
    if (edges[i].id.substr(0,4)=='edge') {
      edges[i].setAttribute('class','edge');
    }
  }
}
]]></script>
        <defs>
                <circle id="rim" cx="0" cy="0" r="7"/>
                <circle id="rim2" cx="0" cy="0" r="3.5"/>
                <g id="zoomPlus">
                        <use xlink:href="#rim" fill="#404040">
                                <set attributeName="fill" to="#808080" begin="zoomplus.mouseover" end="zoomplus.mouseout"/>
                        </use>
                        <path d="M-4,0h8M0,-4v8" fill="none" stroke="white" stroke-width="1.5" pointer-events="none"/>
                </g>
                <g id="zoomMin">
                        <use xlink:href="#rim" fill="#404040">
                                <set attributeName="fill" to="#808080" begin="zoomminus.mouseover" end="zoomminus.mouseout"/>
                        </use>
                        <path d="M-4,0h8" fill="none" stroke="white" stroke-width="1.5" pointer-events="none"/>
                </g>
                <g id="dirArrow">
                        <path fill="none" stroke="white" stroke-width="1.5" d="M0,-3.0v7 M-2.5,-0.5L0,-3.0L2.5,-0.5"/>
                </g>
               <g id="resetDef">
                       <use xlink:href="#rim2" fill="#404040">
                               <set attributeName="fill" to="#808080" begin="reset.mouseover" end="reset.mouseout"/>
                       </use>
               </g>
        </defs>

<script type="text/javascript">
var viewWidth = 671;
var viewHeight = 328;
var sectionId = 'dynsection-0';
</script>
<script xlink:href="svgpan.js"/>
<svg id="graph" class="graph">
<g id="viewport">
<title>C:/Users/vashm/Documents/git/robotics&#45;prototype/robot/rover/ArmDriverUnit/PinSetup.h</title>
<polygon fill="white" stroke="none" points="-4,4 -4,-324 667.152,-324 667.152,4 -4,4"/>
<!-- Node1 -->
<g id="node1" class="node"><title>Node1</title>
<polygon fill="#bfbfbf" stroke="black" points="272.152,-267.5 272.152,-319.5 410.152,-319.5 410.152,-267.5 272.152,-267.5"/>
<text text-anchor="start" x="280.152" y="-307.5" font-family="Helvetica,sans-Serif" font-size="10.00">C:/Users/vashm/Documents</text>
<text text-anchor="start" x="280.152" y="-296.5" font-family="Helvetica,sans-Serif" font-size="10.00">/git/robotics&#45;prototype</text>
<text text-anchor="start" x="280.152" y="-285.5" font-family="Helvetica,sans-Serif" font-size="10.00">/robot/rover/ArmDriverUnit</text>
<text text-anchor="middle" x="341.152" y="-274.5" font-family="Helvetica,sans-Serif" font-size="10.00">/PinSetup.h</text>
</g>
<!-- Node2 -->
<g id="node2" class="node"><title>Node2</title>
<g id="a_node2"><a xlink:href="ArmDriverUnit_8ino.html" target="_top" xlink:title="C:/Users/vashm/Documents\l/git/robotics&#45;prototype\l/robot/rover/ArmDriverUnit\l/ArmDriverUnit.ino">
<polygon fill="white" stroke="black" points="223.152,-0.5 223.152,-52.5 361.152,-52.5 361.152,-0.5 223.152,-0.5"/>
<text text-anchor="start" x="231.152" y="-40.5" font-family="Helvetica,sans-Serif" font-size="10.00">C:/Users/vashm/Documents</text>
<text text-anchor="start" x="231.152" y="-29.5" font-family="Helvetica,sans-Serif" font-size="10.00">/git/robotics&#45;prototype</text>
<text text-anchor="start" x="231.152" y="-18.5" font-family="Helvetica,sans-Serif" font-size="10.00">/robot/rover/ArmDriverUnit</text>
<text text-anchor="middle" x="292.152" y="-7.5" font-family="Helvetica,sans-Serif" font-size="10.00">/ArmDriverUnit.ino</text>
</a>
</g>
</g>
<!-- Node1&#45;&gt;Node2 -->
<g id="edge1" class="edge"><title>Node1&#45;&gt;Node2</title>
<path fill="none" stroke="midnightblue" d="M261.938,-282.543C181.488,-267.619 61.6389,-230.934 10.1524,-142 -1.64953,-121.614 -4.62315,-107.345 10.1524,-89 36.3979,-56.4139 148.407,-40.171 223.116,-32.8156"/>
<polygon fill="midnightblue" stroke="midnightblue" points="261.577,-286.034 272.036,-284.341 262.804,-279.142 261.577,-286.034"/>
</g>
<!-- Node3 -->
<g id="node3" class="node"><title>Node3</title>
<g id="a_node3"><a xlink:href="Parser_8h.html" target="_top" xlink:title="C:/Users/vashm/Documents\l/git/robotics&#45;prototype\l/robot/rover/ArmDriverUnit\l/Parser.h">
<polygon fill="white" stroke="black" points="19.1524,-89.5 19.1524,-141.5 157.152,-141.5 157.152,-89.5 19.1524,-89.5"/>
<text text-anchor="start" x="27.1524" y="-129.5" font-family="Helvetica,sans-Serif" font-size="10.00">C:/Users/vashm/Documents</text>
<text text-anchor="start" x="27.1524" y="-118.5" font-family="Helvetica,sans-Serif" font-size="10.00">/git/robotics&#45;prototype</text>
<text text-anchor="start" x="27.1524" y="-107.5" font-family="Helvetica,sans-Serif" font-size="10.00">/robot/rover/ArmDriverUnit</text>
<text text-anchor="middle" x="88.1524" y="-96.5" font-family="Helvetica,sans-Serif" font-size="10.00">/Parser.h</text>
</a>
</g>
</g>
<!-- Node1&#45;&gt;Node3 -->
<g id="edge2" class="edge"><title>Node1&#45;&gt;Node3</title>
<path fill="none" stroke="midnightblue" d="M289.817,-261.737C274.327,-252.154 257.394,-241.374 242.152,-231 199.049,-201.663 151.093,-165.404 120.326,-141.65"/>
<polygon fill="midnightblue" stroke="midnightblue" points="288.396,-264.971 298.747,-267.229 292.063,-259.009 288.396,-264.971"/>
</g>
<!-- Node4 -->
<g id="node4" class="node"><title>Node4</title>
<g id="a_node4"><a xlink:href="RobotMotor_8h.html" target="_top" xlink:title="C:/Users/vashm/Documents\l/git/robotics&#45;prototype\l/robot/rover/ArmDriverUnit\l/RobotMotor.h">
<polygon fill="white" stroke="black" points="272.152,-178.5 272.152,-230.5 410.152,-230.5 410.152,-178.5 272.152,-178.5"/>
<text text-anchor="start" x="280.152" y="-218.5" font-family="Helvetica,sans-Serif" font-size="10.00">C:/Users/vashm/Documents</text>
<text text-anchor="start" x="280.152" y="-207.5" font-family="Helvetica,sans-Serif" font-size="10.00">/git/robotics&#45;prototype</text>
<text text-anchor="start" x="280.152" y="-196.5" font-family="Helvetica,sans-Serif" font-size="10.00">/robot/rover/ArmDriverUnit</text>
<text text-anchor="middle" x="341.152" y="-185.5" font-family="Helvetica,sans-Serif" font-size="10.00">/RobotMotor.h</text>
</a>
</g>
</g>
<!-- Node1&#45;&gt;Node4 -->
<g id="edge4" class="edge"><title>Node1&#45;&gt;Node4</title>
<path fill="none" stroke="midnightblue" d="M341.152,-257.191C341.152,-248.282 341.152,-238.899 341.152,-230.607"/>
<polygon fill="midnightblue" stroke="midnightblue" points="337.653,-257.336 341.152,-267.336 344.653,-257.336 337.653,-257.336"/>
</g>
<!-- Node5 -->
<g id="node5" class="node"><title>Node5</title>
<g id="a_node5"><a xlink:href="StepperMotor_8h.html" target="_top" xlink:title="C:/Users/vashm/Documents\l/git/robotics&#45;prototype\l/robot/rover/ArmDriverUnit\l/StepperMotor.h">
<polygon fill="white" stroke="black" points="175.152,-89.5 175.152,-141.5 313.152,-141.5 313.152,-89.5 175.152,-89.5"/>
<text text-anchor="start" x="183.152" y="-129.5" font-family="Helvetica,sans-Serif" font-size="10.00">C:/Users/vashm/Documents</text>
<text text-anchor="start" x="183.152" y="-118.5" font-family="Helvetica,sans-Serif" font-size="10.00">/git/robotics&#45;prototype</text>
<text text-anchor="start" x="183.152" y="-107.5" font-family="Helvetica,sans-Serif" font-size="10.00">/robot/rover/ArmDriverUnit</text>
<text text-anchor="middle" x="244.152" y="-96.5" font-family="Helvetica,sans-Serif" font-size="10.00">/StepperMotor.h</text>
</a>
</g>
</g>
<!-- Node1&#45;&gt;Node5 -->
<g id="edge13" class="edge"><title>Node1&#45;&gt;Node5</title>
<path fill="none" stroke="midnightblue" d="M290.106,-261.21C279.732,-252.628 269.934,-242.475 263.152,-231 246.954,-203.592 243.513,-166.4 243.252,-141.942"/>
<polygon fill="midnightblue" stroke="midnightblue" points="288.075,-264.065 298.111,-267.463 292.385,-258.548 288.075,-264.065"/>
</g>
<!-- Node6 -->
<g id="node6" class="node"><title>Node6</title>
<g id="a_node6"><a xlink:href="DcMotor_8h.html" target="_top" xlink:title="C:/Users/vashm/Documents\l/git/robotics&#45;prototype\l/robot/rover/ArmDriverUnit\l/DcMotor.h">
<polygon fill="white" stroke="black" points="369.152,-89.5 369.152,-141.5 507.152,-141.5 507.152,-89.5 369.152,-89.5"/>
<text text-anchor="start" x="377.152" y="-129.5" font-family="Helvetica,sans-Serif" font-size="10.00">C:/Users/vashm/Documents</text>
<text text-anchor="start" x="377.152" y="-118.5" font-family="Helvetica,sans-Serif" font-size="10.00">/git/robotics&#45;prototype</text>
<text text-anchor="start" x="377.152" y="-107.5" font-family="Helvetica,sans-Serif" font-size="10.00">/robot/rover/ArmDriverUnit</text>
<text text-anchor="middle" x="438.152" y="-96.5" font-family="Helvetica,sans-Serif" font-size="10.00">/DcMotor.h</text>
</a>
</g>
</g>
<!-- Node1&#45;&gt;Node6 -->
<g id="edge14" class="edge"><title>Node1&#45;&gt;Node6</title>
<path fill="none" stroke="midnightblue" d="M392.199,-261.21C402.573,-252.628 412.37,-242.475 419.152,-231 435.351,-203.592 438.792,-166.4 439.053,-141.942"/>
<polygon fill="midnightblue" stroke="midnightblue" points="389.92,-258.548 384.194,-267.463 394.229,-264.065 389.92,-258.548"/>
</g>
<!-- Node7 -->
<g id="node7" class="node"><title>Node7</title>
<g id="a_node7"><a xlink:href="ServoMotor_8h.html" target="_top" xlink:title="C:/Users/vashm/Documents\l/git/robotics&#45;prototype\l/robot/rover/ArmDriverUnit\l/ServoMotor.h">
<polygon fill="white" stroke="black" points="525.152,-89.5 525.152,-141.5 663.152,-141.5 663.152,-89.5 525.152,-89.5"/>
<text text-anchor="start" x="533.152" y="-129.5" font-family="Helvetica,sans-Serif" font-size="10.00">C:/Users/vashm/Documents</text>
<text text-anchor="start" x="533.152" y="-118.5" font-family="Helvetica,sans-Serif" font-size="10.00">/git/robotics&#45;prototype</text>
<text text-anchor="start" x="533.152" y="-107.5" font-family="Helvetica,sans-Serif" font-size="10.00">/robot/rover/ArmDriverUnit</text>
<text text-anchor="middle" x="594.152" y="-96.5" font-family="Helvetica,sans-Serif" font-size="10.00">/ServoMotor.h</text>
</a>
</g>
</g>
<!-- Node1&#45;&gt;Node7 -->
<g id="edge15" class="edge"><title>Node1&#45;&gt;Node7</title>
<path fill="none" stroke="midnightblue" d="M395.474,-262.141C410.722,-252.816 426.994,-242.073 441.152,-231 467.642,-210.283 468.71,-198.776 495.152,-178 511.858,-164.874 531.515,-152.17 548.891,-141.749"/>
<polygon fill="midnightblue" stroke="midnightblue" points="393.401,-259.304 386.638,-267.46 397.011,-265.302 393.401,-259.304"/>
</g>
<!-- Node8 -->
<g id="node8" class="node"><title>Node8</title>
<g id="a_node8"><a xlink:href="PinSetup_8cpp.html" target="_top" xlink:title="C:/Users/vashm/Documents\l/git/robotics&#45;prototype\l/robot/rover/ArmDriverUnit\l/PinSetup.cpp">
<polygon fill="white" stroke="black" points="504.152,-178.5 504.152,-230.5 642.152,-230.5 642.152,-178.5 504.152,-178.5"/>
<text text-anchor="start" x="512.152" y="-218.5" font-family="Helvetica,sans-Serif" font-size="10.00">C:/Users/vashm/Documents</text>
<text text-anchor="start" x="512.152" y="-207.5" font-family="Helvetica,sans-Serif" font-size="10.00">/git/robotics&#45;prototype</text>
<text text-anchor="start" x="512.152" y="-196.5" font-family="Helvetica,sans-Serif" font-size="10.00">/robot/rover/ArmDriverUnit</text>
<text text-anchor="middle" x="573.152" y="-185.5" font-family="Helvetica,sans-Serif" font-size="10.00">/PinSetup.cpp</text>
</a>
</g>
</g>
<!-- Node1&#45;&gt;Node8 -->
<g id="edge16" class="edge"><title>Node1&#45;&gt;Node8</title>
<path fill="none" stroke="midnightblue" d="M417.532,-263.858C446.252,-253.087 478.656,-240.936 506.43,-230.521"/>
<polygon fill="midnightblue" stroke="midnightblue" points="416.08,-260.664 407.945,-267.453 418.537,-267.219 416.08,-260.664"/>
</g>
<!-- Node3&#45;&gt;Node2 -->
<g id="edge3" class="edge"><title>Node3&#45;&gt;Node2</title>
<path fill="none" stroke="midnightblue" d="M156.304,-85.4355C181.311,-74.7708 209.379,-62.8004 233.482,-52.5211"/>
<polygon fill="midnightblue" stroke="midnightblue" points="154.709,-82.3103 146.884,-89.4527 157.455,-88.7492 154.709,-82.3103"/>
</g>
<!-- Node4&#45;&gt;Node2 -->
<g id="edge6" class="edge"><title>Node4&#45;&gt;Node2</title>
<path fill="none" stroke="midnightblue" d="M337.995,-168.453C335.28,-145.464 330.446,-114.967 322.152,-89 318.177,-76.5518 312.079,-63.4465 306.416,-52.547"/>
<polygon fill="midnightblue" stroke="midnightblue" points="334.521,-168.887 339.098,-178.443 341.479,-168.119 334.521,-168.887"/>
</g>
<!-- Node4&#45;&gt;Node3 -->
<g id="edge5" class="edge"><title>Node4&#45;&gt;Node3</title>
<path fill="none" stroke="midnightblue" d="M262.221,-176.358C228.579,-164.789 189.683,-151.414 157.202,-140.244"/>
<polygon fill="midnightblue" stroke="midnightblue" points="261.424,-179.785 272.019,-179.727 263.701,-173.165 261.424,-179.785"/>
</g>
<!-- Node4&#45;&gt;Node5 -->
<g id="edge7" class="edge"><title>Node4&#45;&gt;Node5</title>
<path fill="none" stroke="midnightblue" d="M305.64,-171.649C294.602,-161.749 282.596,-150.98 272.146,-141.607"/>
<polygon fill="midnightblue" stroke="midnightblue" points="303.315,-174.265 313.096,-178.336 307.989,-169.054 303.315,-174.265"/>
</g>
<!-- Node4&#45;&gt;Node6 -->
<g id="edge9" class="edge"><title>Node4&#45;&gt;Node6</title>
<path fill="none" stroke="midnightblue" d="M376.665,-171.649C387.702,-161.749 399.709,-150.98 410.159,-141.607"/>
<polygon fill="midnightblue" stroke="midnightblue" points="374.316,-169.054 369.209,-178.336 378.99,-174.265 374.316,-169.054"/>
</g>
<!-- Node4&#45;&gt;Node7 -->
<g id="edge11" class="edge"><title>Node4&#45;&gt;Node7</title>
<path fill="none" stroke="midnightblue" d="M420.084,-176.358C453.726,-164.789 492.622,-151.414 525.103,-140.244"/>
<polygon fill="midnightblue" stroke="midnightblue" points="418.604,-173.165 410.286,-179.727 420.88,-179.785 418.604,-173.165"/>
</g>
<!-- Node5&#45;&gt;Node2 -->
<g id="edge8" class="edge"><title>Node5&#45;&gt;Node2</title>
<path fill="none" stroke="midnightblue" d="M262.994,-80.3499C268.097,-71.1005 273.527,-61.2591 278.3,-52.6075"/>
<polygon fill="midnightblue" stroke="midnightblue" points="259.802,-78.8894 258.036,-89.336 265.931,-82.271 259.802,-78.8894"/>
</g>
<!-- Node6&#45;&gt;Node2 -->
<g id="edge10" class="edge"><title>Node6&#45;&gt;Node2</title>
<path fill="none" stroke="midnightblue" d="M387.087,-84.0705C369.831,-73.7877 350.772,-62.4307 334.287,-52.6075"/>
<polygon fill="midnightblue" stroke="midnightblue" points="385.541,-87.2236 395.923,-89.336 389.124,-81.2103 385.541,-87.2236"/>
</g>
<!-- Node7&#45;&gt;Node2 -->
<g id="edge12" class="edge"><title>Node7&#45;&gt;Node2</title>
<path fill="none" stroke="midnightblue" d="M515.009,-88.7035C458.215,-71.7601 403.466,-56.7986 361.52,-45.6245"/>
<polygon fill="midnightblue" stroke="midnightblue" points="514.3,-92.1448 524.884,-91.6636 516.31,-85.4396 514.3,-92.1448"/>
</g>
</g>
</svg>
        <g id="navigator" transform="translate(0 0)" fill="#404254">
                <rect fill="#f2f5e9" fill-opacity="0.5" stroke="#606060" stroke-width=".5" x="0" y="0" width="60" height="60"/>
                <use id="zoomplus" xlink:href="#zoomPlus" x="17" y="9" onmousedown="handleZoom(evt,'in')"/>
                <use id="zoomminus" xlink:href="#zoomMin" x="42" y="9" onmousedown="handleZoom(evt,'out')"/>
                <use id="reset" xlink:href="#resetDef" x="30" y="36" onmousedown="handleReset()"/>
                <g id="arrowUp" xlink:href="#dirArrow" transform="translate(30 24)" onmousedown="handlePan(0,-1)">
                  <use xlink:href="#rim" fill="#404040">
                        <set attributeName="fill" to="#808080" begin="arrowUp.mouseover" end="arrowUp.mouseout"/>
                  </use>
                  <path fill="none" stroke="white" stroke-width="1.5" d="M0,-3.0v7 M-2.5,-0.5L0,-3.0L2.5,-0.5"/>
                </g>
                <g id="arrowRight" xlink:href="#dirArrow" transform="rotate(90) translate(36 -43)" onmousedown="handlePan(1,0)">
                  <use xlink:href="#rim" fill="#404040">
                        <set attributeName="fill" to="#808080" begin="arrowRight.mouseover" end="arrowRight.mouseout"/>
                  </use>
                  <path fill="none" stroke="white" stroke-width="1.5" d="M0,-3.0v7 M-2.5,-0.5L0,-3.0L2.5,-0.5"/>
                </g>
                <g id="arrowDown" xlink:href="#dirArrow" transform="rotate(180) translate(-30 -48)" onmousedown="handlePan(0,1)">
                  <use xlink:href="#rim" fill="#404040">
                        <set attributeName="fill" to="#808080" begin="arrowDown.mouseover" end="arrowDown.mouseout"/>
                  </use>
                  <path fill="none" stroke="white" stroke-width="1.5" d="M0,-3.0v7 M-2.5,-0.5L0,-3.0L2.5,-0.5"/>
                </g>
                <g id="arrowLeft" xlink:href="#dirArrow" transform="rotate(270) translate(-36 17)" onmousedown="handlePan(-1,0)">
                  <use xlink:href="#rim" fill="#404040">
                        <set attributeName="fill" to="#808080" begin="arrowLeft.mouseover" end="arrowLeft.mouseout"/>
                  </use>
                  <path fill="none" stroke="white" stroke-width="1.5" d="M0,-3.0v7 M-2.5,-0.5L0,-3.0L2.5,-0.5"/>
                </g>
        </g>
        <svg viewBox="0 0 15 15" width="100%" height="30px" preserveAspectRatio="xMaxYMin meet">
         <g id="arrow_out" transform="scale(0.3 0.3)">
          <a xlink:href="PinSetup_8h__dep__incl_org.svg" target="_base">
           <rect id="button" ry="5" rx="5" y="6" x="6" height="38" width="38"
                fill="#f2f5e9" fill-opacity="0.5" stroke="#606060" stroke-width="1.0"/>
           <path id="arrow"
             d="M 11.500037,31.436501 C 11.940474,20.09759 22.043105,11.32322 32.158766,21.979434 L 37.068811,17.246167 C 37.068811,17.246167 37.088388,32 37.088388,32 L 22.160133,31.978069 C 22.160133,31.978069 26.997745,27.140456 26.997745,27.140456 C 18.528582,18.264221 13.291696,25.230495 11.500037,31.436501 z"
             style="fill:#404040;"/>
          </a>
         </g>
        </svg>
</svg>
