<?xml version="1.0" encoding="UTF-8" standalone="no"?>
<!DOCTYPE svg PUBLIC "-//W3C//DTD SVG 1.1//EN"
 "http://www.w3.org/Graphics/SVG/1.1/DTD/svg11.dtd">
<!-- Generated by graphviz version 2.38.0 (20140413.2041)
 -->
<!-- Title: C:/Users/vashm/Documents/git/robotics&#45;prototype/robot/rover/ArmDriverUnit/RobotMotor.h Pages: 1 -->
<svg width="248pt" height="117pt"
 viewBox="0.00 0.00 248.00 117.00" xmlns="http://www.w3.org/2000/svg" xmlns:xlink="http://www.w3.org/1999/xlink">
<g id="graph0" class="graph" transform="scale(1 1) rotate(0) translate(4 113)">
<title>C:/Users/vashm/Documents/git/robotics&#45;prototype/robot/rover/ArmDriverUnit/RobotMotor.h</title>
<polygon fill="white" stroke="none" points="-4,4 -4,-113 244,-113 244,4 -4,4"/>
<!-- Node0 -->
<g id="node1" class="node"><title>Node0</title>
<polygon fill="#bfbfbf" stroke="black" points="40,-56.5 40,-108.5 178,-108.5 178,-56.5 40,-56.5"/>
<text text-anchor="start" x="48" y="-96.5" font-family="Helvetica,sans-Serif" font-size="10.00">C:/Users/vashm/Documents</text>
<text text-anchor="start" x="48" y="-85.5" font-family="Helvetica,sans-Serif" font-size="10.00">/git/robotics&#45;prototype</text>
<text text-anchor="start" x="48" y="-74.5" font-family="Helvetica,sans-Serif" font-size="10.00">/robot/rover/ArmDriverUnit</text>
<text text-anchor="middle" x="109" y="-63.5" font-family="Helvetica,sans-Serif" font-size="10.00">/RobotMotor.h</text>
</g>
<!-- Node1 -->
<g id="node2" class="node"><title>Node1</title>
<polygon fill="white" stroke="#bfbfbf" points="0,-0.5 0,-19.5 58,-19.5 58,-0.5 0,-0.5"/>
<text text-anchor="middle" x="29" y="-7.5" font-family="Helvetica,sans-Serif" font-size="10.00">Arduino.h</text>
</g>
<!-- Node0&#45;&gt;Node1 -->
<g id="edge1" class="edge"><title>Node0&#45;&gt;Node1</title>
<path fill="none" stroke="midnightblue" d="M80.5697,-56.4458C69.2017,-46.4278 56.4696,-35.2075 46.5006,-26.4224"/>
<polygon fill="midnightblue" stroke="midnightblue" points="48.6838,-23.6812 38.8672,-19.6955 44.0557,-28.933 48.6838,-23.6812"/>
</g>
<!-- Node2 -->
<g id="node3" class="node"><title>Node2</title>
<g id="a_node3"><a xlink:href="PinSetup_8h.html" target="_top" xlink:title="PinSetup.h">
<polygon fill="white" stroke="black" points="76.5,-0.5 76.5,-19.5 141.5,-19.5 141.5,-0.5 76.5,-0.5"/>
<text text-anchor="middle" x="109" y="-7.5" font-family="Helvetica,sans-Serif" font-size="10.00">PinSetup.h</text>
</a>
</g>
</g>
<!-- Node0&#45;&gt;Node2 -->
<g id="edge2" class="edge"><title>Node0&#45;&gt;Node2</title>
<path fill="none" stroke="midnightblue" d="M109,-56.4458C109,-47.7301 109,-38.1045 109,-29.9641"/>
<polygon fill="midnightblue" stroke="midnightblue" points="112.5,-29.6954 109,-19.6955 105.5,-29.6955 112.5,-29.6954"/>
</g>
<!-- Node3 -->
<g id="node4" class="node"><title>Node3</title>
<g id="a_node4"><a xlink:href="PidController_8h.html" target="_top" xlink:title="PidController.h">
<polygon fill="white" stroke="black" points="160,-0.5 160,-19.5 240,-19.5 240,-0.5 160,-0.5"/>
<text text-anchor="middle" x="200" y="-7.5" font-family="Helvetica,sans-Serif" font-size="10.00">PidController.h</text>
</a>
</g>
</g>
<!-- Node0&#45;&gt;Node3 -->
<g id="edge3" class="edge"><title>Node0&#45;&gt;Node3</title>
<path fill="none" stroke="midnightblue" d="M141.339,-56.4458C154.529,-46.2274 169.333,-34.7583 180.77,-25.8983"/>
<polygon fill="midnightblue" stroke="midnightblue" points="183.014,-28.5867 188.776,-19.6955 178.727,-23.0531 183.014,-28.5867"/>
</g>
</g>
</svg>
