<?xml version="1.0" encoding="UTF-8" standalone="no"?>
<!DOCTYPE svg PUBLIC "-//W3C//DTD SVG 1.1//EN"
 "http://www.w3.org/Graphics/SVG/1.1/DTD/svg11.dtd">
<!-- Generated by graphviz version 2.38.0 (20140413.2041)
 -->
<!-- Title: C:/Users/vashm/Documents/git/robotics&#45;prototype/robot/rover/ArmDriverUnit/RobotMotor.h Pages: 1 -->
<svg width="652pt" height="239pt"
 viewBox="0.00 0.00 652.00 239.00" xmlns="http://www.w3.org/2000/svg" xmlns:xlink="http://www.w3.org/1999/xlink">
<g id="graph0" class="graph" transform="scale(1 1) rotate(0) translate(4 235)">
<title>C:/Users/vashm/Documents/git/robotics&#45;prototype/robot/rover/ArmDriverUnit/RobotMotor.h</title>
<polygon fill="white" stroke="none" points="-4,4 -4,-235 648,-235 648,4 -4,4"/>
<!-- Node4 -->
<g id="node1" class="node"><title>Node4</title>
<polygon fill="#bfbfbf" stroke="black" points="194,-178.5 194,-230.5 332,-230.5 332,-178.5 194,-178.5"/>
<text text-anchor="start" x="202" y="-218.5" font-family="Helvetica,sans-Serif" font-size="10.00">C:/Users/vashm/Documents</text>
<text text-anchor="start" x="202" y="-207.5" font-family="Helvetica,sans-Serif" font-size="10.00">/git/robotics&#45;prototype</text>
<text text-anchor="start" x="202" y="-196.5" font-family="Helvetica,sans-Serif" font-size="10.00">/robot/rover/ArmDriverUnit</text>
<text text-anchor="middle" x="263" y="-185.5" font-family="Helvetica,sans-Serif" font-size="10.00">/RobotMotor.h</text>
</g>
<!-- Node5 -->
<g id="node2" class="node"><title>Node5</title>
<g id="a_node2"><a xlink:href="Parser_8h.html" target="_top" xlink:title="C:/Users/vashm/Documents\l/git/robotics&#45;prototype\l/robot/rover/ArmDriverUnit\l/Parser.h">
<polygon fill="white" stroke="black" points="0,-89.5 0,-141.5 138,-141.5 138,-89.5 0,-89.5"/>
<text text-anchor="start" x="8" y="-129.5" font-family="Helvetica,sans-Serif" font-size="10.00">C:/Users/vashm/Documents</text>
<text text-anchor="start" x="8" y="-118.5" font-family="Helvetica,sans-Serif" font-size="10.00">/git/robotics&#45;prototype</text>
<text text-anchor="start" x="8" y="-107.5" font-family="Helvetica,sans-Serif" font-size="10.00">/robot/rover/ArmDriverUnit</text>
<text text-anchor="middle" x="69" y="-96.5" font-family="Helvetica,sans-Serif" font-size="10.00">/Parser.h</text>
</a>
</g>
</g>
<!-- Node4&#45;&gt;Node5 -->
<g id="edge1" class="edge"><title>Node4&#45;&gt;Node5</title>
<path fill="none" stroke="midnightblue" d="M197.875,-174.295C174.173,-163.665 147.615,-151.755 124.794,-141.521"/>
<polygon fill="midnightblue" stroke="midnightblue" points="196.591,-177.554 207.147,-178.453 199.455,-171.167 196.591,-177.554"/>
</g>
<!-- Node6 -->
<g id="node3" class="node"><title>Node6</title>
<g id="a_node3"><a xlink:href="ArmDriverUnit_8ino.html" target="_top" xlink:title="C:/Users/vashm/Documents\l/git/robotics&#45;prototype\l/robot/rover/ArmDriverUnit\l/ArmDriverUnit.ino">
<polygon fill="white" stroke="black" points="194,-0.5 194,-52.5 332,-52.5 332,-0.5 194,-0.5"/>
<text text-anchor="start" x="202" y="-40.5" font-family="Helvetica,sans-Serif" font-size="10.00">C:/Users/vashm/Documents</text>
<text text-anchor="start" x="202" y="-29.5" font-family="Helvetica,sans-Serif" font-size="10.00">/git/robotics&#45;prototype</text>
<text text-anchor="start" x="202" y="-18.5" font-family="Helvetica,sans-Serif" font-size="10.00">/robot/rover/ArmDriverUnit</text>
<text text-anchor="middle" x="263" y="-7.5" font-family="Helvetica,sans-Serif" font-size="10.00">/ArmDriverUnit.ino</text>
</a>
</g>
</g>
<!-- Node4&#45;&gt;Node6 -->
<g id="edge3" class="edge"><title>Node4&#45;&gt;Node6</title>
<path fill="none" stroke="midnightblue" d="M209.296,-171.914C199.476,-163.511 190.582,-153.509 185,-142 174.721,-120.806 174.721,-110.194 185,-89 192.074,-74.4149 204.469,-62.2488 217.324,-52.6919"/>
<polygon fill="midnightblue" stroke="midnightblue" points="207.322,-174.816 217.324,-178.308 211.683,-169.34 207.322,-174.816"/>
</g>
<!-- Node7 -->
<g id="node4" class="node"><title>Node7</title>
<g id="a_node4"><a xlink:href="StepperMotor_8h.html" target="_top" xlink:title="C:/Users/vashm/Documents\l/git/robotics&#45;prototype\l/robot/rover/ArmDriverUnit\l/StepperMotor.h">
<polygon fill="white" stroke="black" points="194,-89.5 194,-141.5 332,-141.5 332,-89.5 194,-89.5"/>
<text text-anchor="start" x="202" y="-129.5" font-family="Helvetica,sans-Serif" font-size="10.00">C:/Users/vashm/Documents</text>
<text text-anchor="start" x="202" y="-118.5" font-family="Helvetica,sans-Serif" font-size="10.00">/git/robotics&#45;prototype</text>
<text text-anchor="start" x="202" y="-107.5" font-family="Helvetica,sans-Serif" font-size="10.00">/robot/rover/ArmDriverUnit</text>
<text text-anchor="middle" x="263" y="-96.5" font-family="Helvetica,sans-Serif" font-size="10.00">/StepperMotor.h</text>
</a>
</g>
</g>
<!-- Node4&#45;&gt;Node7 -->
<g id="edge4" class="edge"><title>Node4&#45;&gt;Node7</title>
<path fill="none" stroke="midnightblue" d="M263,-168.191C263,-159.282 263,-149.899 263,-141.607"/>
<polygon fill="midnightblue" stroke="midnightblue" points="259.5,-168.336 263,-178.336 266.5,-168.336 259.5,-168.336"/>
</g>
<!-- Node8 -->
<g id="node5" class="node"><title>Node8</title>
<g id="a_node5"><a xlink:href="DcMotor_8h.html" target="_top" xlink:title="C:/Users/vashm/Documents\l/git/robotics&#45;prototype\l/robot/rover/ArmDriverUnit\l/DcMotor.h">
<polygon fill="white" stroke="black" points="350,-89.5 350,-141.5 488,-141.5 488,-89.5 350,-89.5"/>
<text text-anchor="start" x="358" y="-129.5" font-family="Helvetica,sans-Serif" font-size="10.00">C:/Users/vashm/Documents</text>
<text text-anchor="start" x="358" y="-118.5" font-family="Helvetica,sans-Serif" font-size="10.00">/git/robotics&#45;prototype</text>
<text text-anchor="start" x="358" y="-107.5" font-family="Helvetica,sans-Serif" font-size="10.00">/robot/rover/ArmDriverUnit</text>
<text text-anchor="middle" x="419" y="-96.5" font-family="Helvetica,sans-Serif" font-size="10.00">/DcMotor.h</text>
</a>
</g>
</g>
<!-- Node4&#45;&gt;Node8 -->
<g id="edge6" class="edge"><title>Node4&#45;&gt;Node8</title>
<path fill="none" stroke="midnightblue" d="M317.056,-173.353C335.628,-162.996 356.204,-151.521 373.98,-141.607"/>
<polygon fill="midnightblue" stroke="midnightblue" points="315.151,-170.408 308.122,-178.336 318.56,-176.522 315.151,-170.408"/>
</g>
<!-- Node9 -->
<g id="node6" class="node"><title>Node9</title>
<g id="a_node6"><a xlink:href="ServoMotor_8h.html" target="_top" xlink:title="C:/Users/vashm/Documents\l/git/robotics&#45;prototype\l/robot/rover/ArmDriverUnit\l/ServoMotor.h">
<polygon fill="white" stroke="black" points="506,-89.5 506,-141.5 644,-141.5 644,-89.5 506,-89.5"/>
<text text-anchor="start" x="514" y="-129.5" font-family="Helvetica,sans-Serif" font-size="10.00">C:/Users/vashm/Documents</text>
<text text-anchor="start" x="514" y="-118.5" font-family="Helvetica,sans-Serif" font-size="10.00">/git/robotics&#45;prototype</text>
<text text-anchor="start" x="514" y="-107.5" font-family="Helvetica,sans-Serif" font-size="10.00">/robot/rover/ArmDriverUnit</text>
<text text-anchor="middle" x="575" y="-96.5" font-family="Helvetica,sans-Serif" font-size="10.00">/ServoMotor.h</text>
</a>
</g>
</g>
<!-- Node4&#45;&gt;Node9 -->
<g id="edge8" class="edge"><title>Node4&#45;&gt;Node9</title>
<path fill="none" stroke="midnightblue" d="M341.959,-183.983C387.472,-172.425 445.666,-157.123 497,-142 499.87,-141.155 502.794,-140.276 505.744,-139.376"/>
<polygon fill="midnightblue" stroke="midnightblue" points="340.989,-180.618 332.153,-186.465 342.706,-187.404 340.989,-180.618"/>
</g>
<!-- Node5&#45;&gt;Node6 -->
<g id="edge2" class="edge"><title>Node5&#45;&gt;Node6</title>
<path fill="none" stroke="midnightblue" d="M134.125,-85.2945C157.827,-74.6654 184.385,-62.7552 207.206,-52.5211"/>
<polygon fill="midnightblue" stroke="midnightblue" points="132.545,-82.1672 124.853,-89.4527 135.409,-88.5543 132.545,-82.1672"/>
</g>
<!-- Node7&#45;&gt;Node6 -->
<g id="edge5" class="edge"><title>Node7&#45;&gt;Node6</title>
<path fill="none" stroke="midnightblue" d="M263,-79.1908C263,-70.2824 263,-60.8986 263,-52.6075"/>
<polygon fill="midnightblue" stroke="midnightblue" points="259.5,-79.336 263,-89.336 266.5,-79.336 259.5,-79.336"/>
</g>
<!-- Node8&#45;&gt;Node6 -->
<g id="edge7" class="edge"><title>Node8&#45;&gt;Node6</title>
<path fill="none" stroke="midnightblue" d="M364.944,-84.3532C346.372,-73.9962 325.796,-62.5208 308.02,-52.6075"/>
<polygon fill="midnightblue" stroke="midnightblue" points="363.44,-87.522 373.878,-89.336 366.849,-81.4085 363.44,-87.522"/>
</g>
<!-- Node9&#45;&gt;Node6 -->
<g id="edge9" class="edge"><title>Node9&#45;&gt;Node6</title>
<path fill="none" stroke="midnightblue" d="M496.026,-88.7703C435.543,-71.1102 376.521,-55.7297 332.153,-44.5353"/>
<polygon fill="midnightblue" stroke="midnightblue" points="495.163,-92.1645 505.744,-91.6239 497.135,-85.4481 495.163,-92.1645"/>
</g>
</g>
</svg>
