<?xml version="1.0" encoding="UTF-8" standalone="no"?>
<!DOCTYPE svg PUBLIC "-//W3C//DTD SVG 1.1//EN"
 "http://www.w3.org/Graphics/SVG/1.1/DTD/svg11.dtd">
<!-- Generated by graphviz version 2.38.0 (20140413.2041)
 -->
<!-- Title: C:/Users/vashm/Documents/git/robotics&#45;prototype/robot/rover/ArmDriverUnit/ServoMotor.h Pages: 1 -->
<svg width="259pt" height="173pt"
 viewBox="0.00 0.00 258.50 173.00" xmlns="http://www.w3.org/2000/svg" xmlns:xlink="http://www.w3.org/1999/xlink">
<g id="graph0" class="graph" transform="scale(1 1) rotate(0) translate(4 169)">
<title>C:/Users/vashm/Documents/git/robotics&#45;prototype/robot/rover/ArmDriverUnit/ServoMotor.h</title>
<polygon fill="white" stroke="none" points="-4,4 -4,-169 254.5,-169 254.5,4 -4,4"/>
<!-- Node0 -->
<g id="node1" class="node"><title>Node0</title>
<polygon fill="#bfbfbf" stroke="black" points="43,-112.5 43,-164.5 181,-164.5 181,-112.5 43,-112.5"/>
<text text-anchor="start" x="51" y="-152.5" font-family="Helvetica,sans-Serif" font-size="10.00">C:/Users/vashm/Documents</text>
<text text-anchor="start" x="51" y="-141.5" font-family="Helvetica,sans-Serif" font-size="10.00">/git/robotics&#45;prototype</text>
<text text-anchor="start" x="51" y="-130.5" font-family="Helvetica,sans-Serif" font-size="10.00">/robot/rover/ArmDriverUnit</text>
<text text-anchor="middle" x="112" y="-119.5" font-family="Helvetica,sans-Serif" font-size="10.00">/ServoMotor.h</text>
</g>
<!-- Node1 -->
<g id="node2" class="node"><title>Node1</title>
<polygon fill="white" stroke="#bfbfbf" points="0,-0.5 0,-19.5 58,-19.5 58,-0.5 0,-0.5"/>
<text text-anchor="middle" x="29" y="-7.5" font-family="Helvetica,sans-Serif" font-size="10.00">Arduino.h</text>
</g>
<!-- Node0&#45;&gt;Node1 -->
<g id="edge1" class="edge"><title>Node0&#45;&gt;Node1</title>
<path fill="none" stroke="midnightblue" d="M71.3221,-112.487C58.6649,-102.673 45.9559,-90.3075 38,-76 30.1278,-61.843 28.2239,-43.3602 28.087,-29.7242"/>
<polygon fill="midnightblue" stroke="midnightblue" points="31.5886,-29.6813 28.2954,-19.6113 24.59,-29.5371 31.5886,-29.6813"/>
</g>
<!-- Node2 -->
<g id="node3" class="node"><title>Node2</title>
<polygon fill="white" stroke="#bfbfbf" points="47.5,-56.5 47.5,-75.5 96.5,-75.5 96.5,-56.5 47.5,-56.5"/>
<text text-anchor="middle" x="72" y="-63.5" font-family="Helvetica,sans-Serif" font-size="10.00">Servo.h</text>
</g>
<!-- Node0&#45;&gt;Node2 -->
<g id="edge2" class="edge"><title>Node0&#45;&gt;Node2</title>
<path fill="none" stroke="midnightblue" d="M97.7849,-112.446C92.5556,-103.229 86.749,-92.9951 81.9721,-84.5757"/>
<polygon fill="midnightblue" stroke="midnightblue" points="84.9126,-82.6659 76.9336,-75.6955 78.8243,-86.1203 84.9126,-82.6659"/>
</g>
<!-- Node3 -->
<g id="node4" class="node"><title>Node3</title>
<g id="a_node4"><a xlink:href="PinSetup_8h.html" target="_top" xlink:title="PinSetup.h">
<polygon fill="white" stroke="black" points="185.5,-0.5 185.5,-19.5 250.5,-19.5 250.5,-0.5 185.5,-0.5"/>
<text text-anchor="middle" x="218" y="-7.5" font-family="Helvetica,sans-Serif" font-size="10.00">PinSetup.h</text>
</a>
</g>
</g>
<!-- Node0&#45;&gt;Node3 -->
<g id="edge3" class="edge"><title>Node0&#45;&gt;Node3</title>
<path fill="none" stroke="midnightblue" d="M158.719,-112.214C173.032,-102.521 187.701,-90.2979 198,-76 207.812,-62.3783 212.895,-43.8362 215.474,-30.0416"/>
<polygon fill="midnightblue" stroke="midnightblue" points="218.991,-30.2079 217.101,-19.7831 212.078,-29.1113 218.991,-30.2079"/>
</g>
<!-- Node4 -->
<g id="node5" class="node"><title>Node4</title>
<g id="a_node5"><a xlink:href="RobotMotor_8h.html" target="_top" xlink:title="RobotMotor.h">
<polygon fill="white" stroke="black" points="114.5,-56.5 114.5,-75.5 189.5,-75.5 189.5,-56.5 114.5,-56.5"/>
<text text-anchor="middle" x="152" y="-63.5" font-family="Helvetica,sans-Serif" font-size="10.00">RobotMotor.h</text>
</a>
</g>
</g>
<!-- Node0&#45;&gt;Node4 -->
<g id="edge4" class="edge"><title>Node0&#45;&gt;Node4</title>
<path fill="none" stroke="midnightblue" d="M126.215,-112.446C131.444,-103.229 137.251,-92.9951 142.028,-84.5757"/>
<polygon fill="midnightblue" stroke="midnightblue" points="145.176,-86.1203 147.066,-75.6955 139.087,-82.6659 145.176,-86.1203"/>
</g>
<!-- Node4&#45;&gt;Node1 -->
<g id="edge5" class="edge"><title>Node4&#45;&gt;Node1</title>
<path fill="none" stroke="midnightblue" d="M132.51,-56.4435C112.358,-47.5961 80.6771,-33.6875 57.6692,-23.5865"/>
<polygon fill="midnightblue" stroke="midnightblue" points="58.962,-20.3316 48.3985,-19.5164 56.148,-26.7411 58.962,-20.3316"/>
</g>
<!-- Node4&#45;&gt;Node3 -->
<g id="edge6" class="edge"><title>Node4&#45;&gt;Node3</title>
<path fill="none" stroke="midnightblue" d="M162.604,-56.324C172.456,-48.2631 187.351,-36.0765 199.215,-26.3695"/>
<polygon fill="midnightblue" stroke="midnightblue" points="201.68,-28.8752 207.203,-19.8339 197.247,-23.4575 201.68,-28.8752"/>
</g>
<!-- Node5 -->
<g id="node6" class="node"><title>Node5</title>
<g id="a_node6"><a xlink:href="PidController_8h.html" target="_top" xlink:title="PidController.h">
<polygon fill="white" stroke="black" points="87,-0.5 87,-19.5 167,-19.5 167,-0.5 87,-0.5"/>
<text text-anchor="middle" x="127" y="-7.5" font-family="Helvetica,sans-Serif" font-size="10.00">PidController.h</text>
</a>
</g>
</g>
<!-- Node4&#45;&gt;Node5 -->
<g id="edge7" class="edge"><title>Node4&#45;&gt;Node5</title>
<path fill="none" stroke="midnightblue" d="M147.872,-56.083C144.486,-48.77 139.584,-38.1814 135.381,-29.1034"/>
<polygon fill="midnightblue" stroke="midnightblue" points="138.429,-27.3553 131.051,-19.7511 132.077,-30.2962 138.429,-27.3553"/>
</g>
</g>
</svg>
