<?xml version="1.0" encoding="UTF-8" standalone="no"?>
<!DOCTYPE svg PUBLIC "-//W3C//DTD SVG 1.1//EN"
 "http://www.w3.org/Graphics/SVG/1.1/DTD/svg11.dtd">
<!-- Generated by graphviz version 2.38.0 (20140413.2041)
 -->
<!-- Title: commandInfo Pages: 1 -->
<svg width="351pt" height="369pt"
 viewBox="0.00 0.00 350.50 369.00" xmlns="http://www.w3.org/2000/svg" xmlns:xlink="http://www.w3.org/1999/xlink">
<g id="graph0" class="graph" transform="scale(1 1) rotate(0) translate(4 365)">
<title>commandInfo</title>
<polygon fill="white" stroke="none" points="-4,4 -4,-365 346.5,-365 346.5,4 -4,4"/>
<!-- Node1 -->
<g id="node1" class="node"><title>Node1</title>
<polygon fill="#bfbfbf" stroke="black" points="67.5,-0.5 67.5,-145.5 199.5,-145.5 199.5,-0.5 67.5,-0.5"/>
<text text-anchor="middle" x="133.5" y="-133.5" font-family="Helvetica,sans-Serif" font-size="10.00">commandInfo</text>
<polyline fill="none" stroke="black" points="67.5,-126.5 199.5,-126.5 "/>
<text text-anchor="start" x="75.5" y="-114.5" font-family="Helvetica,sans-Serif" font-size="10.00">+ pingCommand</text>
<text text-anchor="start" x="75.5" y="-103.5" font-family="Helvetica,sans-Serif" font-size="10.00">+ whoCommand</text>
<text text-anchor="start" x="75.5" y="-92.5" font-family="Helvetica,sans-Serif" font-size="10.00">+ resetAllMotors</text>
<text text-anchor="start" x="75.5" y="-81.5" font-family="Helvetica,sans-Serif" font-size="10.00">+ armSpeedCommand</text>
<text text-anchor="start" x="75.5" y="-70.5" font-family="Helvetica,sans-Serif" font-size="10.00">+ stopSingleMotor</text>
<text text-anchor="start" x="75.5" y="-59.5" font-family="Helvetica,sans-Serif" font-size="10.00">+ gearCommand</text>
<text text-anchor="start" x="75.5" y="-48.5" font-family="Helvetica,sans-Serif" font-size="10.00">+ openLoopGainCommand</text>
<text text-anchor="start" x="75.5" y="-37.5" font-family="Helvetica,sans-Serif" font-size="10.00">+ budgeCommand</text>
<text text-anchor="start" x="75.5" y="-26.5" font-family="Helvetica,sans-Serif" font-size="10.00">+ multiMove</text>
<polyline fill="none" stroke="black" points="67.5,-19.5 199.5,-19.5 "/>
<text text-anchor="middle" x="133.5" y="-7.5" font-family="Helvetica,sans-Serif" font-size="10.00"> </text>
</g>
<!-- Node2 -->
<g id="node2" class="node"><title>Node2</title>
<polygon fill="white" stroke="#bfbfbf" points="0,-303.5 0,-360.5 35,-360.5 35,-303.5 0,-303.5"/>
<text text-anchor="middle" x="17.5" y="-348.5" font-family="Helvetica,sans-Serif" font-size="10.00">float</text>
<polyline fill="none" stroke="#bfbfbf" points="0,-341.5 35,-341.5 "/>
<text text-anchor="middle" x="17.5" y="-329.5" font-family="Helvetica,sans-Serif" font-size="10.00"> </text>
<polyline fill="none" stroke="#bfbfbf" points="0,-322.5 35,-322.5 "/>
<text text-anchor="middle" x="17.5" y="-310.5" font-family="Helvetica,sans-Serif" font-size="10.00"> </text>
</g>
<!-- Node2&#45;&gt;Node1 -->
<g id="edge1" class="edge"><title>Node2&#45;&gt;Node1</title>
<path fill="none" stroke="#404040" d="M14.9809,-303.327C13.0637,-268.781 13.8571,-208.792 36.5,-164 42.2925,-152.541 50.1792,-141.796 58.9696,-131.999"/>
<polygon fill="none" stroke="#404040" points="58.9947,-131.973 60.2293,-124.868 67.2623,-123.275 66.0277,-130.38 58.9947,-131.973"/>
<text text-anchor="middle" x="83" y="-244" font-family="Helvetica,sans-Serif" font-size="10.00"> +armSpeedMultiplier</text>
<text text-anchor="middle" x="83" y="-233" font-family="Helvetica,sans-Serif" font-size="10.00">+gearRatioVal</text>
<text text-anchor="middle" x="83" y="-222" font-family="Helvetica,sans-Serif" font-size="10.00">+motorSpeed</text>
<text text-anchor="middle" x="83" y="-211" font-family="Helvetica,sans-Serif" font-size="10.00">+openLoopGain</text>
<text text-anchor="middle" x="83" y="-200" font-family="Helvetica,sans-Serif" font-size="10.00">+anglesToReach</text>
</g>
<!-- Node3 -->
<g id="node3" class="node"><title>Node3</title>
<polygon fill="white" stroke="#bfbfbf" points="119,-303.5 119,-360.5 148,-360.5 148,-303.5 119,-303.5"/>
<text text-anchor="middle" x="133.5" y="-348.5" font-family="Helvetica,sans-Serif" font-size="10.00">int</text>
<polyline fill="none" stroke="#bfbfbf" points="119,-341.5 148,-341.5 "/>
<text text-anchor="middle" x="133.5" y="-329.5" font-family="Helvetica,sans-Serif" font-size="10.00"> </text>
<polyline fill="none" stroke="#bfbfbf" points="119,-322.5 148,-322.5 "/>
<text text-anchor="middle" x="133.5" y="-310.5" font-family="Helvetica,sans-Serif" font-size="10.00"> </text>
</g>
<!-- Node3&#45;&gt;Node1 -->
<g id="edge2" class="edge"><title>Node3&#45;&gt;Node1</title>
<path fill="none" stroke="#404040" d="M133.5,-303.496C133.5,-268.984 133.5,-208.215 133.5,-157.876"/>
<polygon fill="none" stroke="#404040" points="133.5,-157.658 129.5,-151.658 133.5,-145.658 137.5,-151.658 133.5,-157.658"/>
<text text-anchor="middle" x="174.5" y="-238.5" font-family="Helvetica,sans-Serif" font-size="10.00"> +homingStyle</text>
<text text-anchor="middle" x="174.5" y="-227.5" font-family="Helvetica,sans-Serif" font-size="10.00">+directionsToMove</text>
<text text-anchor="middle" x="174.5" y="-216.5" font-family="Helvetica,sans-Serif" font-size="10.00">+loopState</text>
<text text-anchor="middle" x="174.5" y="-205.5" font-family="Helvetica,sans-Serif" font-size="10.00">+whichMotor</text>
</g>
<!-- Node4 -->
<g id="node4" class="node"><title>Node4</title>
<polygon fill="white" stroke="#bfbfbf" points="221,-303.5 221,-360.5 256,-360.5 256,-303.5 221,-303.5"/>
<text text-anchor="middle" x="238.5" y="-348.5" font-family="Helvetica,sans-Serif" font-size="10.00">bool</text>
<polyline fill="none" stroke="#bfbfbf" points="221,-341.5 256,-341.5 "/>
<text text-anchor="middle" x="238.5" y="-329.5" font-family="Helvetica,sans-Serif" font-size="10.00"> </text>
<polyline fill="none" stroke="#bfbfbf" points="221,-322.5 256,-322.5 "/>
<text text-anchor="middle" x="238.5" y="-310.5" font-family="Helvetica,sans-Serif" font-size="10.00"> </text>
</g>
<!-- Node4&#45;&gt;Node1 -->
<g id="edge3" class="edge"><title>Node4&#45;&gt;Node1</title>
<path fill="none" stroke="#404040" d="M239.844,-303.272C240.415,-268.932 237.77,-209.419 216.5,-164 213.711,-158.045 210.384,-152.215 206.69,-146.566"/>
<polygon fill="none" stroke="#404040" points="206.587,-146.42 199.863,-143.816 199.68,-136.607 206.405,-139.212 206.587,-146.42"/>
<text text-anchor="middle" x="291" y="-277" font-family="Helvetica,sans-Serif" font-size="10.00"> +stopAllMotors</text>
<text text-anchor="middle" x="291" y="-266" font-family="Helvetica,sans-Serif" font-size="10.00">+resetAngleValue</text>
<text text-anchor="middle" x="291" y="-255" font-family="Helvetica,sans-Serif" font-size="10.00">+resetCommand</text>
<text text-anchor="middle" x="291" y="-244" font-family="Helvetica,sans-Serif" font-size="10.00">+loopCommand</text>
<text text-anchor="middle" x="291" y="-233" font-family="Helvetica,sans-Serif" font-size="10.00">+homeAllMotors</text>
<text text-anchor="middle" x="291" y="-222" font-family="Helvetica,sans-Serif" font-size="10.00">+motorSpeedCommand</text>
<text text-anchor="middle" x="291" y="-211" font-family="Helvetica,sans-Serif" font-size="10.00">+motorsToMove</text>
<text text-anchor="middle" x="291" y="-200" font-family="Helvetica,sans-Serif" font-size="10.00">+resetJointPosition</text>
<text text-anchor="middle" x="291" y="-189" font-family="Helvetica,sans-Serif" font-size="10.00">+switchDir</text>
<text text-anchor="middle" x="291" y="-178" font-family="Helvetica,sans-Serif" font-size="10.00">+homeCommand</text>
<text text-anchor="middle" x="291" y="-167" font-family="Helvetica,sans-Serif" font-size="10.00">...</text>
</g>
</g>
</svg>
