<?xml version="1.0" encoding="UTF-8" standalone="no"?>
<!DOCTYPE svg PUBLIC "-//W3C//DTD SVG 1.1//EN"
 "http://www.w3.org/Graphics/SVG/1.1/DTD/svg11.dtd">
<!-- Generated by graphviz version 2.38.0 (20140413.2041)
 -->
<!-- Title: commandInfo Pages: 1 -->
<svg width="312pt" height="358pt"
 viewBox="0.00 0.00 311.50 358.00" xmlns="http://www.w3.org/2000/svg" xmlns:xlink="http://www.w3.org/1999/xlink">
<g id="graph0" class="graph" transform="scale(1 1) rotate(0) translate(4 354)">
<title>commandInfo</title>
<polygon fill="white" stroke="none" points="-4,4 -4,-354 307.5,-354 307.5,4 -4,4"/>
<!-- Node1 -->
<g id="node1" class="node"><title>Node1</title>
<polygon fill="#bfbfbf" stroke="black" points="47.5,-0.5 47.5,-134.5 179.5,-134.5 179.5,-0.5 47.5,-0.5"/>
<text text-anchor="middle" x="113.5" y="-122.5" font-family="Helvetica,sans-Serif" font-size="10.00">commandInfo</text>
<polyline fill="none" stroke="black" points="47.5,-115.5 179.5,-115.5 "/>
<text text-anchor="start" x="55.5" y="-103.5" font-family="Helvetica,sans-Serif" font-size="10.00">+ pingCommand</text>
<text text-anchor="start" x="55.5" y="-92.5" font-family="Helvetica,sans-Serif" font-size="10.00">+ whoCommand</text>
<text text-anchor="start" x="55.5" y="-81.5" font-family="Helvetica,sans-Serif" font-size="10.00">+ stopSingleMotor</text>
<text text-anchor="start" x="55.5" y="-70.5" font-family="Helvetica,sans-Serif" font-size="10.00">+ gearCommand</text>
<text text-anchor="start" x="55.5" y="-59.5" font-family="Helvetica,sans-Serif" font-size="10.00">+ openLoopGainCommand</text>
<text text-anchor="start" x="55.5" y="-48.5" font-family="Helvetica,sans-Serif" font-size="10.00">+ speedCommand</text>
<text text-anchor="start" x="55.5" y="-37.5" font-family="Helvetica,sans-Serif" font-size="10.00">+ budgeCommand</text>
<text text-anchor="start" x="55.5" y="-26.5" font-family="Helvetica,sans-Serif" font-size="10.00">+ multiMove</text>
<polyline fill="none" stroke="black" points="47.5,-19.5 179.5,-19.5 "/>
<text text-anchor="middle" x="113.5" y="-7.5" font-family="Helvetica,sans-Serif" font-size="10.00"> </text>
</g>
<!-- Node2 -->
<g id="node2" class="node"><title>Node2</title>
<polygon fill="white" stroke="#bfbfbf" points="0,-292.5 0,-349.5 35,-349.5 35,-292.5 0,-292.5"/>
<text text-anchor="middle" x="17.5" y="-337.5" font-family="Helvetica,sans-Serif" font-size="10.00">float</text>
<polyline fill="none" stroke="#bfbfbf" points="0,-330.5 35,-330.5 "/>
<text text-anchor="middle" x="17.5" y="-318.5" font-family="Helvetica,sans-Serif" font-size="10.00"> </text>
<polyline fill="none" stroke="#bfbfbf" points="0,-311.5 35,-311.5 "/>
<text text-anchor="middle" x="17.5" y="-299.5" font-family="Helvetica,sans-Serif" font-size="10.00"> </text>
</g>
<!-- Node2&#45;&gt;Node1 -->
<g id="edge1" class="edge"><title>Node2&#45;&gt;Node1</title>
<path fill="none" stroke="#404040" d="M15.5823,-292.321C14.3169,-258.031 15.814,-198.568 36.5,-153 37.8569,-150.011 39.3598,-147.056 40.9843,-144.142"/>
<polygon fill="none" stroke="#404040" points="41.066,-144.009 40.8031,-136.802 47.3539,-133.788 47.6169,-140.994 41.066,-144.009"/>
<text text-anchor="middle" x="73" y="-227.5" font-family="Helvetica,sans-Serif" font-size="10.00"> +gearRatioVal</text>
<text text-anchor="middle" x="73" y="-216.5" font-family="Helvetica,sans-Serif" font-size="10.00">+motorSpeed</text>
<text text-anchor="middle" x="73" y="-205.5" font-family="Helvetica,sans-Serif" font-size="10.00">+openLoopGain</text>
<text text-anchor="middle" x="73" y="-194.5" font-family="Helvetica,sans-Serif" font-size="10.00">+anglesToReach</text>
</g>
<!-- Node3 -->
<g id="node3" class="node"><title>Node3</title>
<polygon fill="white" stroke="#bfbfbf" points="99,-292.5 99,-349.5 128,-349.5 128,-292.5 99,-292.5"/>
<text text-anchor="middle" x="113.5" y="-337.5" font-family="Helvetica,sans-Serif" font-size="10.00">int</text>
<polyline fill="none" stroke="#bfbfbf" points="99,-330.5 128,-330.5 "/>
<text text-anchor="middle" x="113.5" y="-318.5" font-family="Helvetica,sans-Serif" font-size="10.00"> </text>
<polyline fill="none" stroke="#bfbfbf" points="99,-311.5 128,-311.5 "/>
<text text-anchor="middle" x="113.5" y="-299.5" font-family="Helvetica,sans-Serif" font-size="10.00"> </text>
</g>
<!-- Node3&#45;&gt;Node1 -->
<g id="edge2" class="edge"><title>Node3&#45;&gt;Node1</title>
<path fill="none" stroke="#404040" d="M113.5,-292.124C113.5,-257.343 113.5,-196.42 113.5,-146.938"/>
<polygon fill="none" stroke="#404040" points="113.5,-146.627 109.5,-140.627 113.5,-134.627 117.5,-140.627 113.5,-146.627"/>
<text text-anchor="middle" x="154.5" y="-227.5" font-family="Helvetica,sans-Serif" font-size="10.00"> +homingStyle</text>
<text text-anchor="middle" x="154.5" y="-216.5" font-family="Helvetica,sans-Serif" font-size="10.00">+directionsToMove</text>
<text text-anchor="middle" x="154.5" y="-205.5" font-family="Helvetica,sans-Serif" font-size="10.00">+loopState</text>
<text text-anchor="middle" x="154.5" y="-194.5" font-family="Helvetica,sans-Serif" font-size="10.00">+whichMotor</text>
</g>
<!-- Node4 -->
<g id="node4" class="node"><title>Node4</title>
<polygon fill="white" stroke="#bfbfbf" points="201,-292.5 201,-349.5 236,-349.5 236,-292.5 201,-292.5"/>
<text text-anchor="middle" x="218.5" y="-337.5" font-family="Helvetica,sans-Serif" font-size="10.00">bool</text>
<polyline fill="none" stroke="#bfbfbf" points="201,-330.5 236,-330.5 "/>
<text text-anchor="middle" x="218.5" y="-318.5" font-family="Helvetica,sans-Serif" font-size="10.00"> </text>
<polyline fill="none" stroke="#bfbfbf" points="201,-311.5 236,-311.5 "/>
<text text-anchor="middle" x="218.5" y="-299.5" font-family="Helvetica,sans-Serif" font-size="10.00"> </text>
</g>
<!-- Node4&#45;&gt;Node1 -->
<g id="edge3" class="edge"><title>Node4&#45;&gt;Node1</title>
<path fill="none" stroke="#404040" d="M220.069,-292.462C220.899,-258.056 218.546,-198.21 196.5,-153 193.809,-147.481 190.616,-142.1 187.076,-136.9"/>
<polygon fill="none" stroke="#404040" points="186.998,-136.794 180.218,-134.337 179.879,-127.133 186.659,-129.591 186.998,-136.794"/>
<text text-anchor="middle" x="261.5" y="-266" font-family="Helvetica,sans-Serif" font-size="10.00"> +stopAllMotors</text>
<text text-anchor="middle" x="261.5" y="-255" font-family="Helvetica,sans-Serif" font-size="10.00">+resetAngleValue</text>
<text text-anchor="middle" x="261.5" y="-244" font-family="Helvetica,sans-Serif" font-size="10.00">+resetCommand</text>
<text text-anchor="middle" x="261.5" y="-233" font-family="Helvetica,sans-Serif" font-size="10.00">+loopCommand</text>
<text text-anchor="middle" x="261.5" y="-222" font-family="Helvetica,sans-Serif" font-size="10.00">+homeAllMotors</text>
<text text-anchor="middle" x="261.5" y="-211" font-family="Helvetica,sans-Serif" font-size="10.00">+motorsToMove</text>
<text text-anchor="middle" x="261.5" y="-200" font-family="Helvetica,sans-Serif" font-size="10.00">+resetJointPosition</text>
<text text-anchor="middle" x="261.5" y="-189" font-family="Helvetica,sans-Serif" font-size="10.00">+switchDir</text>
<text text-anchor="middle" x="261.5" y="-178" font-family="Helvetica,sans-Serif" font-size="10.00">+homeCommand</text>
<text text-anchor="middle" x="261.5" y="-167" font-family="Helvetica,sans-Serif" font-size="10.00">+resetAllMotors</text>
<text text-anchor="middle" x="261.5" y="-156" font-family="Helvetica,sans-Serif" font-size="10.00">...</text>
</g>
</g>
</svg>
